<svg version="1.1" id="Layer_1" xmlns="http://www.w3.org/2000/svg" xmlns:xlink="http://www.w3.org/1999/xlink" x="0px" y="0px"
	 width="100%" viewBox="0 0 1024 1024" enable-background="new 0 0 1024 1024" xml:space="preserve">
<path fill="#000000" opacity="1.000000" stroke="none" 
	d="
M731.144592,139.796692 
	C798.810486,184.194824 848.943604,243.253998 883.128845,316.038727 
	C899.670898,351.258728 910.579163,388.197815 916.226440,426.660400 
	C921.110779,459.927032 921.729187,493.336731 918.408264,526.795471 
	C918.007690,530.831726 919.369385,532.216064 923.294983,532.113586 
	C929.456482,531.952759 935.634644,531.912781 941.791016,532.172791 
	C958.483521,532.878052 968.171509,543.019836 968.179260,559.710144 
	C968.202393,609.708496 968.178894,659.706909 968.176208,709.705261 
	C968.174438,742.537537 967.543091,775.386963 968.434082,808.195068 
	C968.910156,825.725952 963.515747,839.967041 952.070984,852.765991 
	C941.637268,864.434265 931.799377,876.635498 921.707275,888.608948 
	C915.097595,896.450867 906.876831,900.468140 896.419556,900.449646 
	C828.088684,900.328613 759.757446,900.376282 691.426331,900.353943 
	C676.052673,900.348938 665.843201,890.090698 665.754517,874.608521 
	C665.726379,869.694946 665.750183,864.781128 665.750183,859.413330 
	C660.262756,860.235596 656.264648,862.333923 652.083435,863.800659 
	C614.326965,877.045166 575.668823,885.400635 535.561584,887.543274 
	C464.608765,891.333862 397.265900,877.612488 333.772858,846.219727 
	C249.157455,804.383484 183.984833,742.148071 141.295914,657.489014 
	C120.503426,616.254150 107.568748,572.469360 102.590584,526.448425 
	C95.372192,459.717651 106.061241,395.696777 131.902985,334.020691 
	C154.940857,279.036499 187.673203,230.642807 230.997406,189.574722 
	C271.164856,151.498978 317.005646,122.409050 368.938782,103.062523 
	C409.512390,87.947754 451.435211,79.852783 494.680969,77.543152 
	C565.309387,73.771080 632.113708,87.707428 695.357910,119.122803 
	C707.602600,125.205078 719.407349,132.092514 731.144592,139.796692 
M397.666779,841.761230 
	C448.173370,857.829895 499.759186,863.135010 552.527161,857.888733 
	C590.128540,854.150269 626.118469,844.448486 661.027893,830.276917 
	C664.417358,828.900818 665.878784,827.017822 665.829224,823.213745 
	C665.633972,808.216370 665.766479,793.214966 665.734863,778.215149 
	C665.719299,770.809448 665.288757,770.477478 658.475830,773.747192 
	C615.249146,794.492798 569.853455,806.370789 521.773682,807.236816 
	C518.320312,807.299011 517.022522,808.548645 517.042542,811.938416 
	C517.100708,821.769958 517.120850,831.605896 516.877747,841.433289 
	C516.761719,846.125305 513.724487,849.204895 510.037354,849.173340 
	C506.202698,849.140503 503.775208,846.180908 503.714478,841.172180 
	C503.631653,834.339905 503.680267,827.505859 503.683807,820.672607 
	C503.690826,807.119324 503.695526,807.091125 490.305908,806.387024 
	C463.349457,804.969666 437.195831,799.390686 411.683899,790.818298 
	C354.128082,771.478943 305.331818,738.743042 265.528320,693.039978 
	C214.395538,634.328552 187.634521,565.838318 185.718140,487.881836 
	C185.598953,483.033661 183.936615,481.951355 179.581360,482.091614 
	C171.589706,482.349030 163.583832,482.175781 155.583939,482.157562 
	C153.919693,482.153748 152.241486,482.159943 150.594315,481.959473 
	C146.393219,481.448151 143.646255,479.231842 143.920700,474.783997 
	C144.186401,470.477722 147.318344,468.873993 151.206039,468.829132 
	C161.038086,468.715546 170.873169,468.656525 180.704315,468.785065 
	C184.291428,468.831970 185.620804,467.623535 185.785110,463.900665 
	C186.409210,449.760773 188.098770,435.698730 190.955444,421.849548 
	C207.376678,342.239075 247.677322,277.287628 312.174652,227.896393 
	C366.110596,186.592911 427.584351,165.167847 495.406616,162.009628 
	C499.405396,161.823425 500.963409,160.652451 500.989594,156.483978 
	C501.044983,147.662704 501.459930,138.835373 502.014343,130.028595 
	C502.353821,124.636604 505.995422,120.970459 510.297638,121.004700 
	C514.463928,121.037865 516.957947,124.378365 517.011108,130.397324 
	C517.086182,138.896149 517.159424,147.401001 516.915283,155.894135 
	C516.793701,160.123566 518.070923,161.848190 522.571045,161.765518 
	C540.299744,161.439804 557.792969,163.897995 575.128479,167.283905 
	C622.511536,176.538574 665.517578,195.826920 704.049744,224.844208 
	C762.120544,268.575409 801.557190,325.410187 822.118286,395.133423 
	C828.433899,416.549744 832.751343,438.424011 833.430176,460.890381 
	C833.667908,468.757568 833.977722,468.763855 841.962036,468.754639 
	C850.961914,468.744232 859.963196,468.664459 868.961121,468.799103 
	C873.536255,468.867554 876.248840,471.465576 876.205200,475.336761 
	C876.156128,479.690674 873.411377,481.499908 869.523254,481.977173 
	C867.712158,482.199432 865.863159,482.153168 864.031189,482.158020 
	C855.697998,482.180176 847.363647,482.261169 839.032288,482.141815 
	C835.713196,482.094269 834.203918,483.151642 834.239258,486.722046 
	C834.341553,497.054260 833.244934,507.326599 832.395935,517.614014 
	C832.019226,522.179199 830.598206,526.686401 831.112488,531.185242 
	C832.919434,532.310425 834.626770,532.041626 836.260986,532.042847 
	C851.927490,532.054321 867.599365,531.790527 883.257507,532.144165 
	C888.609619,532.265076 890.363647,530.073364 890.638000,525.335632 
	C891.042114,518.357300 891.605469,511.388367 892.065308,504.413055 
	C893.937256,476.019562 892.093262,447.810486 887.165588,419.839142 
	C879.818298,378.134064 865.550537,338.840668 844.850464,301.904572 
	C807.090942,234.528564 754.181030,182.393036 685.777222,146.667358 
	C618.457214,111.507729 546.550415,99.769287 471.207550,108.114220 
	C420.249359,113.758308 372.160095,128.607040 327.363556,153.541260 
	C251.518433,195.757431 196.459549,257.094269 161.294113,336.275391 
	C134.441864,396.737946 123.894081,459.928864 131.304138,525.851379 
	C134.591644,555.098145 141.684952,583.513855 152.223740,610.944336 
	C179.640228,682.304260 225.278244,739.730164 286.683807,784.862244 
	C320.387085,809.633545 357.224731,828.375671 397.666779,841.761230 
M582.502747,516.833618 
	C576.366577,527.514954 571.944702,538.609131 573.983032,551.321655 
	C575.392151,560.110291 571.467102,566.608093 565.343506,572.493103 
	C551.780151,585.527771 536.463867,596.043884 520.068298,605.111206 
	C515.056274,607.882935 514.930420,609.118652 519.077881,613.192078 
	C524.188782,618.211731 529.257324,623.278870 534.498718,628.159546 
	C536.766846,630.271606 536.925293,632.107849 535.252380,634.658569 
	C531.965210,639.670593 528.945496,644.857239 525.757812,649.935730 
	C524.548157,651.862915 523.983215,653.793701 524.583313,656.087158 
	C526.394043,663.007751 528.225342,669.927002 529.811340,676.900696 
	C530.516357,680.000549 532.126770,681.105835 535.120789,680.549500 
	C540.847534,679.485474 546.554443,678.290222 552.309998,677.414917 
	C556.175537,676.827087 557.940369,674.732544 558.823792,671.031433 
	C561.836304,658.410217 565.252625,645.884827 568.218079,633.253174 
	C573.583374,610.399963 578.631531,587.481689 578.708008,563.820068 
	C578.711121,562.860046 578.651733,561.754578 580.353577,561.296021 
	C584.042542,563.737793 586.947754,567.447388 590.457092,570.456360 
	C596.505249,575.642029 601.174133,582.839478 608.522461,586.013916 
	C625.636841,593.407043 643.163147,599.843201 660.477478,606.779541 
	C664.524353,608.400757 665.833801,607.287476 665.793640,603.021484 
	C665.657104,588.525085 665.757446,574.026489 665.756104,559.528748 
	C665.754639,542.970886 676.214600,532.351807 692.824524,532.088562 
	C696.989563,532.022583 701.155579,532.008667 705.321228,531.994690 
	C707.585083,531.987061 709.106934,531.102173 709.718994,528.774353 
	C713.364624,514.907959 716.029663,500.887421 716.734863,486.528259 
	C716.895996,483.247223 715.524231,482.090637 712.343445,482.132141 
	C705.013184,482.227692 697.675415,482.268677 690.350098,482.035522 
	C685.304260,481.874908 682.694458,479.300995 682.743652,475.253235 
	C682.792419,471.236938 685.544556,468.861359 690.570129,468.788208 
	C697.401123,468.688751 704.247925,468.482819 711.061951,468.831055 
	C715.855042,469.075958 717.000183,467.191711 716.865234,462.721985 
	C716.613037,454.370850 715.893555,446.047333 714.256409,437.920502 
	C699.067261,362.518524 656.611145,308.923950 585.633118,278.614471 
	C566.203186,270.317413 545.710266,265.907715 524.519287,265.131256 
	C517.227295,264.864014 517.148193,264.938293 517.056580,271.992188 
	C517.015503,275.157898 517.100464,278.327118 516.985168,281.489563 
	C516.796021,286.680145 513.834778,290.244202 509.919586,290.164703 
	C505.925903,290.083557 503.733948,287.124939 503.690582,281.614594 
	C503.647766,276.176758 503.681244,270.738312 503.681244,265.001923 
	C486.972992,265.065338 471.393799,267.633270 456.245850,272.093750 
	C402.747955,287.846741 360.607361,318.815460 331.676971,366.874237 
	C314.016602,396.211365 304.276947,428.101379 302.315002,462.315826 
	C301.968414,468.360138 302.463593,468.755157 308.667847,468.762299 
	C315.666656,468.770325 322.667206,468.669830 329.663666,468.798004 
	C334.020233,468.877838 337.309021,471.711945 337.106506,475.256439 
	C336.872101,479.358826 334.171539,481.419769 330.313354,482.015045 
	C328.843903,482.241760 327.321259,482.154968 325.822815,482.157074 
	C319.323883,482.166138 312.823639,482.230560 306.326599,482.118591 
	C303.273560,482.065979 302.147217,483.330322 302.371674,486.328705 
	C303.342682,499.299500 305.293640,512.127747 308.717499,524.661743 
	C317.011536,555.024719 331.751587,582.009155 351.895630,606.140259 
	C354.232117,608.939270 356.314362,609.485474 359.599274,608.081360 
	C368.632935,604.219910 377.636841,600.215454 386.904266,596.991028 
	C402.225311,591.660400 416.263611,584.557251 427.062988,572.012390 
	C429.770172,568.867615 432.951874,566.123352 435.994354,563.279419 
	C437.009247,562.330750 437.881348,560.781555 439.776672,561.546265 
	C440.774933,563.421387 440.246216,565.457092 440.394836,567.416870 
	C440.885162,573.883179 441.213409,580.366516 441.891876,586.812927 
	C443.356445,600.728760 446.350189,614.386902 449.507141,627.986511 
	C452.891357,642.564880 456.744995,657.033875 460.337250,671.564575 
	C461.147430,674.841736 462.821655,676.571289 466.422852,677.007874 
	C472.190948,677.707214 477.941467,678.786682 483.589783,680.157288 
	C487.388000,681.078979 488.749207,679.482666 489.548523,676.221313 
	C491.093292,669.918457 492.758484,663.644714 494.419098,657.370911 
	C495.190033,654.458313 494.794037,651.939819 492.989838,649.371948 
	C489.928864,645.015381 487.415894,640.269714 484.298065,635.958435 
	C482.007996,632.791687 482.098206,630.365784 484.923248,627.708557 
	C490.017517,622.916870 495.021576,618.027161 499.989075,613.103455 
	C503.602448,609.521912 503.331238,607.684143 498.887085,605.036133 
	C496.169098,603.416626 493.349854,601.967834 490.617249,600.371887 
	C476.167664,591.932922 462.668091,582.269958 451.103180,570.048889 
	C446.899414,565.606628 444.389343,560.825867 444.883911,554.408264 
	C445.343353,548.446533 444.934784,542.418274 444.919312,536.419312 
	C444.914124,534.397583 444.707062,532.459412 443.569275,530.677673 
	C436.933838,520.286865 433.001068,508.845062 430.492401,496.853210 
	C429.999054,494.494812 429.188660,492.492950 426.451508,491.722656 
	C421.099030,490.216370 417.944641,486.253479 415.391937,481.547058 
	C409.329132,470.368896 406.204803,458.324585 405.196106,445.782928 
	C404.726013,439.937927 405.309753,433.715973 411.372589,430.501038 
	C415.071594,428.539612 415.273529,425.911041 414.484222,422.613373 
	C411.922150,411.909058 410.062714,401.097504 409.414856,390.098816 
	C408.411407,373.063477 411.650787,357.266846 423.334198,344.108154 
	C425.167542,342.043304 425.310822,340.579895 423.489044,338.615570 
	C420.728180,335.638672 418.904114,332.077484 417.581207,328.269135 
	C416.053009,323.869843 416.776947,322.609283 421.336456,322.875183 
	C430.774780,323.425568 439.484192,320.942963 447.900146,317.073730 
	C453.649506,314.430481 459.318604,311.612518 465.021210,308.867767 
	C487.524567,298.036560 511.103271,294.476868 535.543701,299.779266 
	C555.022644,304.005249 571.734558,312.585266 579.020935,333.066895 
	C579.586914,334.657837 580.558838,335.377258 582.188049,335.806091 
	C594.448181,339.033234 601.458252,347.495392 605.478943,359.083527 
	C611.488953,376.405426 609.761658,393.880310 606.822083,411.395813 
	C605.842041,417.235809 604.641785,423.038910 603.495422,429.106476 
	C612.109558,430.331665 614.023560,436.579834 613.877930,443.121460 
	C613.538391,458.368011 609.383240,472.681000 600.976379,485.553833 
	C599.132385,488.377258 596.538757,490.649292 593.082825,491.313080 
	C590.069885,491.891815 589.153137,493.900757 588.559998,496.505127 
	C587.044312,503.160065 585.401672,509.785278 582.502747,516.833618 
M844.499939,890.674927 
	C859.497986,890.676086 874.495972,890.679016 889.494019,890.677612 
	C898.036011,890.676880 897.888672,890.670593 898.068420,882.021118 
	C898.307068,870.534851 897.140808,858.994507 898.647522,847.572144 
	C900.062073,836.848633 907.419434,830.765808 918.134155,830.665527 
	C925.966003,830.592163 933.799622,830.685730 941.631104,830.594849 
	C952.997925,830.462891 957.770386,825.650085 957.771973,814.410950 
	C957.783752,730.253784 957.790100,646.096619 957.791382,561.939453 
	C957.791565,547.450562 952.678711,542.298218 938.303528,542.297485 
	C856.979370,542.293640 775.655212,542.295776 694.331055,542.299011 
	C681.185852,542.299561 675.923889,547.653625 675.926697,560.854309 
	C675.948669,664.508423 675.961487,768.162598 675.956970,871.816711 
	C675.956360,885.345093 681.146667,890.683960 694.516602,890.683777 
	C744.177673,890.682983 793.838806,890.677917 844.499939,890.674927 
M445.906525,185.476028 
	C444.939148,185.725845 443.979095,186.009720 443.003296,186.220581 
	C390.728394,197.516708 344.270416,220.748428 304.694641,256.526917 
	C243.303467,312.027679 208.539902,381.036163 202.939896,464.139008 
	C202.695908,467.759735 203.704391,468.800568 207.223068,468.786926 
	C232.720840,468.688080 258.219360,468.694153 283.717163,468.792267 
	C287.218445,468.805725 288.648254,467.854675 288.892120,464.046539 
	C289.753052,450.602478 291.203217,437.255157 294.446045,424.078400 
	C311.959198,352.916626 354.339417,302.253845 420.258026,270.999023 
	C445.077087,259.231232 471.542938,253.543213 498.794098,251.289413 
	C502.276733,251.001389 503.715759,249.908188 503.746918,246.177628 
	C503.920776,225.346832 502.857727,204.585602 501.062042,183.840393 
	C500.733765,180.048248 499.206116,179.158585 495.712402,179.265656 
	C479.190979,179.772049 462.913177,182.110245 445.906525,185.476028 
M707.318848,374.264313 
	C720.950745,402.495331 729.258240,432.109528 730.238525,463.569214 
	C730.358887,467.431824 731.632080,468.823181 735.526978,468.805481 
	C760.859436,468.690613 786.193176,468.666779 811.525146,468.827179 
	C815.837463,468.854462 817.056030,467.210266 816.760681,463.221252 
	C815.850464,450.925293 814.553955,438.680359 812.192627,426.574005 
	C801.922241,373.919250 779.229431,327.154938 744.533508,286.375732 
	C707.272339,242.581497 661.093445,211.675446 606.536072,193.482712 
	C579.525635,184.475784 551.736023,179.627853 523.218628,179.038956 
	C518.876770,178.949280 516.939880,179.967270 516.989868,184.816772 
	C517.198120,204.980545 517.129395,225.148697 516.960693,245.313568 
	C516.925537,249.514053 518.405884,251.438965 522.618408,251.597610 
	C526.772095,251.754028 530.915405,252.222473 535.058960,252.601151 
	C564.726624,255.312393 592.295837,264.653412 618.016418,279.436646 
	C657.075378,301.886261 686.685974,333.376923 707.318848,374.264313 
M288.882629,681.605713 
	C286.132751,678.476685 283.401367,675.331116 280.624817,672.225891 
	C279.343445,670.792847 278.534149,669.332886 279.012115,667.270630 
	C282.994843,650.086121 291.743011,636.600098 308.469086,629.362793 
	C317.181610,625.592896 325.992645,622.050903 334.712341,618.297119 
	C336.755280,617.417664 339.275848,617.102234 340.417999,614.634094 
	C340.132904,613.981873 339.947144,613.325806 339.588409,612.784546 
	C338.853363,611.675476 338.048920,610.609741 337.232300,609.557800 
	C317.480164,584.113037 302.841370,556.124207 295.129059,524.713440 
	C292.308594,513.226257 290.017426,501.657440 289.457092,489.775513 
	C289.294250,486.322662 290.017090,481.985016 283.755920,482.045197 
	C258.262817,482.290283 232.765808,482.192932 207.270721,482.096527 
	C203.644257,482.082825 202.033432,483.277313 202.342636,487.015747 
	C203.027939,495.301514 203.514450,503.603668 204.198486,511.889526 
	C206.588272,540.837280 213.995712,568.587769 225.054871,595.323730 
	C250.065796,655.788757 290.422241,703.628906 345.233032,739.185547 
	C390.242981,768.384216 439.425964,785.341064 493.146088,789.295715 
	C499.256836,789.745544 504.806122,785.346436 510.845673,788.579407 
	C511.961609,789.176758 513.473938,787.978760 513.487793,786.347046 
	C513.501465,784.745972 511.896729,783.461792 510.931030,783.820679 
	C506.429230,785.493469 502.754059,782.380188 498.611755,782.117371 
	C487.983765,781.442871 477.363129,780.522461 466.860107,778.712097 
	C396.758789,766.628235 337.761841,734.106812 288.882629,681.605713 
M726.377380,515.767151 
	C725.591797,519.338135 725.082581,522.999512 723.951477,526.457458 
	C722.509644,530.865234 724.120605,532.131836 728.345398,532.117249 
	C754.799744,532.026184 781.254456,532.011475 807.708862,532.070862 
	C811.269165,532.078857 813.198425,530.978943 813.780029,527.183716 
	C815.849121,513.682129 816.919739,500.122040 816.999573,486.467163 
	C817.018799,483.184967 815.523193,482.137939 812.432495,482.144440 
	C786.643616,482.198761 760.854492,482.201447 735.065613,482.138184 
	C731.742004,482.130035 730.431213,483.363495 730.153137,486.775543 
	C729.384155,496.209442 728.678528,505.670319 726.377380,515.767151 
M634.132507,765.566101 
	C643.814331,761.517212 653.292603,757.052307 662.485413,751.974182 
	C665.492004,750.313293 666.706238,747.855591 665.149963,744.973999 
	C663.347351,741.636475 661.090759,744.462158 659.309387,745.397400 
	C636.376770,757.436218 612.526001,767.074158 587.356750,773.357361 
	C565.809570,778.736328 543.956787,781.849915 521.747131,782.253052 
	C518.512878,782.311768 516.489075,783.285889 516.620422,786.705200 
	C516.754822,790.202271 519.561279,789.783997 521.826416,789.706238 
	C526.311951,789.552429 530.791382,789.215881 535.273010,788.949890 
	C569.325989,786.928650 601.936707,778.785339 634.132507,765.566101 
M473.307220,714.289429 
	C475.684662,720.058838 476.493713,726.481934 480.139160,732.451233 
	C481.911041,729.239380 482.291412,726.620605 482.574493,723.996399 
	C483.249115,717.742981 483.707123,711.462280 484.536835,705.230408 
	C486.018280,694.103149 486.105621,694.116577 474.902679,692.196472 
	C474.250580,692.084656 473.613434,691.887817 472.963074,691.763245 
	C467.352539,690.688965 466.392609,691.725281 468.049561,697.401001 
	C469.627686,702.806824 471.384399,708.160461 473.307220,714.289429 
M534.844543,705.908752 
	C535.787964,714.821472 536.731384,723.734192 537.718079,733.055237 
	C539.786743,731.802429 540.142822,730.462036 540.548218,729.235168 
	C544.046509,718.647095 547.587158,708.071350 550.918762,697.430481 
	C552.729858,691.645935 551.872559,690.828735 546.039551,691.955627 
	C545.386047,692.081909 544.726074,692.174805 544.070374,692.290222 
	C533.226929,694.199646 533.226990,694.199951 534.844543,705.908752 
z"/>
<path fill="#000000" opacity="1.000000" stroke="none" 
	d="
M787.000000,558.703064 
	C831.162170,558.705627 874.824280,558.705627 918.486450,558.713684 
	C929.198547,558.715698 932.893250,562.310608 932.983093,573.080261 
	C933.087341,585.578064 933.082703,598.077332 933.035828,610.575623 
	C933.024841,613.494263 933.708618,616.069641 935.096863,618.659912 
	C957.945374,661.291687 933.510315,711.935852 885.997009,720.530151 
	C854.606812,726.207947 820.526672,705.168640 810.849121,674.153503 
	C809.159363,668.738220 807.592224,663.288330 807.374634,657.585144 
	C807.213562,653.362427 805.272705,652.094177 801.056152,652.115662 
	C770.226929,652.272949 739.396362,652.185974 708.566223,652.166992 
	C706.400635,652.165649 704.217224,652.254089 702.072815,652.019653 
	C695.802551,651.334229 691.648621,647.028809 691.624939,640.723999 
	C691.535339,616.893616 691.534424,593.062195 691.659729,569.232056 
	C691.695618,562.406311 696.015991,558.742493 703.508423,558.732971 
	C731.172302,558.697876 758.836121,558.709412 787.000000,558.703064 
M822.520203,678.718384 
	C823.380798,679.834839 823.577454,681.598755 825.756897,681.795288 
	C828.442688,677.773865 832.947205,676.336609 837.274963,674.610779 
	C842.839905,672.391541 848.481995,670.348022 853.958618,667.929382 
	C859.998779,665.261719 860.908997,662.304626 857.954895,656.524414 
	C856.158997,653.010315 854.770691,649.360168 852.172180,646.179688 
	C849.995972,643.516174 848.542542,639.607239 850.065125,636.309082 
	C851.869019,632.401672 851.523743,628.565186 851.557129,624.629028 
	C851.584045,621.447266 851.741821,618.331970 853.148560,615.368652 
	C857.800842,605.568298 870.062927,599.890381 880.929260,602.572266 
	C891.749573,605.242798 899.103638,615.346008 898.512024,626.606079 
	C898.383240,629.056946 897.660889,631.597595 899.040039,633.945557 
	C901.584351,638.277344 900.561157,642.721375 897.945557,646.149353 
	C895.563232,649.271606 894.092712,652.667725 892.443542,656.065247 
	C889.337341,662.464355 890.705444,665.655457 897.169556,668.503174 
	C906.823730,672.756226 917.650146,674.506348 926.388977,682.472961 
	C926.743713,681.798767 927.068726,681.215210 927.362305,680.616333 
	C928.094482,679.122559 928.917114,677.662598 929.518921,676.117249 
	C933.692139,665.400513 935.443237,654.472961 933.750183,642.893005 
	C929.694885,615.155151 905.065369,592.780518 877.586548,592.331604 
	C832.525574,591.595520 803.432251,636.667542 822.520203,678.718384 
M814.374084,589.371155 
	C812.586853,585.620789 809.371338,583.595520 805.580078,582.521790 
	C799.389343,580.768616 793.015137,581.556396 786.711975,581.581116 
	C784.366455,581.590332 783.118591,583.049500 783.120300,585.480896 
	C783.129456,598.478088 783.125610,611.475342 783.122864,624.472534 
	C783.122437,626.708069 784.174744,627.860779 786.463135,627.868103 
	C788.528931,627.874695 790.678772,627.938599 791.087219,625.245544 
	C791.410034,623.116638 791.552490,620.945740 791.588196,618.790466 
	C791.704895,611.756470 791.671936,611.755859 798.746338,611.663269 
	C812.289551,611.485962 818.384033,603.229065 814.374084,589.371155 
M729.384644,627.562073 
	C738.982910,628.682617 738.962280,628.672363 741.753235,619.890564 
	C744.370361,611.655762 747.147522,603.470276 749.654602,595.202637 
	C750.887512,591.136780 753.000916,587.246643 752.802185,582.832458 
	C745.805359,581.013489 745.007935,581.424500 743.046143,587.934326 
	C742.039673,591.274048 741.170349,594.655090 740.156982,597.992615 
	C738.308960,604.078796 736.399902,610.146423 734.478516,616.343506 
	C731.947754,615.225464 732.075500,613.371338 731.615234,611.873962 
	C728.832825,602.822144 726.039795,593.773010 723.355042,584.691956 
	C722.320068,581.191040 720.004517,581.128540 717.100891,581.822693 
	C713.760864,582.621155 714.078613,584.736206 714.912048,587.189880 
	C715.820068,589.863159 716.552612,592.599243 717.533875,595.244080 
	C721.454712,605.812378 723.993042,616.863220 729.384644,627.562073 
M770.717834,619.360840 
	C770.718201,608.246155 770.680664,597.131287 770.745483,586.017029 
	C770.761841,583.210632 769.834534,581.457336 766.797424,581.619324 
	C764.336243,581.750549 762.202087,582.308167 762.216370,585.559082 
	C762.273132,598.497986 762.266174,611.437256 762.235779,624.376282 
	C762.229736,626.959412 763.513672,627.763916 765.931824,627.890747 
	C772.195801,628.219360 770.381470,623.625793 770.717834,619.360840 
M874.751953,686.439209 
	C873.474670,691.156372 868.581665,689.203979 864.911865,691.456787 
	C870.490662,694.903442 871.579346,699.621094 869.578491,705.666138 
	C874.932251,702.056885 879.810730,701.905334 885.039062,705.595764 
	C883.411133,699.580750 884.951782,694.919495 889.570984,690.704895 
	C882.441772,691.566101 879.674622,687.118958 877.313538,681.378418 
	C876.227051,683.504944 875.640015,684.653809 874.751953,686.439209 
z"/>
<path fill="#000000" opacity="1.000000" stroke="none" 
	d="
M927.999573,797.097351 
	C927.385986,802.146973 924.213013,803.260803 920.127441,803.258301 
	C904.474915,803.248779 888.822327,803.301575 873.169800,803.297424 
	C821.215637,803.283630 769.261414,803.271362 717.307312,803.188782 
	C714.441040,803.184265 711.285828,804.008789 708.597595,801.477600 
	C709.308228,798.943909 711.511902,796.318176 708.251953,794.211914 
	C710.644043,791.080688 713.524292,791.885864 716.026306,791.883301 
	C770.144592,791.828003 824.262939,791.846252 878.381287,791.843994 
	C892.368591,791.843445 906.355957,791.843262 920.343140,791.795715 
	C924.001404,791.783325 926.953247,792.695129 927.999573,797.097351 
z"/>
<path fill="#000000" opacity="1.000000" stroke="none" 
	d="
M879.329468,833.692322 
	C876.983582,835.481018 874.599915,835.232300 872.283142,835.231812 
	C817.805847,835.220154 763.328613,835.199890 708.851318,835.165894 
	C706.855713,835.164673 704.838013,835.166687 702.870117,834.888000 
	C700.186157,834.507935 698.044250,833.239929 698.000977,830.153442 
	C697.955322,826.902222 699.613159,824.727417 702.830811,824.118469 
	C704.777954,823.750061 706.809021,823.718567 708.802490,823.717590 
	C763.612854,823.690430 818.423218,823.684326 873.233582,823.685974 
	C876.236328,823.686035 879.311096,823.515137 881.153442,826.701538 
	C882.745850,829.455688 881.293396,831.444214 879.329468,833.692322 
M871.211670,830.384888 
	C873.712646,830.902954 876.280334,831.980896 878.552612,829.672791 
	C875.589600,826.191895 872.691223,826.379944 871.211670,830.384888 
z"/>
<path fill="#000000" opacity="1.000000" stroke="none" 
	d="
M790.558899,720.128662 
	C763.139526,720.118896 736.171692,720.098999 709.203918,720.077881 
	C708.371582,720.077209 707.539246,720.067444 706.706970,720.056580 
	C700.180359,719.971497 696.940186,717.907104 697.092102,713.932373 
	C697.244019,709.956787 700.439087,707.810181 706.927856,707.780823 
	C726.404297,707.692810 745.881287,707.719971 765.358032,707.710205 
	C773.514954,707.706116 781.672729,707.792664 789.828552,707.699890 
	C793.958496,707.652893 797.394714,708.761719 797.819519,713.319153 
	C798.243530,717.867615 795.267517,719.832153 790.558899,720.128662 
z"/>
<path fill="#000000" opacity="1.000000" stroke="none" 
	d="
M773.999451,867.106995 
	C751.542786,867.101257 729.585999,867.097168 707.629150,867.085266 
	C706.132935,867.084473 704.623596,867.139893 703.143127,866.970337 
	C699.570007,866.561157 697.085754,864.723145 697.135803,860.927917 
	C697.182068,857.422058 699.505127,855.576355 702.866760,855.120117 
	C704.341797,854.919922 705.852600,854.934448 707.347168,854.934631 
	C733.961487,854.938171 760.575806,854.953308 787.190125,854.971313 
	C788.520264,854.972229 789.854309,854.966614 791.179871,855.058838 
	C794.945679,855.320679 797.869873,856.992615 797.737915,861.052368 
	C797.610168,864.980042 794.715820,866.851013 790.964844,866.968872 
	C785.480286,867.141235 779.988159,867.072693 773.999451,867.106995 
z"/>
<path fill="#000000" opacity="1.000000" stroke="none" 
	d="
M750.183411,754.896790 
	C750.125916,766.396973 746.599976,771.047363 738.116638,771.292969 
	C730.385864,771.516785 725.674438,767.723999 725.019775,760.021362 
	C724.556213,754.567505 724.865967,749.046814 724.857178,743.555969 
	C724.853455,741.196533 725.876343,739.856262 728.431763,739.760498 
	C731.042358,739.662720 732.683167,740.628235 732.761902,743.335999 
	C732.897278,747.990906 732.810730,752.652405 732.954529,757.306946 
	C733.054993,760.558472 733.404053,764.267151 737.634460,764.237854 
	C742.015015,764.207581 742.604370,760.567017 742.604553,757.002014 
	C742.604858,752.674927 742.670471,748.345337 742.540527,744.021790 
	C742.465088,741.509949 742.904541,739.831421 745.938477,739.750793 
	C748.977417,739.670166 750.158020,741.060608 750.134827,743.930847 
	C750.106567,747.425293 750.163452,750.920471 750.183411,754.896790 
z"/>
<path fill="#000000" opacity="1.000000" stroke="none" 
	d="
M767.546509,771.185181 
	C762.665955,771.572998 758.434509,771.038147 755.170654,767.604065 
	C753.775330,766.135925 752.408325,764.199829 754.408630,762.418945 
	C756.004639,760.998108 758.093506,760.034668 760.168152,762.116577 
	C760.972961,762.924316 761.915588,763.706482 762.945862,764.153748 
	C764.948486,765.023010 767.186707,764.981018 768.092346,762.774597 
	C769.043640,760.456909 766.934082,759.691345 765.164551,759.073547 
	C763.283997,758.417114 761.338074,757.918884 759.514832,757.133301 
	C755.593750,755.444031 753.577332,752.384949 753.822510,748.097656 
	C754.059387,743.955627 756.507324,741.382202 760.335205,740.193604 
	C765.207581,738.680664 769.913940,738.798645 773.728394,742.741516 
	C774.908142,743.960999 776.798157,745.545959 775.118347,747.400818 
	C773.656921,749.014404 771.496033,749.802490 769.249451,748.559265 
	C768.387329,748.082153 767.690430,747.296814 766.816040,746.853699 
	C765.443726,746.158386 764.138916,746.416870 763.475037,747.891785 
	C762.923950,749.115845 763.425354,750.188354 764.630737,750.792786 
	C765.666199,751.312012 766.718384,751.891968 767.831421,752.146484 
	C773.035645,753.336731 776.944885,756.010803 776.832947,761.765381 
	C776.726990,767.208252 772.838318,769.811157 767.546509,771.185181 
z"/>
<path fill="#000000" opacity="1.000000" stroke="none" 
	d="
M719.625000,743.445801 
	C720.549622,745.223511 721.810791,746.833252 719.582275,747.999207 
	C718.005981,748.823975 716.312866,749.791321 714.441162,748.474792 
	C713.370728,747.721741 712.290039,746.870483 711.079529,746.459839 
	C709.761292,746.012756 708.292480,746.348816 707.646912,747.754517 
	C706.908142,749.363281 708.025146,750.243896 709.373108,750.755432 
	C711.549072,751.581238 713.782898,752.256714 715.948059,753.108154 
	C719.727417,754.594421 721.895447,757.433777 722.010803,761.473755 
	C722.126892,765.542603 720.082520,768.405396 716.295288,770.006226 
	C710.957397,772.262512 705.825989,771.797607 701.140747,768.486633 
	C699.280151,767.171936 697.208130,765.035095 699.211182,762.666382 
	C700.917297,760.648987 703.431091,760.064148 705.637146,762.668701 
	C706.742676,763.973755 708.258484,764.706177 710.057922,764.615417 
	C711.647766,764.535217 713.145874,764.128052 713.561646,762.397522 
	C714.009766,760.532471 712.676636,759.682678 711.165161,759.174072 
	C709.116333,758.484436 707.016785,757.942810 704.976562,757.230225 
	C701.098999,755.875671 698.868164,753.058533 698.891968,748.993469 
	C698.915100,745.029907 700.847656,741.925903 704.707886,740.484009 
	C710.086426,738.474976 715.148193,738.720886 719.625000,743.445801 
z"/>
<path fill="#000000" opacity="1.000000" stroke="none" 
	d="
M805.674988,752.016846 
	C805.825745,737.918396 803.910767,739.900696 817.669739,739.721558 
	C818.168457,739.715088 818.679810,739.650574 819.163879,739.735413 
	C821.504944,740.145996 824.954712,738.511230 825.249878,742.825684 
	C825.559509,747.352661 822.004700,746.506409 819.383972,746.897217 
	C817.814758,747.131165 815.762390,746.649658 815.576782,749.077637 
	C815.369812,751.783875 817.416870,751.816772 819.296814,751.875488 
	C821.765564,751.952698 824.196655,752.165039 824.065735,755.493408 
	C823.936218,758.786499 821.293213,758.152527 819.235779,758.301636 
	C817.058289,758.459473 814.485718,758.337769 814.466919,761.368347 
	C814.445984,764.743347 817.336731,763.821899 819.314026,764.049988 
	C820.629944,764.201843 821.974609,764.106628 823.289917,764.261536 
	C825.016052,764.464783 825.932068,765.492493 825.966614,767.272583 
	C826.003235,769.159729 825.326843,770.775513 823.326904,770.851074 
	C818.352783,771.039185 813.366150,771.042542 808.388611,770.933289 
	C805.923157,770.879211 805.689392,768.941772 805.694336,766.976929 
	C805.706482,762.155640 805.684204,757.334290 805.674988,752.016846 
z"/>
<path fill="#000000" opacity="1.000000" stroke="none" 
	d="
M791.768860,760.675903 
	C788.229126,761.172241 787.249756,763.033325 787.690491,766.040100 
	C788.111511,768.913025 787.356140,770.985229 783.870361,771.017212 
	C780.384155,771.049194 779.805542,768.886780 779.815552,766.080383 
	C779.841736,758.755249 779.902100,751.428467 779.778625,744.105225 
	C779.723755,740.852600 781.121399,739.566772 784.264160,739.716980 
	C786.423218,739.820129 788.593323,739.669617 790.755615,739.731567 
	C798.211487,739.945068 802.053650,743.130798 802.348022,749.281494 
	C802.693359,756.497864 800.105774,759.366760 791.768860,760.675903 
M793.532593,747.827759 
	C791.421204,747.009888 789.248108,746.301453 788.378662,749.335449 
	C787.970886,750.758484 788.009094,752.381897 789.560791,753.292725 
	C790.780090,754.008423 792.158325,754.003174 793.306519,753.164917 
	C795.083740,751.867493 795.098083,750.167786 793.532593,747.827759 
z"/>
<path fill="#000000" opacity="1.000000" stroke="none" 
	d="
M848.409607,750.201172 
	C843.576538,745.803772 840.842346,745.416626 838.040039,748.683228 
	C835.144043,752.059021 835.698608,760.672241 839.066589,762.939697 
	C841.624451,764.661926 844.318726,764.412720 846.261108,762.078125 
	C848.524963,759.357178 851.115112,759.429932 853.137329,761.496033 
	C855.633545,764.046326 852.867065,766.130554 851.258850,767.714539 
	C847.494202,771.422424 842.766357,772.207581 837.822754,770.691772 
	C832.320251,769.004517 829.585571,764.892456 828.614502,759.345947 
	C826.235107,745.755798 835.406860,736.047729 846.987915,740.027283 
	C848.377930,740.504761 849.733948,741.259583 850.907043,742.148193 
	C852.649109,743.467773 854.484985,745.148682 853.991638,747.488098 
	C853.446167,750.074524 850.872620,750.042969 848.409607,750.201172 
z"/>
<path fill="#000000" opacity="1.000000" stroke="none" 
	d="
M862.910706,754.154785 
	C863.267761,749.815125 862.814270,746.676208 857.749756,746.620605 
	C855.864624,746.599915 855.618286,744.871521 855.670044,743.245911 
	C855.729553,741.378113 856.276978,739.853516 858.432312,739.834961 
	C864.258057,739.784729 870.085266,739.799438 875.910706,739.875488 
	C877.806885,739.900269 878.328186,741.304260 878.483765,742.947266 
	C878.658875,744.796204 878.357483,746.475586 876.173706,746.623718 
	C871.239014,746.958557 870.975769,750.301270 871.047363,754.041260 
	C871.127136,758.203430 871.083862,762.367798 871.115417,766.531128 
	C871.136475,769.303040 870.004761,770.950012 867.029663,771.034851 
	C863.929260,771.123291 862.968201,769.362244 862.968872,766.622131 
	C862.969910,762.624695 862.932434,758.627197 862.910706,754.154785 
z"/>
<path fill="#000000" opacity="1.000000" stroke="none" 
	d="
M796.935669,588.826050 
	C802.150635,588.657654 806.100464,589.914368 807.121765,595.231018 
	C807.728455,598.388855 806.764954,601.293701 803.820190,602.957520 
	C800.305969,604.942993 796.438904,604.692688 792.682495,603.794617 
	C791.407959,603.489746 791.524780,601.930542 791.527710,600.771240 
	C791.533630,598.444946 791.738037,596.106750 791.566833,593.795227 
	C791.295044,590.126099 792.855713,588.513550 796.935669,588.826050 
z"/>
</svg>