<svg version="1.1" id="Layer_1" xmlns="http://www.w3.org/2000/svg" xmlns:xlink="http://www.w3.org/1999/xlink" x="0px" y="0px"
	 width="100%" viewBox="80 110 880 300" enable-background="new 80 110 880 300" xml:space="preserve">
<path fill="#FFFFFF" opacity="1.000000" stroke="none" 
	d="
M859.376831,335.337708 
	C882.204102,323.813965 903.214355,310.515320 918.607605,289.928955 
	C937.241699,265.008484 935.477356,237.176498 913.858215,214.778610 
	C896.905762,197.215439 875.788818,186.375549 853.361633,177.837570 
	C822.582581,166.120071 790.617981,159.088516 758.111084,154.198608 
	C734.389587,150.630234 710.541016,148.599884 686.611084,147.298889 
	C685.821167,147.255966 685.043640,146.985352 683.857239,146.736221 
	C685.725037,144.304245 688.033752,145.003204 690.011047,145.027939 
	C720.823669,145.413300 751.547485,146.756653 782.089233,151.442642 
	C812.779053,156.151352 842.999634,162.587158 871.995483,173.866104 
	C893.904724,182.388474 914.330627,193.457764 930.756226,210.784149 
	C943.035889,223.737183 950.595398,238.853653 950.067993,256.990326 
	C949.582703,273.677429 942.009644,287.655151 931.556641,300.264374 
	C915.669067,319.429199 895.071655,332.189392 873.164185,343.100067 
	C835.820068,361.698639 796.227539,373.772919 755.738831,383.200043 
	C718.898926,391.777649 681.567566,397.353302 643.962585,401.050751 
	C621.606750,403.248901 599.190857,404.666809 576.718689,405.539734 
	C554.057861,406.419983 531.411499,406.488708 508.766418,406.188354 
	C474.300293,405.731293 439.952576,403.245941 405.665741,399.551208 
	C372.382935,395.964661 339.310974,391.219421 306.548615,384.348969 
	C303.780975,383.768585 301.018188,383.134796 298.299561,382.362457 
	C296.771942,381.928497 294.552795,381.616211 294.910767,379.444794 
	C295.275848,377.230316 297.276245,376.137421 299.442383,376.386719 
	C303.406036,376.842957 307.349426,377.532867 311.271973,378.279358 
	C347.933746,385.256226 384.948425,389.449036 422.084351,392.921295 
	C470.943604,397.489716 519.908325,397.787170 568.856873,396.416748 
	C602.106628,395.485809 635.265991,392.400482 668.290283,387.932648 
	C715.559570,381.537598 762.139282,372.278748 807.380615,356.907043 
	C825.066101,350.897980 842.319336,343.839111 859.376831,335.337708 
z"/>
<path fill="#FFFFFF" opacity="1.000000" stroke="none" 
	d="
M196.528839,285.574951 
	C201.500549,270.734344 210.798416,260.945251 225.997437,257.407318 
	C228.421417,256.843079 230.894516,256.156158 233.352448,256.125153 
	C250.149384,255.913330 266.997894,254.788986 283.724731,256.690765 
	C296.430420,258.135315 300.285339,265.484985 295.753784,277.631775 
	C290.316406,292.206635 281.796570,298.115692 266.242188,298.112671 
	C250.923523,298.109711 235.604828,298.097198 220.286209,298.126007 
	C215.378265,298.135254 212.417068,300.947784 212.670624,305.703278 
	C212.906906,310.135345 216.418457,310.882355 219.871567,310.907349 
	C236.188065,311.025604 252.505722,310.972870 268.822693,311.043976 
	C270.908539,311.053070 273.168365,310.446594 275.333527,312.337402 
	C274.397644,316.615601 272.056641,320.439636 270.161102,324.420990 
	C269.320618,326.186371 267.457947,326.155548 265.778076,326.156677 
	C245.630829,326.170197 225.483459,326.204376 205.336487,326.132050 
	C203.032425,326.123779 200.696136,325.653381 198.433594,325.138702 
	C188.140594,322.797089 183.914230,314.951477 187.862473,305.083954 
	C190.457153,298.599243 193.519608,292.301727 196.528839,285.574951 
M270.339142,281.888214 
	C275.715820,272.454803 274.260498,269.916901 263.316467,269.917297 
	C254.677719,269.917572 246.023193,269.777100 237.404694,270.239594 
	C228.968735,270.692322 224.541443,275.095001 222.687897,283.892822 
	C223.298874,284.046143 223.915771,284.332703 224.534592,284.336914 
	C237.992661,284.428955 251.450912,284.505585 264.909241,284.537933 
	C266.796082,284.542450 268.463959,283.783264 270.339142,281.888214 
z"/>
<path fill="#FFFFFF" opacity="1.000000" stroke="none" 
	d="
M404.094666,298.866425 
	C403.386139,302.867767 402.758606,306.447784 402.131073,310.027771 
	C402.399841,310.184326 402.668579,310.340912 402.937347,310.497467 
	C404.331543,308.976379 405.824799,307.533966 407.105072,305.922333 
	C425.759094,282.440643 444.387787,258.938751 463.014130,235.435028 
	C466.367279,231.203873 473.992889,229.049255 479.024872,230.832108 
	C481.342651,231.653320 480.717316,233.290787 480.481018,234.926376 
	C478.601807,247.931213 476.746857,260.939575 474.863831,273.943817 
	C473.385986,284.149628 471.838531,294.345612 470.427673,304.560547 
	C470.214966,306.100433 469.737366,307.787903 470.726746,309.397583 
	C472.567352,308.582153 473.452850,306.945404 474.523041,305.518921 
	C491.819580,282.464142 509.089813,259.389648 526.397461,236.343292 
	C531.069702,230.121841 534.608643,229.130997 543.480469,231.789673 
	C539.000122,237.793228 534.716309,243.612823 530.350281,249.370071 
	C512.332031,273.129639 494.282776,296.865601 476.260193,320.621796 
	C472.657715,325.370331 462.502777,328.169220 457.103394,325.885376 
	C454.360016,324.724976 455.492371,322.468048 455.748993,320.698853 
	C457.825104,306.384552 460.173798,292.108734 462.149506,277.781250 
	C463.438568,268.433350 465.576019,259.174347 465.818390,249.650177 
	C463.735168,249.332947 463.342041,250.898895 462.594879,251.839417 
	C443.943756,275.317413 425.326935,298.822571 406.687775,322.310028 
	C404.043304,325.642365 391.833649,327.783142 388.235291,325.638184 
	C386.557007,324.637695 386.920349,323.185059 387.180084,321.678497 
	C390.852783,300.375916 394.519958,279.072357 398.164581,257.764954 
	C399.341858,250.882324 400.787537,244.021454 401.477356,237.087646 
	C401.984375,231.991272 404.079163,229.921722 409.115448,230.650299 
	C411.054474,230.930817 413.102997,230.276505 415.852936,231.684189 
	C411.989380,253.772751 408.082520,276.108917 404.094666,298.866425 
z"/>
<path fill="#FFFFFF" opacity="1.000000" stroke="none" 
	d="
M305.998108,175.814301 
	C339.730316,168.410446 373.295990,162.483780 407.061188,157.570328 
	C436.031433,153.354645 465.093597,149.917419 494.206177,147.007935 
	C522.342590,144.196014 550.528625,141.743378 578.804932,140.635818 
	C582.130249,140.505569 585.443909,140.046677 588.769043,139.952515 
	C595.969238,139.748596 597.761963,140.827713 601.973389,147.468231 
	C598.462097,153.074631 593.941650,155.496994 586.802307,155.448242 
	C545.326355,155.164978 503.959198,157.676041 462.618927,161.014923 
	C398.343567,166.206192 334.726929,175.665115 271.737244,189.375763 
	C252.366211,193.592148 233.261810,198.818802 214.823334,206.240692 
	C213.436844,206.798782 212.003860,207.253967 210.565720,207.662811 
	C210.169403,207.775482 209.676208,207.547363 209.101257,206.967407 
	C240.100067,192.967529 272.639191,183.803406 305.998108,175.814301 
z"/>
<path fill="#FFFFFF" opacity="1.000000" stroke="none" 
	d="
M373.336121,255.114441 
	C376.844269,255.166458 378.232239,256.300446 376.522766,259.427185 
	C376.443146,259.572784 376.390228,259.732819 376.321503,259.884552 
	C371.187042,271.221649 373.515045,269.116974 362.349182,269.306396 
	C355.852478,269.416656 349.350983,269.410126 342.854614,269.292145 
	C340.159882,269.243195 338.532166,270.227875 337.467865,272.731445 
	C333.298523,282.538879 328.922699,292.259003 324.797272,302.084503 
	C322.375458,307.852509 324.165131,310.652039 330.417206,310.912292 
	C335.906891,311.140808 341.412811,310.953308 346.910309,311.034241 
	C348.848145,311.062714 350.940216,310.580597 352.822266,312.351501 
	C352.155579,316.571472 349.806488,320.226837 348.035614,324.093872 
	C347.333038,325.628052 345.873108,326.142487 344.291687,326.111511 
	C332.982391,325.889557 321.618835,327.190979 310.370911,325.436096 
	C298.300568,323.552917 294.175140,315.645660 299.117554,304.361725 
	C303.795013,293.682739 308.581360,283.051483 313.292389,272.387146 
	C313.610626,271.666779 313.698425,270.844635 313.896393,270.057953 
	C311.461212,268.554565 308.674866,270.086578 306.033661,268.247650 
	C306.941559,263.961090 309.251038,260.152893 311.555725,256.397003 
	C312.527588,254.813263 314.515900,254.905624 316.147491,255.080826 
	C319.994141,255.493881 321.937469,253.557434 323.199982,250.192871 
	C324.485596,246.766754 326.225037,243.511398 327.521881,240.088867 
	C328.609375,237.218933 330.372162,235.798508 333.508301,235.911560 
	C339.896606,236.141830 346.344604,235.419647 353.446594,236.630783 
	C350.857025,242.834167 348.591858,248.260391 346.036621,254.381485 
	C355.455719,255.756561 364.216675,254.765610 373.336121,255.114441 
z"/>
<path fill="#FFFFFF" opacity="1.000000" stroke="none" 
	d="
M180.415009,285.326904 
	C178.015594,291.052155 175.875259,296.477173 173.458084,301.775940 
	C167.198502,315.497620 156.287308,323.384399 141.537781,325.141663 
	C123.643684,327.273560 105.603447,325.776154 87.629936,326.077332 
	C86.473244,326.096741 85.301445,325.995514 84.099442,324.844910 
	C84.704536,319.949554 87.507782,315.770538 89.644615,311.376404 
	C90.706619,309.192444 93.122681,309.790894 95.060951,309.783905 
	C106.220642,309.743591 117.382156,309.641266 128.539902,309.792358 
	C138.615952,309.928741 145.731125,305.822968 149.802811,296.402191 
	C157.265427,279.135620 165.012848,261.991486 172.385651,244.687256 
	C173.991028,240.919357 175.956238,239.090988 180.163483,239.549652 
	C186.543762,240.245193 193.029312,238.214890 200.458939,239.952393 
	C193.658432,255.327667 187.103195,270.148407 180.415009,285.326904 
z"/>
<path fill="#FFFFFF" opacity="1.000000" stroke="none" 
	d="
M540.345215,256.878418 
	C542.149353,255.605591 543.854736,255.845901 545.498779,255.844360 
	C560.812683,255.830032 576.126587,255.817825 591.440308,255.873886 
	C593.419373,255.881119 595.432068,256.114777 597.369263,256.525726 
	C606.053223,258.367828 609.544678,264.018097 606.346008,272.348846 
	C602.952820,281.186462 598.756653,289.716370 594.890930,298.371613 
	C593.330688,301.864960 591.633972,305.299225 590.141907,308.820770 
	C585.311890,320.220581 576.359802,325.728394 564.370117,326.044403 
	C550.730530,326.403931 537.073486,326.148621 523.424683,326.064972 
	C521.283447,326.051819 519.100647,325.717499 517.014099,325.213043 
	C510.384796,323.610291 507.104340,318.624908 509.062805,312.075592 
	C514.360657,294.359070 521.705505,284.278229 544.221924,283.951904 
	C557.369019,283.761353 570.521362,283.958282 583.671204,283.918671 
	C588.491638,283.904144 595.258850,274.137939 593.247253,269.758881 
	C591.360046,265.650208 587.147705,265.500214 583.324280,265.470947 
	C569.852966,265.367767 556.380310,265.441315 542.908203,265.424316 
	C541.106506,265.422028 539.248718,265.794403 537.252197,264.713379 
	C536.808716,261.771912 538.875244,259.612030 540.345215,256.878418 
M532.253601,295.582397 
	C527.537109,297.947784 525.641235,302.431854 523.874939,306.941772 
	C521.459167,313.109894 523.101257,315.831421 529.782593,315.960205 
	C541.586548,316.187744 553.398071,316.106903 565.205627,316.030853 
	C569.421875,316.003693 573.079651,314.284698 575.520874,310.818665 
	C578.971008,305.920135 581.026245,300.328644 583.082520,295.032349 
	C581.915161,293.584229 580.716858,293.481659 579.568359,293.479034 
	C566.263367,293.448639 552.957336,293.371460 539.654236,293.530853 
	C537.409912,293.557709 535.178223,294.646149 532.253601,295.582397 
z"/>
<path fill="#FFFFFF" opacity="1.000000" stroke="none" 
	d="
M774.989441,285.912994 
	C769.928040,297.380646 765.027954,308.504395 760.112915,319.621582 
	C756.970642,326.728943 753.235962,328.092987 745.538513,324.931213 
	C744.983215,322.965149 746.259155,321.441467 746.968323,319.830719 
	C758.911438,292.703308 770.926025,265.607330 782.857422,238.474808 
	C786.608521,229.944824 788.624207,228.941574 798.995056,231.685791 
	C795.195190,240.351471 791.437012,248.922028 787.538574,257.812561 
	C802.844788,254.167969 817.842896,256.429688 832.729004,255.897202 
	C834.039368,255.850342 835.378967,256.144897 836.680603,256.403503 
	C846.301575,258.314850 850.368530,263.158478 846.271423,274.015900 
	C839.992004,290.656555 832.088318,306.688843 824.734375,322.916077 
	C823.061096,326.608307 818.648621,327.245575 811.834839,325.260071 
	C811.088928,322.931396 812.606506,321.125061 813.434021,319.217529 
	C819.596802,305.012085 825.913452,290.872986 832.010559,276.639709 
	C835.058228,269.525269 832.749817,265.821289 824.869385,265.602173 
	C813.888855,265.296906 802.892761,265.354706 791.907166,265.516846 
	C786.388428,265.598267 782.078186,267.561584 780.336365,273.679382 
	C779.162964,277.800354 776.912781,281.614746 774.989441,285.912994 
z"/>
<path fill="#FFFFFF" opacity="1.000000" stroke="none" 
	d="
M733.010254,265.433044 
	C724.048035,265.651367 715.554016,265.509827 707.127502,266.196960 
	C699.922424,266.784515 695.013184,271.060791 692.118286,277.768219 
	C688.227966,286.782166 684.005005,295.653259 680.158569,304.685211 
	C676.904114,312.326874 679.112183,315.826416 687.375488,315.955536 
	C700.027161,316.153229 712.683960,315.998016 725.338318,316.060608 
	C727.775085,316.072662 730.352417,315.612610 732.523193,317.255951 
	C731.127625,325.189667 730.070679,326.152802 722.794556,326.158508 
	C709.473816,326.168945 696.152893,326.141327 682.832458,326.209351 
	C679.804504,326.224792 676.833496,325.920959 673.937866,325.147980 
	C666.735840,323.225311 663.107361,317.381653 665.476379,310.249756 
	C669.938538,296.816803 675.573853,283.765961 682.391052,271.415558 
	C688.683594,260.015656 700.073608,256.183228 712.481201,255.876892 
	C726.126648,255.539993 739.787354,255.737579 753.440063,255.858124 
	C755.458984,255.875946 758.530579,254.587097 759.053223,258.148590 
	C759.476746,261.034668 755.755737,265.380035 752.989014,265.413788 
	C746.496155,265.493073 740.001648,265.435120 733.010254,265.433044 
z"/>
<path fill="#FFFFFF" opacity="1.000000" stroke="none" 
	d="
M640.714478,326.155762 
	C632.772461,325.877502 625.259521,326.807617 617.815552,325.580566 
	C607.658142,323.906219 604.056763,318.132599 607.780396,308.432495 
	C610.996582,300.054108 614.982117,291.971008 618.628174,283.757629 
	C624.570679,270.371216 630.496277,256.977203 636.462769,243.601471 
	C640.121033,235.400330 642.536011,234.358337 651.991943,237.110489 
	C651.130127,243.336273 646.513916,248.299225 645.372192,255.329758 
	C654.981201,256.628143 664.581299,255.061523 673.959961,256.195526 
	C673.470459,264.083435 671.284790,266.071167 664.145081,265.850891 
	C657.658264,265.650787 651.165283,265.637299 644.679810,265.406799 
	C641.687195,265.300385 639.732727,266.206879 638.452271,269.159241 
	C633.154724,281.373383 627.565002,293.460876 622.282043,305.681122 
	C619.479370,312.164093 621.673462,315.574402 628.734375,315.927948 
	C633.717834,316.177490 638.722107,315.987793 643.716187,316.059418 
	C645.503174,316.085022 647.401794,315.717285 648.951294,317.029205 
	C648.416626,323.683380 646.695496,325.696472 640.714478,326.155762 
z"/>
<path fill="#f59e0b" opacity="1.000000" stroke="none" 
	d="
M616.761353,152.359512 
	C612.656494,151.513351 608.751343,151.283356 605.859436,148.359726 
	C606.831482,144.514404 609.446594,143.270355 613.174622,143.017471 
	C617.278442,142.739090 621.391907,142.071274 625.698242,139.765854 
	C622.217041,132.717438 618.800903,125.800682 615.176086,118.461441 
	C620.010620,117.060913 623.700500,117.003227 627.334473,120.040344 
	C634.360291,125.912155 641.662659,131.451920 648.751465,137.250168 
	C651.113953,139.182510 653.658569,139.737503 656.609619,139.713608 
	C665.089478,139.644852 672.798767,142.668884 680.944336,145.719666 
	C679.749390,148.112595 677.828735,148.658966 676.054871,149.281418 
	C669.153564,151.703094 662.352234,154.536911 654.822449,154.415878 
	C652.311462,154.375519 650.492310,155.974579 648.673340,157.441055 
	C641.283447,163.398651 633.793823,169.240021 626.574036,175.397507 
	C623.377441,178.123749 620.205627,178.501831 615.795227,177.172409 
	C618.478760,169.312347 623.468811,162.690811 625.497803,154.977097 
	C622.873169,152.706223 619.779724,153.379532 616.761353,152.359512 
z"/>
<path fill="#f59e0b" opacity="1.000000" stroke="none" 
	d="
M208.587860,221.361755 
	C206.617462,230.637451 201.207977,233.839890 192.346939,232.347702 
	C188.161575,231.642868 183.764114,232.812653 179.561371,231.664673 
	C179.880524,222.340302 183.464523,218.724899 192.227646,218.709122 
	C196.548813,218.701340 200.871674,218.651810 205.190262,218.760895 
	C206.682770,218.798599 208.806320,218.257980 208.587860,221.361755 
z"/>
</svg>