<svg version="1.1" id="Layer_1" xmlns="http://www.w3.org/2000/svg" xmlns:xlink="http://www.w3.org/1999/xlink" x="0px" y="0px"
	 width="100%" viewBox="0 0 1254 1254" enable-background="new 0 0 1254 1254" xml:space="preserve">
<path fill="#FEFEFE" opacity="1.000000" stroke="none" 
	d="
M867.000000,1255.000000 
	C578.000000,1255.000000 289.500000,1255.000000 1.000000,1255.000000 
	C1.000000,837.000000 1.000000,419.000000 1.000000,1.000000 
	C419.000000,1.000000 837.000000,1.000000 1255.000000,1.000000 
	C1255.000000,419.000000 1255.000000,837.000000 1255.000000,1255.000000 
	C1125.833374,1255.000000 996.666687,1255.000000 867.000000,1255.000000 
M688.199524,635.234680 
	C688.199524,635.234680 688.267822,635.391418 688.788513,635.250671 
	C689.008362,634.980591 689.228210,634.710510 689.527466,634.449219 
	C689.527466,634.449219 689.606323,634.462036 689.898682,634.364380 
	C689.898682,634.364380 690.019104,634.080688 690.666504,633.869873 
	C698.798462,625.927124 703.044617,616.579102 701.254700,604.411560 
	C701.077576,603.643066 700.900452,602.874573 700.821594,601.448975 
	C700.771362,601.009644 700.721191,600.570251 701.111450,599.699463 
	C705.727539,594.076538 710.343628,588.453613 715.593201,582.651794 
	C724.234253,572.484314 732.875305,562.316833 742.051514,551.807800 
	C756.079712,535.587097 770.138550,519.392700 784.120850,503.132599 
	C789.586853,496.776062 789.144043,486.912964 783.326721,481.398376 
	C777.285522,475.671539 767.063232,475.277710 761.677063,481.342773 
	C749.231934,495.356659 737.192688,509.731049 724.411133,524.280334 
	C722.879700,526.166870 721.348267,528.053406 719.296692,530.159180 
	C718.860352,530.755493 718.424011,531.351807 717.396301,532.263794 
	C709.207458,541.815735 701.018616,551.367737 692.266174,561.260315 
	C689.337769,564.648071 686.092651,567.817566 683.567017,571.482849 
	C680.860718,575.410278 677.865356,577.590515 672.298523,575.698486 
	C663.591797,574.871521 655.668945,576.742432 648.308289,582.770508 
	C648.080139,583.106689 647.852051,583.442871 647.809204,583.755554 
	C647.809204,583.755554 647.705811,583.600098 647.186035,583.770081 
	C646.979370,584.058350 646.772705,584.346558 646.734375,584.678162 
	C646.734375,584.678162 646.612122,584.554626 646.113037,584.729309 
	C645.922546,585.014771 645.732056,585.300171 645.933289,585.738281 
	C645.933289,585.738281 645.561157,585.542664 645.076782,585.732849 
	C644.898071,586.020691 644.719360,586.308594 644.856812,586.837769 
	C644.856812,586.837769 644.575867,586.556335 644.088196,586.775330 
	C643.919250,587.081238 643.750305,587.387146 643.788757,587.673462 
	C643.788757,587.673462 643.587646,587.619324 643.057373,587.925110 
	C642.513306,588.764771 641.969238,589.604492 641.407837,590.462646 
	C641.407837,590.462646 641.389343,590.428101 640.928284,590.934814 
	C635.234192,600.149841 634.536316,609.911926 637.369202,620.217224 
	C637.777405,621.702148 637.165039,624.121948 636.109253,625.257751 
	C617.289734,645.503235 598.325195,665.613831 579.400269,685.761414 
	C574.276733,691.215942 573.996216,698.132446 578.679871,702.662964 
	C583.381042,707.210449 590.105896,706.545532 595.409180,701.008972 
	C614.069519,681.527283 632.762695,662.076782 651.344543,642.520508 
	C653.434509,640.320862 655.090698,639.747253 658.185181,640.697571 
	C667.606079,643.591064 676.898254,643.371826 685.406799,637.573303 
	C685.406799,637.573303 685.414490,637.540955 685.980591,637.371460 
	C686.400330,636.978088 686.820007,636.584778 687.121521,636.146057 
	C687.121521,636.146057 687.134460,636.272034 687.684998,636.125671 
	C687.912903,635.836670 688.140808,635.547668 688.199524,635.234680 
M468.246887,819.009399 
	C468.059509,818.758667 467.812164,818.603699 467.482697,818.514709 
	C467.482697,818.514709 467.518982,818.491150 467.179108,817.920959 
	C464.037537,814.769958 460.797913,811.709778 457.774841,808.448853 
	C451.520355,801.702209 445.381042,794.848877 439.270294,787.400085 
	C438.846405,786.934814 438.422516,786.469482 437.796936,785.389648 
	C436.580475,783.911316 435.364014,782.432983 433.967133,780.281616 
	C432.636780,778.369446 431.290466,776.468140 429.978424,774.543457 
	C378.312836,698.753479 362.725677,616.488464 385.763672,527.356262 
	C391.959381,503.385590 401.988739,480.930847 413.989685,458.650360 
	C421.657104,446.912750 428.874756,434.848999 437.094788,423.512085 
	C450.235535,405.388550 466.172119,389.779785 483.701965,374.906708 
	C504.117310,358.249512 526.168335,344.216064 550.216003,333.370514 
	C551.375427,332.847656 552.363037,331.943970 554.171265,331.358215 
	C555.114929,331.040863 556.053772,330.708191 557.002991,330.408417 
	C574.751221,324.803467 592.412415,318.896240 610.289978,313.739441 
	C618.319702,311.423340 626.782654,310.609375 635.960510,309.235626 
	C642.269287,308.761292 648.572510,307.991180 654.887939,307.874207 
	C667.993652,307.631439 681.105713,307.735321 694.745056,308.120941 
	C696.052917,308.329865 697.353699,308.620850 698.669739,308.735565 
	C722.223755,310.788086 745.350586,315.259216 767.509827,323.406921 
	C783.666077,329.347443 799.220581,336.924561 815.498474,344.289856 
	C816.792908,345.027588 818.147522,345.677460 819.372559,346.516571 
	C833.249878,356.022491 847.107361,365.557373 861.218018,375.620056 
	C861.852661,376.067535 862.487305,376.515045 863.399170,377.559540 
	C867.625732,381.271118 871.852295,384.982697 876.326660,389.243835 
	C877.091064,389.872406 877.855530,390.500946 878.912903,391.753937 
	C882.292847,395.109589 885.672729,398.465240 889.297424,402.439941 
	C891.135864,404.316711 892.974304,406.193481 895.027283,408.712494 
	C896.988464,410.888336 898.949585,413.064178 901.160034,415.880157 
	C901.386292,416.891510 901.612549,417.902893 901.195618,419.092743 
	C894.205933,425.008667 887.283752,431.007080 880.195923,436.802979 
	C877.029175,439.392578 874.649109,442.222717 875.582214,446.524719 
	C876.598145,451.209045 880.112366,453.039459 884.499878,454.083557 
	C899.048950,457.545807 913.535400,461.270508 928.076538,464.766998 
	C937.021484,466.917938 946.022339,468.836304 955.793335,471.117249 
	C963.035461,470.851959 966.515381,467.525909 966.386292,460.365051 
	C965.930054,435.065704 965.335388,409.768799 964.772949,384.471466 
	C964.680542,380.312714 962.991943,377.028015 959.058655,375.293549 
	C955.247253,373.612793 952.034790,374.803467 948.997131,377.446594 
	C942.980530,382.681671 936.818848,387.749969 930.216919,393.308380 
	C929.367126,392.159241 928.772766,391.133240 927.972595,390.306244 
	C914.100891,375.970062 901.035156,360.706787 886.062744,347.627136 
	C872.883484,336.114075 857.565674,327.048950 842.767761,316.365967 
	C825.692261,306.110687 807.922424,297.334534 788.423950,290.636536 
	C783.612732,289.103210 778.801575,287.569885 773.428589,285.582520 
	C771.281616,285.073090 769.134644,284.563690 766.422485,283.593475 
	C748.874084,279.967957 731.466003,275.173859 713.737854,273.045746 
	C696.023499,270.919250 677.988953,271.460571 659.150085,270.661804 
	C641.766724,272.770996 624.383362,274.880188 606.242065,276.910980 
	C604.462708,277.544098 602.683289,278.177246 600.267212,278.915680 
	C599.844299,278.989197 599.421387,279.062714 598.168640,278.952087 
	C577.285583,283.203064 557.261230,290.006683 537.316467,299.241821 
	C525.222595,305.572113 512.618469,311.104858 501.162994,318.433197 
	C486.622559,327.735107 473.014374,338.494232 458.383179,348.864349 
	C457.454163,349.756073 456.525177,350.647797 455.657379,351.530304 
	C455.657379,351.530304 455.620850,351.580261 455.127747,351.743561 
	C454.939484,352.022003 454.751221,352.300476 454.790497,352.521149 
	C454.790497,352.521149 454.553864,352.555573 454.088928,352.711731 
	C453.785919,352.887939 453.605743,353.148895 453.493164,353.516510 
	C453.493164,353.516510 453.494446,353.457123 452.951447,353.659729 
	C452.569000,354.083954 452.186584,354.508179 451.364777,355.042297 
	C451.083710,355.213867 450.932617,355.463959 450.281799,356.050934 
	C443.624725,362.498199 436.549316,368.573639 430.410126,375.481171 
	C421.528290,385.474548 413.324280,396.070374 404.264130,406.748474 
	C403.808289,407.479401 403.352448,408.210327 402.983246,408.975922 
	C402.983246,408.975922 402.932800,408.897400 402.423096,409.193817 
	C402.140381,409.702789 401.857666,410.211761 401.769623,410.760406 
	C401.769623,410.760406 401.607422,410.645721 401.078674,410.966339 
	C400.554871,411.841705 400.031067,412.717072 399.755127,414.054565 
	C399.666687,413.902679 399.578247,413.750763 399.015411,413.931976 
	C398.645447,414.603363 398.275452,415.274750 397.990051,415.978790 
	C397.990051,415.978790 397.936951,415.905304 397.397858,416.266846 
	C396.755463,417.363586 396.113068,418.460327 395.726196,419.757965 
	C395.726196,419.757965 395.436646,419.610321 394.973358,419.992615 
	C394.490967,420.874237 394.008575,421.755829 393.493134,422.646790 
	C393.493134,422.646790 393.471252,422.615570 392.974274,423.045319 
	C360.386139,473.933105 342.106537,529.524719 339.127228,589.882568 
	C336.102783,651.155334 350.797729,708.483215 379.589783,762.344177 
	C389.242920,780.402222 400.495880,797.471497 414.153168,813.679871 
	C424.061035,824.201294 433.968903,834.722717 444.175323,845.828979 
	C458.764099,857.279785 473.352875,868.730591 488.293915,880.742859 
	C494.772461,884.817566 501.115173,889.130249 507.755646,892.921326 
	C525.852478,903.253052 544.601624,912.180725 565.168518,918.719421 
	C573.759583,921.336487 582.254761,924.341187 590.960388,926.495361 
	C613.943115,932.182373 637.223145,935.935852 661.912354,936.023376 
	C674.608032,935.623779 687.303711,935.224243 700.871399,935.037476 
	C710.693787,933.670166 720.558594,932.547791 730.324158,930.852844 
	C737.284729,929.644897 744.111694,927.666992 751.827759,926.130859 
	C768.047485,922.418640 783.766602,917.277649 799.741089,909.864380 
	C786.383240,902.982605 774.879028,895.218323 765.021179,885.169128 
	C764.413391,884.549500 762.864502,884.350159 761.946228,884.617432 
	C754.604919,886.753723 747.310120,889.049866 739.218811,891.256104 
	C723.143616,893.919495 707.068481,896.582825 690.099426,899.123718 
	C675.755554,899.356140 661.411743,899.588562 646.675720,899.157104 
	C636.148987,897.653687 625.460876,896.853149 615.133362,894.482117 
	C599.616760,890.919922 584.352783,886.257263 568.441101,881.610229 
	C557.238647,876.610107 545.590027,872.403931 534.940979,866.419189 
	C519.905518,857.969360 505.609131,848.204285 490.645782,838.437134 
	C483.432526,832.274719 476.219238,826.112305 468.926178,819.683838 
	C468.926178,819.683838 468.666962,819.583679 468.544891,819.509460 
	C468.544891,819.509460 468.442291,819.410095 468.246887,819.009399 
M366.087311,798.683350 
	C343.065125,798.772400 320.042938,798.861450 296.263397,798.853027 
	C289.333527,801.067505 285.709625,805.944702 286.535278,811.945496 
	C287.281158,817.366577 292.030731,821.885742 297.972870,821.924561 
	C320.440582,822.071045 342.910583,822.068359 365.378143,821.903503 
	C371.761169,821.856689 376.643066,816.937866 377.020905,811.049622 
	C377.415436,804.901672 373.651062,800.352722 366.087311,798.683350 
M854.884888,907.888245 
	C867.307373,907.605835 879.528870,906.271240 891.747803,900.959900 
	C897.946655,898.019958 904.462769,895.601074 910.291077,892.052551 
	C940.339417,873.757385 956.648682,846.475342 961.980774,811.232056 
	C964.608154,786.940002 959.432739,764.488647 945.975342,743.275330 
	C938.853943,732.347107 930.483887,722.548157 920.036682,714.633362 
	C906.008545,704.005798 890.566711,696.586609 872.354858,693.534058 
	C861.895142,693.306091 851.435364,693.078125 840.501587,692.610352 
	C840.006897,692.749878 839.512146,692.889404 838.198608,692.901855 
	C834.800232,693.637390 831.401917,694.372925 827.208801,695.018311 
	C806.863159,699.746826 789.560852,709.903259 775.052673,724.772217 
	C765.103027,734.969177 756.938660,746.442322 751.601501,760.542358 
	C737.241760,798.067749 743.041748,832.940979 766.245300,865.031372 
	C778.528137,882.018555 794.932495,894.059692 815.633972,901.162659 
	C827.993469,905.834106 840.730530,908.282776 854.884888,907.888245 
M941.222656,713.410461 
	C941.289124,713.897217 941.188660,714.509460 941.446411,714.852539 
	C949.298950,725.306335 957.186768,735.733704 965.056458,746.148376 
	C965.033020,746.181641 965.604919,745.590027 965.924255,744.884216 
	C969.969604,735.943054 974.468628,727.169861 977.918335,718.002441 
	C1003.076660,651.146729 1005.396301,583.253540 986.592041,514.494568 
	C983.777649,504.203705 974.847717,498.612061 965.459351,501.193420 
	C955.168457,504.022919 950.081726,513.153870 953.106323,523.716003 
	C959.098694,544.641724 962.271057,566.039917 963.298096,587.714905 
	C965.347595,630.968994 957.718689,672.606323 941.222656,713.410461 
M361.500000,883.818848 
	C378.651855,883.823242 395.804108,883.896301 412.955383,883.799927 
	C420.257904,883.758911 425.167816,878.942383 425.276581,872.151733 
	C425.382690,865.523743 420.349487,860.539185 412.997955,860.503052 
	C389.019470,860.385132 365.039917,860.353333 341.061340,860.441040 
	C333.940765,860.467102 328.720184,865.679993 328.709015,872.185852 
	C328.697357,878.971985 333.566071,883.632568 341.017181,883.763428 
	C347.509766,883.877563 354.005615,883.807190 361.500000,883.818848 
M329.741089,736.490967 
	C327.163239,735.994141 324.588928,735.087952 322.006927,735.065613 
	C302.352783,734.895081 282.697113,734.892273 263.041931,734.847778 
	C254.826904,734.829163 249.564713,739.560669 249.546661,746.950073 
	C249.530090,753.730530 254.611572,758.385132 262.541962,758.413391 
	C282.698914,758.485229 302.856567,758.432617 323.013672,758.358459 
	C328.920380,758.336731 333.463135,755.250793 335.113342,750.451721 
	C336.824280,745.476013 335.272125,741.013062 329.741089,736.490967 
M859.047302,613.287048 
	C861.001587,617.391113 864.399292,618.867981 868.769104,618.843018 
	C880.069458,618.778503 891.370605,618.845886 902.670898,618.776245 
	C909.270569,618.735596 913.466492,615.079346 913.451843,609.586426 
	C913.437988,604.399719 909.275696,600.550598 903.071594,600.470947 
	C891.606689,600.323730 880.137573,600.300293 868.672607,600.430115 
	C861.339600,600.513123 857.652344,605.229431 859.047302,613.287048 
M470.822449,600.446350 
	C458.998047,600.441833 447.171387,600.297119 435.350159,600.488953 
	C428.973267,600.592407 424.967773,604.450989 425.032013,609.692627 
	C425.100555,615.285522 429.193237,618.820862 435.820831,618.849121 
	C446.812805,618.896057 457.805206,618.883606 468.797302,618.853027 
	C475.133087,618.835449 479.209595,615.973083 479.981049,611.113220 
	C480.773438,606.121948 477.947205,602.520935 470.822449,600.446350 
M495.312103,772.318237 
	C495.845337,780.691956 506.326691,782.993408 511.884094,777.079163 
	C519.156067,769.340332 526.880371,762.027344 534.385132,754.506348 
	C538.831543,750.050354 539.261475,744.773499 535.564575,740.839233 
	C531.753418,736.783325 526.244263,736.999756 521.538940,741.643982 
	C513.859436,749.223938 506.194214,756.825745 498.779724,764.661316 
	C497.084412,766.452820 496.434814,769.233887 495.312103,772.318237 
M667.954651,848.205505 
	C674.518921,847.868469 677.656006,844.850159 677.739258,838.230164 
	C677.879639,827.071716 677.871643,815.909607 677.765137,804.750549 
	C677.704346,798.373779 673.963379,794.349365 668.644897,794.509766 
	C663.325012,794.670227 660.076660,798.680176 660.052185,805.209106 
	C660.011597,816.036133 660.091980,826.864441 659.952454,837.689941 
	C659.883545,843.035706 661.872009,846.683960 667.954651,848.205505 
M515.306274,467.195648 
	C517.302246,469.203552 519.255798,471.255951 521.302917,473.210236 
	C525.775635,477.480103 531.354431,477.722870 535.061035,473.870880 
	C538.577942,470.216034 538.145508,464.828888 533.955566,460.529816 
	C526.401184,452.778717 518.833130,445.040863 511.266693,437.301453 
	C506.794769,432.727295 501.127167,432.319763 497.186127,436.278992 
	C493.526459,439.955566 493.913818,445.552460 498.273682,450.021240 
	C503.739197,455.623260 509.291290,461.140808 515.306274,467.195648 
M840.472717,436.175385 
	C835.504944,430.126068 830.296814,429.798065 824.909241,435.216125 
	C817.281433,442.887146 809.647644,450.552399 802.050171,458.253510 
	C797.542664,462.822601 797.245117,468.567657 801.233826,472.408386 
	C805.133911,476.163757 810.317932,475.729095 814.860046,471.149353 
	C822.478516,463.467743 829.941284,455.628448 837.678711,448.069611 
	C841.036804,444.789001 842.274353,441.288605 840.472717,436.175385 
M677.813416,372.607788 
	C677.811584,371.610016 677.815308,370.612183 677.807068,369.614441 
	C677.746521,362.242188 674.639771,358.052826 669.134827,357.916290 
	C663.386475,357.773712 660.006653,362.083771 660.001038,369.649353 
	C659.993408,379.959595 659.985413,390.270050 660.052429,400.579956 
	C660.097290,407.481964 663.417053,411.261200 669.170044,411.161499 
	C674.427673,411.070343 677.820496,407.026764 677.861755,400.517395 
	C677.918701,391.538116 677.835449,382.558014 677.813416,372.607788 
z"/>
<path fill="#1C53E5" opacity="1.000000" stroke="none" 
	d="
M413.546722,459.120544 
	C401.988739,480.930847 391.959381,503.385590 385.763672,527.356262 
	C362.725677,616.488464 378.312836,698.753479 429.978424,774.543457 
	C431.290466,776.468140 432.636780,778.369446 433.643127,780.631348 
	C430.196716,781.265686 427.893280,780.521912 426.760773,777.084106 
	C426.315765,775.733215 424.558655,774.798828 423.363129,773.714233 
	C421.256989,771.803589 419.167023,769.870667 416.983093,768.051758 
	C415.841522,767.101074 414.514557,766.372986 413.271301,765.544373 
	C413.077667,766.872437 412.503143,768.277466 412.753387,769.515808 
	C414.167358,776.512817 415.452240,783.305542 408.346008,788.430969 
	C407.538055,789.013672 407.482666,792.096619 408.261383,793.120544 
	C409.909698,795.288147 412.336151,796.865417 414.450867,798.676208 
	C415.265076,799.373352 416.921875,800.378601 416.799835,800.681641 
	C415.189056,804.680542 418.245270,809.805176 413.844727,813.079651 
	C400.495880,797.471497 389.242920,780.402222 379.589783,762.344177 
	C350.797729,708.483215 336.102783,651.155334 339.127228,589.882568 
	C342.106537,529.524719 360.386139,473.933105 393.342773,423.205750 
	C392.918549,426.123138 393.834747,427.567291 396.786652,426.954224 
	C398.678314,426.561279 400.449249,425.593597 402.339447,425.184753 
	C404.143311,424.794617 407.071625,423.958679 407.714600,424.758484 
	C412.006104,430.096863 418.627655,434.362701 417.046967,442.825562 
	C416.628632,445.065338 416.903107,447.225677 413.368683,446.448395 
	C412.525757,446.263000 410.470581,448.058563 410.271759,449.174408 
	C409.783752,451.913239 409.836548,454.813629 410.178864,457.586426 
	C410.257935,458.226624 412.370117,458.615845 413.546722,459.120544 
z"/>
<path fill="#04C7B1" opacity="1.000000" stroke="none" 
	d="
M941.342041,713.054932 
	C957.718689,672.606323 965.347595,630.968994 963.298096,587.714905 
	C962.271057,566.039917 959.098694,544.641724 953.106323,523.716003 
	C950.081726,513.153870 955.168457,504.022919 965.459351,501.193420 
	C974.847717,498.612061 983.777649,504.203705 986.592041,514.494568 
	C1005.396301,583.253540 1003.076660,651.146729 977.918335,718.002441 
	C974.468628,727.169861 969.969604,735.943054 965.924255,744.884216 
	C965.604919,745.590027 965.033020,746.181641 965.056458,746.148376 
	C957.186768,735.733704 949.298950,725.306335 941.446411,714.852539 
	C941.188660,714.509460 941.289124,713.897217 941.342041,713.054932 
z"/>
<path fill="#03BCE4" opacity="1.000000" stroke="none" 
	d="
M878.619995,391.129486 
	C877.855530,390.500946 877.091064,389.872406 876.177917,388.588074 
	C875.404785,380.405396 871.511230,377.096313 863.121948,376.962555 
	C862.487305,376.515045 861.852661,376.067535 861.102600,374.947510 
	C860.015564,370.831299 859.043884,367.387665 858.092529,364.015869 
	C859.458496,363.086151 860.633850,362.286163 861.996277,361.358826 
	C860.046387,357.117065 856.702759,358.150543 853.453308,358.211700 
	C851.745483,358.243805 849.544800,357.530334 848.452759,356.340363 
	C847.659607,355.476166 848.407349,353.272675 848.306519,351.676544 
	C848.212158,350.183289 848.244263,348.541199 847.625977,347.249268 
	C846.007019,343.866547 844.096619,340.620209 842.236755,337.356873 
	C841.060425,335.292877 839.714355,333.325592 838.538208,331.261505 
	C837.029602,328.614014 835.200073,326.020325 834.459045,323.157532 
	C834.279297,322.463074 837.839966,320.833466 839.643921,319.580780 
	C840.860107,318.736298 842.011780,317.798706 843.192322,316.902771 
	C857.565674,327.048950 872.883484,336.114075 886.062744,347.627136 
	C901.035156,360.706787 914.100891,375.970062 927.972595,390.306244 
	C928.772766,391.133240 929.367126,392.159241 930.216919,393.308380 
	C936.818848,387.749969 942.980530,382.681671 948.997131,377.446594 
	C952.034790,374.803467 955.247253,373.612793 959.058655,375.293549 
	C962.991943,377.028015 964.680542,380.312714 964.772949,384.471466 
	C965.335388,409.768799 965.930054,435.065704 966.386292,460.365051 
	C966.515381,467.525909 963.035461,470.851959 955.394836,470.613403 
	C953.583069,465.066284 948.486450,461.703278 943.484558,464.351959 
	C936.930847,467.822266 933.184204,462.430847 929.283569,460.436646 
	C924.301208,457.889404 920.083984,452.535126 917.217957,447.444336 
	C912.001587,438.178741 903.074341,430.797211 902.219604,419.219940 
	C902.211426,419.109283 901.970886,419.015747 901.838806,418.914246 
	C901.612549,417.902893 901.386292,416.891510 901.057312,415.167236 
	C900.389221,410.900696 899.318115,407.833496 894.812805,408.070251 
	C892.974304,406.193481 891.135864,404.316711 889.158325,401.740906 
	C888.625061,396.065125 883.591125,391.266815 878.619995,391.129486 
z"/>
<path fill="#0D9FB7" opacity="1.000000" stroke="none" 
	d="
M752.037048,759.991699 
	C756.938660,746.442322 765.103027,734.969177 775.052673,724.772217 
	C789.560852,709.903259 806.863159,699.746826 827.607300,695.422852 
	C832.412659,703.034912 836.937988,710.174194 841.157288,717.489929 
	C842.501709,719.821045 844.097107,722.801453 843.696045,725.165649 
	C843.037964,729.045532 842.658569,732.318237 845.439087,735.098389 
	C839.721375,734.407104 837.284058,737.504150 835.584167,741.985718 
	C828.874695,759.674072 821.969971,777.288757 815.328613,795.002319 
	C814.265869,797.836731 812.890869,798.847656 809.911133,798.703979 
	C804.277832,798.432434 798.626526,798.534607 792.850403,798.157227 
	C787.354370,796.377930 781.990540,794.922974 776.964355,793.559631 
	C776.502747,791.611328 776.553772,788.830017 775.272827,786.962036 
	C770.776367,780.404541 765.647583,774.500427 757.147888,772.815735 
	C754.386353,772.268372 753.505554,770.147217 755.265259,767.500244 
	C755.871704,766.588135 756.350830,765.591370 756.937256,764.545654 
	C755.158936,762.893005 753.597961,761.442383 752.037048,759.991699 
z"/>
<path fill="#03AA9A" opacity="1.000000" stroke="none" 
	d="
M961.708862,812.041260 
	C956.648682,846.475342 940.339417,873.757385 910.291077,892.052551 
	C904.462769,895.601074 897.946655,898.019958 891.171753,900.699219 
	C888.328674,898.948425 886.100952,897.680115 887.871521,894.172852 
	C891.429382,887.125549 890.963684,886.066223 883.739075,881.889282 
	C877.183655,878.099182 874.691284,873.130615 876.335449,865.769653 
	C877.075684,862.455750 876.411865,860.328125 873.552002,858.434265 
	C879.475342,841.193298 885.327332,824.337952 891.055420,807.839417 
	C894.684937,810.210449 897.331543,813.383423 900.094971,813.488647 
	C910.702454,813.892456 921.347412,813.312256 931.987915,813.474365 
	C934.970459,818.669861 937.399475,823.965332 941.074646,828.172302 
	C944.521667,832.118103 951.291199,830.162415 953.830200,825.499146 
	C956.314636,820.936035 959.071594,816.521179 961.708862,812.041260 
z"/>
<path fill="#03C4A7" opacity="1.000000" stroke="none" 
	d="
M961.844849,811.636658 
	C959.071594,816.521179 956.314636,820.936035 953.830200,825.499146 
	C951.291199,830.162415 944.521667,832.118103 941.074646,828.172302 
	C937.399475,823.965332 934.970459,818.669861 932.242554,813.223633 
	C937.683167,807.655090 937.539795,804.129333 931.907654,798.736206 
	C930.882996,798.355408 929.888855,798.316956 928.445984,798.358643 
	C924.327209,798.370605 920.657166,798.302490 916.763794,797.911011 
	C914.295837,797.099792 911.762085,797.103394 909.881775,795.996582 
	C907.652954,794.684692 905.116455,792.751892 904.246948,790.496826 
	C901.983826,784.627441 897.876831,781.190125 891.686340,780.932434 
	C889.855957,780.856262 887.012146,780.468323 886.432129,779.316895 
	C884.022522,774.532837 881.172729,769.874817 881.900146,763.916748 
	C882.446594,759.440308 882.079773,754.767700 881.511169,750.259216 
	C880.630676,743.277588 877.133423,736.055786 884.635681,730.391724 
	C885.097473,730.043091 884.897156,728.817566 885.350952,728.038208 
	C886.444092,728.677002 887.168213,729.309082 887.941956,729.872864 
	C892.341858,733.078552 894.963013,738.585083 901.461975,739.139954 
	C905.591125,739.492493 909.733704,740.879639 913.635315,742.404175 
	C918.488281,744.300415 923.037048,745.357605 927.632324,741.957031 
	C929.877441,740.295593 931.144409,741.162903 931.995361,743.655457 
	C934.389160,750.667786 934.445862,750.648438 941.312988,749.446167 
	C941.048767,749.080383 940.784485,748.714539 940.520264,748.348755 
	C942.384033,746.885437 944.247742,745.422119 946.111450,743.958801 
	C959.432739,764.488647 964.608154,786.940002 961.844849,811.636658 
z"/>
<path fill="#04A7E5" opacity="1.000000" stroke="none" 
	d="
M660.094727,270.832397 
	C677.988953,271.460571 696.023499,270.919250 713.737854,273.045746 
	C731.466003,275.173859 748.874084,279.967957 766.708069,284.221008 
	C768.221436,287.176880 769.330261,289.579529 770.721680,291.805573 
	C771.553894,293.137024 773.735596,294.177338 773.754883,295.373657 
	C773.868347,302.403412 777.426086,305.880707 784.120483,306.958374 
	C787.028381,307.426544 788.357178,309.143982 787.080811,312.335602 
	C785.452515,316.406952 787.009705,318.976257 791.241333,320.030975 
	C795.511475,321.095306 798.050415,323.154449 796.592712,328.210205 
	C796.318359,329.161621 797.781921,331.172546 798.940918,331.882477 
	C804.078979,335.029633 809.433350,337.822388 814.598633,340.927673 
	C815.126160,341.244843 814.912842,342.794403 815.043335,343.772064 
	C799.220581,336.924561 783.666077,329.347443 767.509827,323.406921 
	C745.350586,315.259216 722.223755,310.788086 698.669739,308.735565 
	C697.353699,308.620850 696.052917,308.329865 694.257935,307.484924 
	C693.345337,306.610291 692.894470,306.127563 692.498291,306.168976 
	C683.336182,307.126312 676.585388,304.844666 670.723633,296.398499 
	C665.569214,288.971497 657.729797,283.440033 656.612488,273.562164 
	C657.784058,272.643738 658.939392,271.738068 660.094727,270.832397 
z"/>
<path fill="#0983AC" opacity="1.000000" stroke="none" 
	d="
M751.819275,760.267029 
	C753.597961,761.442383 755.158936,762.893005 756.937256,764.545654 
	C756.350830,765.591370 755.871704,766.588135 755.265259,767.500244 
	C753.505554,770.147217 754.386353,772.268372 757.147888,772.815735 
	C765.647583,774.500427 770.776367,780.404541 775.272827,786.962036 
	C776.553772,788.830017 776.502747,791.611328 776.964355,793.559631 
	C781.990540,794.922974 787.354370,796.377930 792.465698,798.191040 
	C787.888184,798.553833 783.562500,798.512512 779.238281,798.574829 
	C773.695923,798.654663 770.190552,801.724731 770.221191,806.367188 
	C770.250671,810.845398 773.533325,813.615295 779.056213,813.723511 
	C785.037964,813.840820 791.021179,813.888611 796.723389,814.265015 
	C793.099548,814.845398 789.756042,815.127441 785.925720,815.450500 
	C786.615479,816.613586 786.803223,817.354614 787.273682,817.660522 
	C796.052490,823.366150 798.892212,832.608398 801.293579,841.900146 
	C802.068787,844.900024 802.069519,848.806946 800.754639,851.476501 
	C798.713440,855.621033 799.083679,859.300110 799.982239,863.413391 
	C800.644775,866.446106 800.519531,869.642578 801.034912,872.717590 
	C802.060242,878.835266 802.679016,885.106567 806.792847,890.238342 
	C809.576660,893.710999 812.263489,897.261414 814.993713,900.776978 
	C794.932495,894.059692 778.528137,882.018555 766.245300,865.031372 
	C743.041748,832.940979 737.241760,798.067749 751.819275,760.267029 
z"/>
<path fill="#06BBB5" opacity="1.000000" stroke="none" 
	d="
M885.004883,728.000000 
	C884.897156,728.817566 885.097473,730.043091 884.635681,730.391724 
	C877.133423,736.055786 880.630676,743.277588 881.511169,750.259216 
	C882.079773,754.767700 882.446594,759.440308 881.900146,763.916748 
	C881.172729,769.874817 884.022522,774.532837 886.432129,779.316895 
	C887.012146,780.468323 889.855957,780.856262 891.686340,780.932434 
	C897.876831,781.190125 901.983826,784.627441 904.246948,790.496826 
	C905.116455,792.751892 907.652954,794.684692 909.881775,795.996582 
	C911.762085,797.103394 914.295837,797.099792 916.365967,798.021484 
	C907.666016,800.153992 900.952576,798.389771 897.644104,789.297546 
	C896.217590,785.377197 893.006897,782.936768 888.821289,783.513062 
	C884.826782,784.063049 883.104614,787.403076 881.805298,791.109131 
	C877.547363,803.253967 873.022278,815.305054 868.456787,827.783447 
	C867.939270,826.906128 867.557678,826.520081 867.471863,826.076782 
	C862.246643,799.081238 857.146729,772.060730 851.710754,745.107910 
	C851.052673,741.845276 848.592896,738.945984 846.835022,735.677002 
	C846.459900,735.238098 846.169495,735.111816 845.860474,735.106689 
	C845.890198,735.116516 845.833496,735.146362 845.833496,735.146362 
	C842.658569,732.318237 843.037964,729.045532 843.696045,725.165649 
	C844.097107,722.801453 842.501709,719.821045 841.157288,717.489929 
	C836.937988,710.174194 832.412659,703.034912 828.004700,695.467896 
	C831.401917,694.372925 834.800232,693.637390 838.727478,693.165527 
	C839.829468,693.236206 840.402527,693.043213 840.975647,692.850159 
	C851.435364,693.078125 861.895142,693.306091 872.645874,694.110718 
	C870.173828,701.263000 870.213745,701.211121 877.240051,704.262207 
	C878.630920,704.866211 880.741394,706.275330 880.719788,707.274231 
	C880.569092,714.240906 881.177246,720.938538 884.979614,727.017822 
	C885.129150,727.256958 885.002747,727.668701 885.004883,728.000000 
z"/>
<path fill="#185CE4" opacity="1.000000" stroke="none" 
	d="
M413.768188,458.885437 
	C412.370117,458.615845 410.257935,458.226624 410.178864,457.586426 
	C409.836548,454.813629 409.783752,451.913239 410.271759,449.174408 
	C410.470581,448.058563 412.525757,446.263000 413.368683,446.448395 
	C416.903107,447.225677 416.628632,445.065338 417.046967,442.825562 
	C418.627655,434.362701 412.006104,430.096863 407.714600,424.758484 
	C407.071625,423.958679 404.143311,424.794617 402.339447,425.184753 
	C400.449249,425.593597 398.678314,426.561279 396.786652,426.954224 
	C393.834747,427.567291 392.918549,426.123138 393.591248,422.990875 
	C393.471252,422.615570 393.493134,422.646790 393.892334,422.647034 
	C394.673248,421.634949 395.054962,420.622650 395.436646,419.610321 
	C395.436646,419.610321 395.726196,419.757965 395.981567,419.693939 
	C396.803619,418.388367 397.370300,417.146851 397.936951,415.905334 
	C397.936951,415.905304 397.990051,415.978790 398.307312,415.925415 
	C398.912964,415.114288 399.201385,414.356598 399.489838,413.598877 
	C399.578247,413.750763 399.666687,413.902679 400.009888,413.845734 
	C400.712219,412.639832 401.159821,411.642792 401.607422,410.645721 
	C401.607422,410.645721 401.769623,410.760406 402.002808,410.697327 
	C402.468262,410.055328 402.700531,409.476349 402.932800,408.897400 
	C402.932800,408.897400 402.983246,408.975922 403.314606,408.912659 
	C404.041016,408.035980 404.436035,407.222565 404.831055,406.409180 
	C413.324280,396.070374 421.528290,385.474548 430.410126,375.481171 
	C436.549316,368.573639 443.624725,362.498199 450.740540,356.258545 
	C454.016205,359.553009 462.620239,358.378693 466.858521,354.817780 
	C468.531097,353.412567 471.844788,351.793915 473.116699,352.524872 
	C475.853699,354.097931 478.718994,356.775391 479.776428,359.647186 
	C481.582153,364.551392 482.038574,369.952362 483.061798,375.144684 
	C466.172119,389.779785 450.235535,405.388550 437.094788,423.512085 
	C428.874756,434.848999 421.657104,446.912750 413.768188,458.885437 
z"/>
<path fill="#0491A3" opacity="1.000000" stroke="none" 
	d="
M815.313843,900.969849 
	C812.263489,897.261414 809.576660,893.710999 806.792847,890.238342 
	C802.679016,885.106567 802.060242,878.835266 801.034912,872.717590 
	C800.519531,869.642578 800.644775,866.446106 799.982239,863.413391 
	C799.083679,859.300110 798.713440,855.621033 800.754639,851.476501 
	C802.069519,848.806946 802.068787,844.900024 801.293579,841.900146 
	C798.892212,832.608398 796.052490,823.366150 787.273682,817.660522 
	C786.803223,817.354614 786.615479,816.613586 785.925720,815.450500 
	C789.756042,815.127441 793.099548,814.845398 797.183105,814.167358 
	C804.041809,813.791382 810.164490,813.680664 816.277710,813.873169 
	C821.101501,814.025024 824.604126,812.295532 827.012146,807.872070 
	C833.232971,809.843445 838.689453,817.843994 838.554688,824.543091 
	C836.568542,824.837402 834.537048,825.138489 831.577087,825.577148 
	C834.637268,830.086548 837.315674,834.033325 839.957520,838.351746 
	C835.986450,846.048218 834.659729,854.338196 835.397827,862.106934 
	C836.304321,871.648376 839.953552,880.911987 842.174683,890.352783 
	C843.370544,895.436035 844.059631,900.638428 844.897888,905.341370 
	C847.695801,906.060791 850.841064,906.869629 853.986328,907.678345 
	C840.730530,908.282776 827.993469,905.834106 815.313843,900.969849 
z"/>
<path fill="#0D49CE" opacity="1.000000" stroke="none" 
	d="
M685.439392,637.593079 
	C676.898254,643.371826 667.606079,643.591064 658.185181,640.697571 
	C655.090698,639.747253 653.434509,640.320862 651.344543,642.520508 
	C632.762695,662.076782 614.069519,681.527283 595.409180,701.008972 
	C590.105896,706.545532 583.381042,707.210449 578.679871,702.662964 
	C573.996216,698.132446 574.276733,691.215942 579.400269,685.761414 
	C598.325195,665.613831 617.289734,645.503235 636.109253,625.257751 
	C637.165039,624.121948 637.777405,621.702148 637.369202,620.217224 
	C634.536316,609.911926 635.234192,600.149841 641.295837,591.054199 
	C641.205566,593.027466 640.747803,594.881409 640.207397,597.069702 
	C644.625793,599.462952 649.100464,601.446716 653.067078,604.170349 
	C656.408142,606.464478 659.550354,609.303406 662.089050,612.457825 
	C667.320801,618.958130 671.836792,626.042358 677.182983,632.438660 
	C679.160278,634.804382 682.643188,635.911804 685.439392,637.593079 
z"/>
<path fill="#0983AC" opacity="1.000000" stroke="none" 
	d="
M660.998962,935.795288 
	C637.223145,935.935852 613.943115,932.182373 590.960388,926.495361 
	C582.254761,924.341187 573.759583,921.336487 565.121582,918.303406 
	C562.710815,916.576050 560.347046,915.264709 558.312012,914.135681 
	C559.621704,910.358032 562.498108,906.446777 561.625244,903.748169 
	C559.109131,895.969360 564.092834,889.529541 563.145691,881.884460 
	C564.787170,882.285339 565.557129,882.633789 566.319336,882.617615 
	C567.210266,882.598572 568.094360,882.261536 568.981445,882.062439 
	C584.352783,886.257263 599.616760,890.919922 615.133362,894.482117 
	C625.460876,896.853149 636.148987,897.653687 646.852783,899.907654 
	C648.358032,911.598816 649.686279,922.539368 651.077820,934.002014 
	C653.435547,934.002014 655.249573,933.773071 656.971130,934.073669 
	C658.371216,934.318237 659.660522,935.197510 660.998962,935.795288 
z"/>
<path fill="#1367CC" opacity="1.000000" stroke="none" 
	d="
M568.711304,881.836304 
	C568.094360,882.261536 567.210266,882.598572 566.319336,882.617615 
	C565.557129,882.633789 564.787170,882.285339 563.145691,881.884460 
	C564.092834,889.529541 559.109131,895.969360 561.625244,903.748169 
	C562.498108,906.446777 559.621704,910.358032 558.312012,914.135681 
	C560.347046,915.264709 562.710815,916.576050 564.840576,918.073486 
	C544.601624,912.180725 525.852478,903.253052 507.755646,892.921326 
	C501.115173,889.130249 494.772461,884.817566 488.131256,880.074951 
	C487.948853,879.076050 488.035309,878.688782 487.893921,878.422363 
	C483.511414,870.162537 479.510864,861.902283 484.603882,852.380066 
	C485.091125,851.469116 484.275360,849.871521 484.090485,848.588989 
	C483.372498,843.608093 485.921204,840.076050 490.996826,839.001465 
	C505.609131,848.204285 519.905518,857.969360 534.940979,866.419189 
	C545.590027,872.403931 557.238647,876.610107 568.711304,881.836304 
z"/>
<path fill="#1469E5" opacity="1.000000" stroke="none" 
	d="
M483.381897,375.025696 
	C482.038574,369.952362 481.582153,364.551392 479.776428,359.647186 
	C478.718994,356.775391 475.853699,354.097931 473.116699,352.524872 
	C471.844788,351.793915 468.531097,353.412567 466.858521,354.817780 
	C462.620239,358.378693 454.016205,359.553009 451.055359,356.129395 
	C450.932617,355.463959 451.083710,355.213867 451.931519,354.973846 
	C452.830322,354.422638 453.162384,353.939880 453.494446,353.457123 
	C453.494446,353.457123 453.493164,353.516510 453.831085,353.561584 
	C454.297302,353.256287 454.425568,352.905914 454.553833,352.555573 
	C454.553864,352.555573 454.790497,352.521149 454.988525,352.574402 
	C455.331299,352.278503 455.476074,351.929382 455.620850,351.580261 
	C455.620850,351.580261 455.657379,351.530304 456.007294,351.653473 
	C457.239532,350.726105 458.121857,349.675568 459.004211,348.625061 
	C473.014374,338.494232 486.622559,327.735107 501.162994,318.433197 
	C512.618469,311.104858 525.222595,305.572113 537.614380,299.553986 
	C536.036987,301.247406 534.161743,302.628662 531.664551,304.467987 
	C533.551697,305.790436 535.059937,307.727203 536.629578,307.778259 
	C540.914490,307.917694 542.250122,310.391357 543.156494,313.887360 
	C543.514954,315.270020 544.333862,316.682495 545.318604,317.727631 
	C549.500549,322.165863 551.451294,326.656158 546.409790,331.774750 
	C546.348206,331.837311 546.677185,332.284546 546.761292,332.438080 
	C549.013611,332.025909 551.222168,331.621765 553.430664,331.217651 
	C552.363037,331.943970 551.375427,332.847656 550.216003,333.370514 
	C526.168335,344.216064 504.117310,358.249512 483.381897,375.025696 
z"/>
<path fill="#049A9A" opacity="1.000000" stroke="none" 
	d="
M854.435608,907.783325 
	C850.841064,906.869629 847.695801,906.060791 844.897888,905.341370 
	C844.059631,900.638428 843.370544,895.436035 842.174683,890.352783 
	C839.953552,880.911987 836.304321,871.648376 835.397827,862.106934 
	C834.659729,854.338196 835.986450,846.048218 840.323547,838.290649 
	C841.241943,835.372009 842.000916,832.906494 842.212158,830.395020 
	C842.479187,827.218811 840.187500,822.688110 845.542297,822.248901 
	C848.841736,821.978210 849.915649,820.352600 851.134155,818.360229 
	C853.765015,830.919678 856.363953,843.093384 858.678101,855.321045 
	C859.416321,859.221680 860.563660,862.388672 864.871094,863.293762 
	C868.943787,864.149536 871.441895,861.911377 873.480591,858.819824 
	C876.411865,860.328125 877.075684,862.455750 876.335449,865.769653 
	C874.691284,873.130615 877.183655,878.099182 883.739075,881.889282 
	C890.963684,886.066223 891.429382,887.125549 887.871521,894.172852 
	C886.100952,897.680115 888.328674,898.948425 890.795776,900.713501 
	C879.528870,906.271240 867.307373,907.605835 854.435608,907.783325 
z"/>
<path fill="#04B4E5" opacity="1.000000" stroke="none" 
	d="
M815.270874,344.030945 
	C814.912842,342.794403 815.126160,341.244843 814.598633,340.927673 
	C809.433350,337.822388 804.078979,335.029633 798.940918,331.882477 
	C797.781921,331.172546 796.318359,329.161621 796.592712,328.210205 
	C798.050415,323.154449 795.511475,321.095306 791.241333,320.030975 
	C787.009705,318.976257 785.452515,316.406952 787.080811,312.335602 
	C788.357178,309.143982 787.028381,307.426544 784.120483,306.958374 
	C777.426086,305.880707 773.868347,302.403412 773.754883,295.373657 
	C773.735596,294.177338 771.553894,293.137024 770.721680,291.805573 
	C769.330261,289.579529 768.221436,287.176880 766.990662,284.451416 
	C769.134644,284.563690 771.281616,285.073090 773.713745,286.206177 
	C773.674255,290.501465 775.879700,291.854431 778.991455,292.924164 
	C782.800293,294.233551 785.766785,292.385193 788.957397,291.104156 
	C807.922424,297.334534 825.692261,306.110687 842.980042,316.634338 
	C842.011780,317.798706 840.860107,318.736298 839.643921,319.580780 
	C837.839966,320.833466 834.279297,322.463074 834.459045,323.157532 
	C835.200073,326.020325 837.029602,328.614014 838.538208,331.261505 
	C839.714355,333.325592 841.060425,335.292877 842.236755,337.356873 
	C844.096619,340.620209 846.007019,343.866547 847.625977,347.249268 
	C848.244263,348.541199 848.212158,350.183289 848.306519,351.676544 
	C848.407349,353.272675 847.659607,355.476166 848.452759,356.340363 
	C849.544800,357.530334 851.745483,358.243805 853.453308,358.211700 
	C856.702759,358.150543 860.046387,357.117065 861.996277,361.358826 
	C860.633850,362.286163 859.458496,363.086151 858.092529,364.015869 
	C859.043884,367.387665 860.015564,370.831299 860.978638,374.679718 
	C847.107361,365.557373 833.249878,356.022491 819.372559,346.516571 
	C818.147522,345.677460 816.792908,345.027588 815.270874,344.030945 
z"/>
<path fill="#0F78E5" opacity="1.000000" stroke="none" 
	d="
M553.800964,331.287933 
	C551.222168,331.621765 549.013611,332.025909 546.761292,332.438080 
	C546.677185,332.284546 546.348206,331.837311 546.409790,331.774750 
	C551.451294,326.656158 549.500549,322.165863 545.318604,317.727631 
	C544.333862,316.682495 543.514954,315.270020 543.156494,313.887360 
	C542.250122,310.391357 540.914490,307.917694 536.629578,307.778259 
	C535.059937,307.727203 533.551697,305.790436 531.664551,304.467987 
	C534.161743,302.628662 536.036987,301.247406 537.973450,299.523987 
	C557.261230,290.006683 577.285583,283.203064 598.514404,279.377380 
	C597.695251,280.523041 596.530334,281.243439 595.019775,282.177582 
	C598.064453,285.982727 600.966309,289.718201 603.986084,293.355774 
	C607.732117,297.868073 611.817688,302.122070 615.273621,306.841309 
	C616.963928,309.149475 618.139648,310.077576 621.225952,309.582489 
	C625.742493,308.858002 630.432800,309.216736 635.049011,309.113800 
	C626.782654,310.609375 618.319702,311.423340 610.289978,313.739441 
	C592.412415,318.896240 574.751221,324.803467 557.002991,330.408417 
	C556.053772,330.708191 555.114929,331.040863 553.800964,331.287933 
z"/>
<path fill="#0A89E4" opacity="1.000000" stroke="none" 
	d="
M717.987671,531.948120 
	C718.424011,531.351807 718.860352,530.755493 719.922058,530.040039 
	C722.027893,527.933594 723.508362,525.946411 724.988831,523.959229 
	C737.192688,509.731049 749.231934,495.356659 761.677063,481.342773 
	C767.063232,475.277710 777.285522,475.671539 783.326721,481.398376 
	C789.144043,486.912964 789.586853,496.776062 784.120850,503.132599 
	C770.138550,519.392700 756.079712,535.587097 741.376038,551.904175 
	C739.808228,550.561584 738.337524,549.204956 738.119263,547.670227 
	C736.887146,539.004517 734.036011,535.631592 725.572083,533.525879 
	C721.564819,540.744995 721.008972,541.028442 714.675781,539.198059 
	C715.774353,536.793213 716.880981,534.370605 717.987671,531.948120 
z"/>
<path fill="#1C53E5" opacity="1.000000" stroke="none" 
	d="
M361.000000,883.818604 
	C354.005615,883.807190 347.509766,883.877563 341.017181,883.763428 
	C333.566071,883.632568 328.697357,878.971985 328.709015,872.185852 
	C328.720184,865.679993 333.940765,860.467102 341.061340,860.441040 
	C365.039917,860.353333 389.019470,860.385132 412.997955,860.503052 
	C420.349487,860.539185 425.382690,865.523743 425.276581,872.151733 
	C425.167816,878.942383 420.257904,883.758911 412.955383,883.799927 
	C395.804108,883.896301 378.651855,883.823242 361.000000,883.818604 
z"/>
<path fill="#0A89E4" opacity="1.000000" stroke="none" 
	d="
M635.504761,309.174713 
	C630.432800,309.216736 625.742493,308.858002 621.225952,309.582489 
	C618.139648,310.077576 616.963928,309.149475 615.273621,306.841309 
	C611.817688,302.122070 607.732117,297.868073 603.986084,293.355774 
	C600.966309,289.718201 598.064453,285.982727 595.019775,282.177582 
	C596.530334,281.243439 597.695251,280.523041 598.929321,279.469421 
	C599.421387,279.062714 599.844299,278.989197 600.793091,279.154297 
	C603.212646,278.591736 605.106323,277.790588 607.000000,276.989380 
	C624.383362,274.880188 641.766724,272.770996 659.622437,270.747101 
	C658.939392,271.738068 657.784058,272.643738 656.612488,273.562164 
	C657.729797,283.440033 665.569214,288.971497 670.723633,296.398499 
	C676.585388,304.844666 683.336182,307.126312 692.498291,306.168976 
	C692.894470,306.127563 693.345337,306.610291 693.992981,307.272797 
	C681.105713,307.735321 667.993652,307.631439 654.887939,307.874207 
	C648.572510,307.991180 642.269287,308.761292 635.504761,309.174713 
z"/>
<path fill="#1C53E5" opacity="1.000000" stroke="none" 
	d="
M330.070190,736.694092 
	C335.272125,741.013062 336.824280,745.476013 335.113342,750.451721 
	C333.463135,755.250793 328.920380,758.336731 323.013672,758.358459 
	C302.856567,758.432617 282.698914,758.485229 262.541962,758.413391 
	C254.611572,758.385132 249.530090,753.730530 249.546661,746.950073 
	C249.564713,739.560669 254.826904,734.829163 263.041931,734.847778 
	C282.697113,734.892273 302.352783,734.895081 322.006927,735.065613 
	C324.588928,735.087952 327.163239,735.994141 330.070190,736.694092 
z"/>
<path fill="#0F58D1" opacity="1.000000" stroke="none" 
	d="
M685.423096,637.583191 
	C682.643188,635.911804 679.160278,634.804382 677.182983,632.438660 
	C671.836792,626.042358 667.320801,618.958130 662.089050,612.457825 
	C659.550354,609.303406 656.408142,606.464478 653.067078,604.170349 
	C649.100464,601.446716 644.625793,599.462952 640.207397,597.069702 
	C640.747803,594.881409 641.205566,593.027466 641.526367,590.800781 
	C641.389343,590.428101 641.407837,590.462646 641.796997,590.534302 
	C642.653320,589.610352 643.120483,588.614868 643.587646,587.619324 
	C643.587646,587.619324 643.788757,587.673462 643.998413,587.658936 
	C644.330627,587.281738 644.453247,586.919067 644.575867,586.556335 
	C644.575867,586.556335 644.856812,586.837769 645.017090,586.731079 
	C645.305298,586.263794 645.433228,585.903259 645.561157,585.542664 
	C645.561157,585.542664 645.933289,585.738281 646.055054,585.681213 
	C646.321899,585.267639 646.467041,584.911133 646.612122,584.554626 
	C646.612122,584.554626 646.734375,584.678162 646.963379,584.658691 
	C647.363525,584.292908 647.534668,583.946533 647.705811,583.600098 
	C647.705811,583.600098 647.809204,583.755554 648.039490,583.691406 
	C648.472107,583.252991 648.674438,582.878662 648.876770,582.504333 
	C655.668945,576.742432 663.591797,574.871521 672.405701,576.125854 
	C670.692322,576.804932 668.871704,577.056702 667.984924,577.179382 
	C670.551208,579.729736 673.303040,582.575317 676.173462,585.295776 
	C683.890869,592.609741 688.965759,603.282410 701.108887,604.995361 
	C703.044617,616.579102 698.798462,625.927124 690.226562,633.803467 
	C689.651062,633.723145 689.515564,633.709290 689.380005,633.695435 
	C689.455444,633.950989 689.530884,634.206482 689.606323,634.462036 
	C689.606323,634.462036 689.527466,634.449219 689.175171,634.411926 
	C688.637939,634.713562 688.452881,635.052490 688.267822,635.391418 
	C688.267822,635.391418 688.199524,635.234680 687.984375,635.276123 
	C687.557678,635.635742 687.346069,635.953918 687.134460,636.272034 
	C687.134460,636.272034 687.121521,636.146057 686.827637,636.140869 
	C686.160706,636.604065 685.787598,637.072510 685.414490,637.540955 
	C685.414490,637.540955 685.406799,637.573303 685.423096,637.583191 
z"/>
<path fill="#185CE4" opacity="1.000000" stroke="none" 
	d="
M413.998962,813.379761 
	C418.245270,809.805176 415.189056,804.680542 416.799835,800.681641 
	C416.921875,800.378601 415.265076,799.373352 414.450867,798.676208 
	C412.336151,796.865417 409.909698,795.288147 408.261383,793.120544 
	C407.482666,792.096619 407.538055,789.013672 408.346008,788.430969 
	C415.452240,783.305542 414.167358,776.512817 412.753387,769.515808 
	C412.503143,768.277466 413.077667,766.872437 413.271301,765.544373 
	C414.514557,766.372986 415.841522,767.101074 416.983093,768.051758 
	C419.167023,769.870667 421.256989,771.803589 423.363129,773.714233 
	C424.558655,774.798828 426.315765,775.733215 426.760773,777.084106 
	C427.893280,780.521912 430.196716,781.265686 433.733337,780.967896 
	C435.364014,782.432983 436.580475,783.911316 437.928711,786.013428 
	C438.438416,787.104614 438.816376,787.572021 439.194336,788.039368 
	C445.381042,794.848877 451.520355,801.702209 457.774841,808.448853 
	C460.797913,811.709778 464.037537,814.769958 466.907440,818.338013 
	C461.965118,819.685120 458.533997,818.324707 456.741180,813.614380 
	C456.342865,812.567871 455.621063,811.181458 454.733734,810.881470 
	C452.944458,810.276489 450.345154,809.484192 449.190857,810.314209 
	C448.047821,811.136047 447.289551,814.715759 448.063538,815.604553 
	C451.849365,819.952209 452.633240,824.173523 450.098511,829.473145 
	C447.666199,834.558777 445.922943,839.973877 443.876831,845.244141 
	C433.968903,834.722717 424.061035,824.201294 413.998962,813.379761 
z"/>
<path fill="#1C53E5" opacity="1.000000" stroke="none" 
	d="
M366.994019,798.932861 
	C373.651062,800.352722 377.415436,804.901672 377.020905,811.049622 
	C376.643066,816.937866 371.761169,821.856689 365.378143,821.903503 
	C342.910583,822.068359 320.440582,822.071045 297.972870,821.924561 
	C292.030731,821.885742 287.281158,817.366577 286.535278,811.945496 
	C285.709625,805.944702 289.333527,801.067505 296.923126,799.209473 
	C298.224426,799.703552 298.865845,799.960632 299.507599,799.961365 
	C320.791168,799.986877 342.074799,800.005188 363.358215,799.947144 
	C364.571045,799.943848 365.782135,799.286072 366.994019,798.932861 
z"/>
<path fill="#04C7B1" opacity="1.000000" stroke="none" 
	d="
M885.350952,728.038208 
	C885.002747,727.668701 885.129150,727.256958 884.979614,727.017822 
	C881.177246,720.938538 880.569092,714.240906 880.719788,707.274231 
	C880.741394,706.275330 878.630920,704.866211 877.240051,704.262207 
	C870.213745,701.211121 870.173828,701.263000 872.979126,694.319824 
	C890.566711,696.586609 906.008545,704.005798 920.036682,714.633362 
	C930.483887,722.548157 938.853943,732.347107 946.043396,743.617065 
	C944.247742,745.422119 942.384033,746.885437 940.520264,748.348755 
	C940.784485,748.714539 941.048767,749.080383 941.312988,749.446167 
	C934.445862,750.648438 934.389160,750.667786 931.995361,743.655457 
	C931.144409,741.162903 929.877441,740.295593 927.632324,741.957031 
	C923.037048,745.357605 918.488281,744.300415 913.635315,742.404175 
	C909.733704,740.879639 905.591125,739.492493 901.461975,739.139954 
	C894.963013,738.585083 892.341858,733.078552 887.941956,729.872864 
	C887.168213,729.309082 886.444092,728.677002 885.350952,728.038208 
z"/>
<path fill="#0491A3" opacity="1.000000" stroke="none" 
	d="
M661.455688,935.909302 
	C659.660522,935.197510 658.371216,934.318237 656.971130,934.073669 
	C655.249573,933.773071 653.435547,934.002014 651.077820,934.002014 
	C649.686279,922.539368 648.358032,911.598816 647.048828,900.239624 
	C661.411743,899.588562 675.755554,899.356140 690.480713,899.501282 
	C689.931458,901.290161 687.961426,903.540161 691.168152,903.721436 
	C697.458008,904.076904 696.892090,908.084961 697.058411,912.346191 
	C697.353760,919.912598 695.244995,927.833618 699.999390,934.824646 
	C687.303711,935.224243 674.608032,935.623779 661.455688,935.909302 
z"/>
<path fill="#03AA9A" opacity="1.000000" stroke="none" 
	d="
M740.000977,891.296997 
	C747.310120,889.049866 754.604919,886.753723 761.946228,884.617432 
	C762.864502,884.350159 764.413391,884.549500 765.021179,885.169128 
	C774.879028,895.218323 786.383240,902.982605 799.741089,909.864380 
	C783.766602,917.277649 768.047485,922.418640 751.372192,925.715759 
	C749.058105,921.709717 746.993286,922.480835 744.893250,925.044983 
	C741.568298,929.104675 738.791931,924.274048 735.707397,924.504456 
	C735.928040,922.719543 735.477905,920.098511 736.483337,919.291809 
	C741.331116,915.402649 739.954529,912.001526 736.653931,908.066162 
	C733.730347,904.580261 734.610107,900.749023 737.756653,897.381042 
	C739.117065,895.924988 739.289124,893.358765 740.000977,891.296997 
z"/>
<path fill="#0F58D1" opacity="1.000000" stroke="none" 
	d="
M444.026093,845.536560 
	C445.922943,839.973877 447.666199,834.558777 450.098511,829.473145 
	C452.633240,824.173523 451.849365,819.952209 448.063538,815.604553 
	C447.289551,814.715759 448.047821,811.136047 449.190857,810.314209 
	C450.345154,809.484192 452.944458,810.276489 454.733734,810.881470 
	C455.621063,811.181458 456.342865,812.567871 456.741180,813.614380 
	C458.533997,818.324707 461.965118,819.685120 467.077393,818.623169 
	C467.518982,818.491150 467.482697,818.514709 467.450165,818.830688 
	C467.759186,819.234436 468.100739,819.322266 468.442291,819.410034 
	C468.442291,819.410095 468.544891,819.509460 468.470581,819.706360 
	C468.599487,819.918823 468.802734,819.934387 469.005981,819.949951 
	C476.219238,826.112305 483.432526,832.274719 490.821289,838.719299 
	C485.921204,840.076050 483.372498,843.608093 484.090485,848.588989 
	C484.275360,849.871521 485.091125,851.469116 484.603882,852.380066 
	C479.510864,861.902283 483.511414,870.162537 487.893921,878.422363 
	C488.035309,878.688782 487.948853,879.076050 487.955139,879.794189 
	C473.352875,868.730591 458.764099,857.279785 444.026093,845.536560 
z"/>
<path fill="#049A9A" opacity="1.000000" stroke="none" 
	d="
M739.609863,891.276489 
	C739.289124,893.358765 739.117065,895.924988 737.756653,897.381042 
	C734.610107,900.749023 733.730347,904.580261 736.653931,908.066162 
	C739.954529,912.001526 741.331116,915.402649 736.483337,919.291809 
	C735.477905,920.098511 735.928040,922.719543 735.707397,924.504456 
	C738.791931,924.274048 741.568298,929.104675 744.893250,925.044983 
	C746.993286,922.480835 749.058105,921.709717 750.957520,925.666626 
	C744.111694,927.666992 737.284729,929.644897 730.324158,930.852844 
	C720.558594,932.547791 710.693787,933.670166 700.435425,934.931030 
	C695.244995,927.833618 697.353760,919.912598 697.058411,912.346191 
	C696.892090,908.084961 697.458008,904.076904 691.168152,903.721436 
	C687.961426,903.540161 689.931458,901.290161 690.927673,899.562500 
	C707.068481,896.582825 723.143616,893.919495 739.609863,891.276489 
z"/>
<path fill="#04B4E5" opacity="1.000000" stroke="none" 
	d="
M901.517212,419.003479 
	C901.970886,419.015747 902.211426,419.109283 902.219604,419.219940 
	C903.074341,430.797211 912.001587,438.178741 917.217957,447.444336 
	C920.083984,452.535126 924.301208,457.889404 929.283569,460.436646 
	C933.184204,462.430847 936.930847,467.822266 943.484558,464.351959 
	C948.486450,461.703278 953.583069,465.066284 954.997192,470.484314 
	C946.022339,468.836304 937.021484,466.917938 928.076538,464.766998 
	C913.535400,461.270508 899.048950,457.545807 884.499878,454.083557 
	C880.112366,453.039459 876.598145,451.209045 875.582214,446.524719 
	C874.649109,442.222717 877.029175,439.392578 880.195923,436.802979 
	C887.283752,431.007080 894.205933,425.008667 901.517212,419.003479 
z"/>
<path fill="#0F78E5" opacity="1.000000" stroke="none" 
	d="
M717.692017,532.105957 
	C716.880981,534.370605 715.774353,536.793213 714.675781,539.198059 
	C721.008972,541.028442 721.564819,540.744995 725.572083,533.525879 
	C734.036011,535.631592 736.887146,539.004517 738.119263,547.670227 
	C738.337524,549.204956 739.808228,550.561584 741.108521,552.074951 
	C732.875305,562.316833 724.234253,572.484314 715.062866,582.491272 
	C712.356018,578.291565 710.260559,574.205505 707.966064,570.234436 
	C706.932617,568.445801 705.845886,566.230896 704.181152,565.358276 
	C700.604492,563.483582 696.637207,562.354187 692.829773,560.919678 
	C701.018616,551.367737 709.207458,541.815735 717.692017,532.105957 
z"/>
<path fill="#1367CC" opacity="1.000000" stroke="none" 
	d="
M692.547974,561.089966 
	C696.637207,562.354187 700.604492,563.483582 704.181152,565.358276 
	C705.845886,566.230896 706.932617,568.445801 707.966064,570.234436 
	C710.260559,574.205505 712.356018,578.291565 714.746094,582.580688 
	C710.343628,588.453613 705.727539,594.076538 700.548584,599.988037 
	C700.231506,600.886414 700.477417,601.496277 700.723328,602.106079 
	C700.900452,602.874573 701.077576,603.643066 701.181763,604.703491 
	C688.965759,603.282410 683.890869,592.609741 676.173462,585.295776 
	C673.303040,582.575317 670.551208,579.729736 667.984924,577.179382 
	C668.871704,577.056702 670.692322,576.804932 672.763428,576.272461 
	C677.865356,577.590515 680.860718,575.410278 683.567017,571.482849 
	C686.092651,567.817566 689.337769,564.648071 692.547974,561.089966 
z"/>
<path fill="#06BBB5" opacity="1.000000" stroke="none" 
	d="
M858.924561,612.928345 
	C857.652344,605.229431 861.339600,600.513123 868.672607,600.430115 
	C880.137573,600.300293 891.606689,600.323730 903.071594,600.470947 
	C909.275696,600.550598 913.437988,604.399719 913.451843,609.586426 
	C913.466492,615.079346 909.270569,618.735596 902.670898,618.776245 
	C891.370605,618.845886 880.069458,618.778503 868.769104,618.843018 
	C864.399292,618.867981 861.001587,617.391113 858.924561,612.928345 
z"/>
<path fill="#0D49CE" opacity="1.000000" stroke="none" 
	d="
M471.245605,600.484192 
	C477.947205,602.520935 480.773438,606.121948 479.981049,611.113220 
	C479.209595,615.973083 475.133087,618.835449 468.797302,618.853027 
	C457.805206,618.883606 446.812805,618.896057 435.820831,618.849121 
	C429.193237,618.820862 425.100555,615.285522 425.032013,609.692627 
	C424.967773,604.450989 428.973267,600.592407 435.350159,600.488953 
	C447.171387,600.297119 458.998047,600.441833 471.245605,600.484192 
z"/>
<path fill="#0F58D1" opacity="1.000000" stroke="none" 
	d="
M495.308014,771.938904 
	C496.434814,769.233887 497.084412,766.452820 498.779724,764.661316 
	C506.194214,756.825745 513.859436,749.223938 521.538940,741.643982 
	C526.244263,736.999756 531.753418,736.783325 535.564575,740.839233 
	C539.261475,744.773499 538.831543,750.050354 534.385132,754.506348 
	C526.880371,762.027344 519.156067,769.340332 511.884094,777.079163 
	C506.326691,782.993408 495.845337,780.691956 495.308014,771.938904 
z"/>
<path fill="#0491A3" opacity="1.000000" stroke="none" 
	d="
M667.593140,848.157593 
	C661.872009,846.683960 659.883545,843.035706 659.952454,837.689941 
	C660.091980,826.864441 660.011597,816.036133 660.052185,805.209106 
	C660.076660,798.680176 663.325012,794.670227 668.644897,794.509766 
	C673.963379,794.349365 677.704346,798.373779 677.765137,804.750549 
	C677.871643,815.909607 677.879639,827.071716 677.739258,838.230164 
	C677.656006,844.850159 674.518921,847.868469 667.593140,848.157593 
z"/>
<path fill="#0F58D1" opacity="1.000000" stroke="none" 
	d="
M515.056152,466.945251 
	C509.291290,461.140808 503.739197,455.623260 498.273682,450.021240 
	C493.913818,445.552460 493.526459,439.955566 497.186127,436.278992 
	C501.127167,432.319763 506.794769,432.727295 511.266693,437.301453 
	C518.833130,445.040863 526.401184,452.778717 533.955566,460.529816 
	C538.145508,464.828888 538.577942,470.216034 535.061035,473.870880 
	C531.354431,477.722870 525.775635,477.480103 521.302917,473.210236 
	C519.255798,471.255951 517.302246,469.203552 515.056152,466.945251 
z"/>
<path fill="#04A7E5" opacity="1.000000" stroke="none" 
	d="
M840.642090,436.510437 
	C842.274353,441.288605 841.036804,444.789001 837.678711,448.069611 
	C829.941284,455.628448 822.478516,463.467743 814.860046,471.149353 
	C810.317932,475.729095 805.133911,476.163757 801.233826,472.408386 
	C797.245117,468.567657 797.542664,462.822601 802.050171,458.253510 
	C809.647644,450.552399 817.281433,442.887146 824.909241,435.216125 
	C830.296814,429.798065 835.504944,430.126068 840.642090,436.510437 
z"/>
<path fill="#0F78E5" opacity="1.000000" stroke="none" 
	d="
M677.812866,373.093018 
	C677.835449,382.558014 677.918701,391.538116 677.861755,400.517395 
	C677.820496,407.026764 674.427673,411.070343 669.170044,411.161499 
	C663.417053,411.261200 660.097290,407.481964 660.052429,400.579956 
	C659.985413,390.270050 659.993408,379.959595 660.001038,369.649353 
	C660.006653,362.083771 663.386475,357.773712 669.134827,357.916290 
	C674.639771,358.052826 677.746521,362.242188 677.807068,369.614441 
	C677.815308,370.612183 677.811584,371.610016 677.812866,373.093018 
z"/>
<path fill="#0D49CE" opacity="1.000000" stroke="none" 
	d="
M366.540649,798.808105 
	C365.782135,799.286072 364.571045,799.943848 363.358215,799.947144 
	C342.074799,800.005188 320.791168,799.986877 299.507599,799.961365 
	C298.865845,799.960632 298.224426,799.703552 297.301819,799.258240 
	C320.042938,798.861450 343.065125,798.772400 366.540649,798.808105 
z"/>
<path fill="#04A7E5" opacity="1.000000" stroke="none" 
	d="
M788.690674,290.870361 
	C785.766785,292.385193 782.800293,294.233551 778.991455,292.924164 
	C775.879700,291.854431 773.674255,290.501465 773.994629,286.433167 
	C778.801575,287.569885 783.612732,289.103210 788.690674,290.870361 
z"/>
<path fill="#04B4E5" opacity="1.000000" stroke="none" 
	d="
M863.260559,377.261047 
	C871.511230,377.096313 875.404785,380.405396 876.054016,388.313263 
	C871.852295,384.982697 867.625732,381.271118 863.260559,377.261047 
z"/>
<path fill="#04B4E5" opacity="1.000000" stroke="none" 
	d="
M878.766479,391.441711 
	C883.591125,391.266815 888.625061,396.065125 889.036011,401.431396 
	C885.672729,398.465240 882.292847,395.109589 878.766479,391.441711 
z"/>
<path fill="#04B4E5" opacity="1.000000" stroke="none" 
	d="
M894.920044,408.391357 
	C899.318115,407.833496 900.389221,410.900696 900.932617,414.847168 
	C898.949585,413.064178 896.988464,410.888336 894.920044,408.391357 
z"/>
<path fill="#0F78E5" opacity="1.000000" stroke="none" 
	d="
M606.621033,276.950195 
	C605.106323,277.790588 603.212646,278.591736 601.111450,279.101624 
	C602.683289,278.177246 604.462708,277.544098 606.621033,276.950195 
z"/>
<path fill="#0F78E5" opacity="1.000000" stroke="none" 
	d="
M724.699951,524.119751 
	C723.508362,525.946411 722.027893,527.933594 720.182129,529.930420 
	C721.348267,528.053406 722.879700,526.166870 724.699951,524.119751 
z"/>
<path fill="#185CE4" opacity="1.000000" stroke="none" 
	d="
M458.693695,348.744690 
	C458.121857,349.675568 457.239532,350.726105 455.976685,351.658081 
	C456.525177,350.647797 457.454163,349.756073 458.693695,348.744690 
z"/>
<path fill="#1C53E5" opacity="1.000000" stroke="none" 
	d="
M397.667419,416.086090 
	C397.370300,417.146851 396.803619,418.388367 395.853821,419.593506 
	C396.113068,418.460327 396.755463,417.363586 397.667419,416.086090 
z"/>
<path fill="#1C53E5" opacity="1.000000" stroke="none" 
	d="
M401.343048,410.806030 
	C401.159821,411.642792 400.712219,412.639832 399.885925,413.614685 
	C400.031067,412.717072 400.554871,411.841705 401.343048,410.806030 
z"/>
<path fill="#1C53E5" opacity="1.000000" stroke="none" 
	d="
M395.205017,419.801453 
	C395.054962,420.622650 394.673248,421.634949 393.908875,422.642334 
	C394.008575,421.755829 394.490967,420.874237 395.205017,419.801453 
z"/>
<path fill="#0D49CE" opacity="1.000000" stroke="none" 
	d="
M643.322510,587.772217 
	C643.120483,588.614868 642.653320,589.610352 641.805664,590.525024 
	C641.969238,589.604492 642.513306,588.764771 643.322510,587.772217 
z"/>
<path fill="#1C53E5" opacity="1.000000" stroke="none" 
	d="
M404.547607,406.578827 
	C404.436035,407.222565 404.041016,408.035980 403.271301,408.895325 
	C403.352448,408.210327 403.808289,407.479401 404.547607,406.578827 
z"/>
<path fill="#1C53E5" opacity="1.000000" stroke="none" 
	d="
M399.252625,413.765442 
	C399.201385,414.356598 398.912964,415.114288 398.265015,415.909058 
	C398.275452,415.274750 398.645447,414.603363 399.252625,413.765442 
z"/>
<path fill="#0D9FB7" opacity="1.000000" stroke="none" 
	d="
M840.738647,692.730225 
	C840.402527,693.043213 839.829468,693.236206 839.136902,693.229126 
	C839.512146,692.889404 840.006897,692.749878 840.738647,692.730225 
z"/>
<path fill="#1C53E5" opacity="1.000000" stroke="none" 
	d="
M439.232300,787.719727 
	C438.816376,787.572021 438.438416,787.104614 438.029541,786.320679 
	C438.422516,786.469482 438.846405,786.934814 439.232300,787.719727 
z"/>
<path fill="#0D49CE" opacity="1.000000" stroke="none" 
	d="
M685.697510,637.456177 
	C685.787598,637.072510 686.160706,636.604065 686.886780,636.163513 
	C686.820007,636.584778 686.400330,636.978088 685.697510,637.456177 
z"/>
<path fill="#1C53E5" opacity="1.000000" stroke="none" 
	d="
M402.677948,409.045593 
	C402.700531,409.476349 402.468262,410.055328 401.905487,410.677490 
	C401.857666,410.211761 402.140381,409.702789 402.677948,409.045593 
z"/>
<path fill="#0F58D1" opacity="1.000000" stroke="none" 
	d="
M700.772461,601.777527 
	C700.477417,601.496277 700.231506,600.886414 700.328308,600.203735 
	C700.721191,600.570251 700.771362,601.009644 700.772461,601.777527 
z"/>
<path fill="#185CE4" opacity="1.000000" stroke="none" 
	d="
M453.222961,353.558411 
	C453.162384,353.939880 452.830322,354.422638 452.151245,354.918915 
	C452.186584,354.508179 452.569000,354.083954 453.222961,353.558411 
z"/>
<path fill="#0D49CE" opacity="1.000000" stroke="none" 
	d="
M644.332031,586.665833 
	C644.453247,586.919067 644.330627,587.281738 643.894714,587.668762 
	C643.750305,587.387146 643.919250,587.081238 644.332031,586.665833 
z"/>
<path fill="#0D49CE" opacity="1.000000" stroke="none" 
	d="
M645.318970,585.637756 
	C645.433228,585.903259 645.305298,586.263794 644.859009,586.610413 
	C644.719360,586.308594 644.898071,586.020691 645.318970,585.637756 
z"/>
<path fill="#185CE4" opacity="1.000000" stroke="none" 
	d="
M454.321381,352.633667 
	C454.425568,352.905914 454.297302,353.256287 453.858704,353.550659 
	C453.605743,353.148895 453.785919,352.887939 454.321381,352.633667 
z"/>
<path fill="#185CE4" opacity="1.000000" stroke="none" 
	d="
M455.374298,351.661926 
	C455.476074,351.929382 455.331299,352.278503 454.874756,352.603271 
	C454.751221,352.300476 454.939484,352.022003 455.374298,351.661926 
z"/>
<path fill="#0D49CE" opacity="1.000000" stroke="none" 
	d="
M647.445923,583.685059 
	C647.534668,583.946533 647.363525,584.292908 646.879150,584.637085 
	C646.772705,584.346558 646.979370,584.058350 647.445923,583.685059 
z"/>
<path fill="#185CE4" opacity="1.000000" stroke="none" 
	d="
M468.966064,819.816895 
	C468.802734,819.934387 468.599487,819.918823 468.531616,819.743469 
	C468.666962,819.583679 468.926178,819.683838 468.966064,819.816895 
z"/>
<path fill="#185CE4" opacity="1.000000" stroke="none" 
	d="
M468.344604,819.209717 
	C468.100739,819.322266 467.759186,819.234436 467.461243,818.845581 
	C467.812164,818.603699 468.059509,818.758667 468.344604,819.209717 
z"/>
<path fill="#0D49CE" opacity="1.000000" stroke="none" 
	d="
M646.362549,584.641968 
	C646.467041,584.911133 646.321899,585.267639 645.859131,585.604858 
	C645.732056,585.300171 645.922546,585.014771 646.362549,584.641968 
z"/>
<path fill="#0D49CE" opacity="1.000000" stroke="none" 
	d="
M689.752502,634.413208 
	C689.530884,634.206482 689.455444,633.950989 689.380005,633.695435 
	C689.515564,633.709290 689.651062,633.723145 689.902832,633.908813 
	C690.019104,634.080688 689.898682,634.364380 689.752502,634.413208 
z"/>
<path fill="#0D49CE" opacity="1.000000" stroke="none" 
	d="
M688.528198,635.321045 
	C688.452881,635.052490 688.637939,634.713562 689.135498,634.407532 
	C689.228210,634.710510 689.008362,634.980591 688.528198,635.321045 
z"/>
<path fill="#0D49CE" opacity="1.000000" stroke="none" 
	d="
M687.409729,636.198853 
	C687.346069,635.953918 687.557678,635.635742 688.068970,635.288086 
	C688.140808,635.547668 687.912903,635.836670 687.409729,636.198853 
z"/>
<path fill="#0D49CE" opacity="1.000000" stroke="none" 
	d="
M648.592529,582.637451 
	C648.674438,582.878662 648.472107,583.252991 647.946899,583.703125 
	C647.852051,583.442871 648.080139,583.106689 648.592529,582.637451 
z"/>
<path fill="#F6FBFB" opacity="1.000000" stroke="none" 
	d="
M873.552002,858.434265 
	C871.441895,861.911377 868.943787,864.149536 864.871094,863.293762 
	C860.563660,862.388672 859.416321,859.221680 858.678101,855.321045 
	C856.363953,843.093384 853.765015,830.919678 851.165405,817.948242 
	C847.983826,801.026062 844.913147,784.880676 841.842529,768.735291 
	C841.478882,768.701538 841.115234,768.667847 840.751587,768.634155 
	C836.040283,781.698486 831.328918,794.762756 826.617554,807.827087 
	C824.604126,812.295532 821.101501,814.025024 816.277710,813.873169 
	C810.164490,813.680664 804.041809,813.791382 797.463501,813.869019 
	C791.021179,813.888611 785.037964,813.840820 779.056213,813.723511 
	C773.533325,813.615295 770.250671,810.845398 770.221191,806.367188 
	C770.190552,801.724731 773.695923,798.654663 779.238281,798.574829 
	C783.562500,798.512512 787.888184,798.553833 792.597961,798.515259 
	C798.626526,798.534607 804.277832,798.432434 809.911133,798.703979 
	C812.890869,798.847656 814.265869,797.836731 815.328613,795.002319 
	C821.969971,777.288757 828.874695,759.674072 835.584167,741.985718 
	C837.284058,737.504150 839.721375,734.407104 845.439087,735.098389 
	C845.833496,735.146362 845.890198,735.116516 845.948364,735.355835 
	C846.327087,735.689575 846.647583,735.783997 846.968140,735.878357 
	C848.592896,738.945984 851.052673,741.845276 851.710754,745.107910 
	C857.146729,772.060730 862.246643,799.081238 867.471863,826.076782 
	C867.557678,826.520081 867.939270,826.906128 868.456787,827.783447 
	C873.022278,815.305054 877.547363,803.253967 881.805298,791.109131 
	C883.104614,787.403076 884.826782,784.063049 888.821289,783.513062 
	C893.006897,782.936768 896.217590,785.377197 897.644104,789.297546 
	C900.952576,798.389771 907.666016,800.153992 916.589355,798.344849 
	C920.657166,798.302490 924.327209,798.370605 928.715942,798.528381 
	C930.269165,798.771484 931.103638,798.924988 931.938171,799.078491 
	C937.539795,804.129333 937.683167,807.655090 932.233032,812.848450 
	C921.347412,813.312256 910.702454,813.892456 900.094971,813.488647 
	C897.331543,813.383423 894.684937,810.210449 891.055420,807.839417 
	C885.327332,824.337952 879.475342,841.193298 873.552002,858.434265 
z"/>
<path fill="#06BBB5" opacity="1.000000" stroke="none" 
	d="
M931.907654,798.736206 
	C931.103638,798.924988 930.269165,798.771484 929.164673,798.448242 
	C929.888855,798.316956 930.882996,798.355408 931.907654,798.736206 
z"/>
<path fill="#0D9FB7" opacity="1.000000" stroke="none" 
	d="
M846.835022,735.677002 
	C846.647583,735.783997 846.327087,735.689575 845.918579,735.345947 
	C846.169495,735.111816 846.459900,735.238098 846.835022,735.677002 
z"/>
<path fill="#0D9FB7" opacity="1.000000" stroke="none" 
	d="
M827.012207,807.872070 
	C831.328918,794.762756 836.040283,781.698486 840.751587,768.634155 
	C841.115234,768.667847 841.478882,768.701538 841.842529,768.735291 
	C844.913147,784.880676 847.983826,801.026062 851.023193,817.583496 
	C849.915649,820.352600 848.841736,821.978210 845.542297,822.248901 
	C840.187500,822.688110 842.479187,827.218811 842.212158,830.395020 
	C842.000916,832.906494 841.241943,835.372009 840.360107,837.919067 
	C837.315674,834.033325 834.637268,830.086548 831.577087,825.577148 
	C834.537048,825.138489 836.568542,824.837402 838.554688,824.543091 
	C838.689453,817.843994 833.232971,809.843445 827.012207,807.872070 
z"/>
</svg>