<svg version="1.1" id="Layer_1" xmlns="http://www.w3.org/2000/svg" xmlns:xlink="http://www.w3.org/1999/xlink" x="0px" y="0px"
	 width="100%" viewBox="0 0 1254 1254" enable-background="new 0 0 1254 1254" xml:space="preserve">
<path fill="#FEFEFE" opacity="0" stroke="none" 
	d="
M865.000000,1255.000000 
	C576.666687,1255.000000 288.833344,1255.000000 1.000000,1255.000000 
	C1.000000,837.000000 1.000000,419.000000 1.000000,1.000000 
	C419.000000,1.000000 837.000000,1.000000 1255.000000,1.000000 
	C1255.000000,419.000000 1255.000000,837.000000 1255.000000,1255.000000 
	C1125.166626,1255.000000 995.333313,1255.000000 865.000000,1255.000000 
z"/>
<path fill="#298AFA" opacity="1.000000" stroke="none" d="M915.976746,413.326355 
	C915.330750,412.529297 914.684814,411.732269 914.001038,410.994263 
	C914.001038,410.994263 914.064514,410.964355 913.917358,410.288849 
	C901.722168,395.650360 889.873352,380.701996 877.177856,366.511078 
	C871.295776,359.936188 863.764587,354.836700 856.510803,348.580444 
	C849.020386,342.583466 841.958374,335.922028 833.936279,330.749756 
	C822.701172,323.505829 810.750977,317.370972 798.705627,310.194305 
	C786.188171,304.697601 773.670715,299.200897 760.652039,293.246277 
	C757.386047,292.363922 753.998413,291.787994 750.874451,290.547913 
	C734.485352,284.042206 717.351929,280.760529 699.212952,278.104767 
	C680.478210,277.060730 661.743530,276.016693 642.624268,274.748352 
	C642.082031,275.165375 641.539795,275.582397 640.255066,275.848541 
	C639.503906,275.908447 638.752686,275.968353 637.100159,275.890503 
	C615.265869,275.230255 594.008728,278.905487 572.239624,284.390472 
	C551.373840,289.826813 531.035645,296.693024 511.106934,306.746582 
	C491.902405,315.924774 473.640656,326.637695 456.323395,340.107513 
	C447.157990,348.001312 437.506683,355.402466 428.914124,363.877106 
	C397.331390,395.026367 372.714264,430.920502 356.474091,472.388428 
	C355.891846,473.875153 353.584778,475.311737 351.878662,475.609741 
	C347.653778,476.347565 343.311096,476.410736 338.318634,476.565765 
	C336.766968,477.005005 335.236267,477.720825 333.660339,477.840485 
	C318.488678,478.992523 305.213043,485.066132 292.085876,493.602081 
	C287.738190,496.805878 283.057159,499.645172 279.093994,503.269440 
	C236.210770,542.485291 229.834976,603.669128 263.859711,650.741394 
	C271.166016,660.849487 279.728516,669.932251 291.615173,676.222778 
	C305.634125,686.879150 321.705658,692.053284 339.818604,694.132446 
	C343.135742,694.309937 346.518860,694.156921 349.742950,694.800659 
	C351.422852,695.136047 353.512878,696.538513 354.242950,698.032898 
	C362.543304,715.023987 369.704254,732.645386 379.035004,749.036499 
	C386.700684,762.502625 396.871826,774.542542 406.163879,787.834167 
	C420.046661,801.912720 433.929443,815.991272 448.131989,830.678345 
	C451.514526,833.312622 454.759430,836.151001 458.305328,838.543152 
	C469.081390,845.812927 479.973785,852.910217 491.252991,860.609192 
	C506.494507,867.760071 521.736023,874.910889 537.478394,882.541260 
	C551.262146,886.826233 565.045837,891.111206 579.392822,895.925842 
	C588.425964,897.401672 597.417847,899.243408 606.502075,900.265442 
	C619.347717,901.710693 632.261414,902.550659 644.909546,903.629211 
	C643.458618,893.937744 642.168945,885.323181 640.850769,876.518433 
	C632.250671,875.679688 623.473450,874.907654 614.717346,873.944092 
	C607.132935,873.109497 599.572449,872.057617 591.373230,870.938721 
	C586.695007,869.789185 581.931152,868.906006 577.355713,867.436401 
	C566.720398,864.020325 556.175964,860.321350 545.047668,856.247009 
	C529.792969,848.799988 514.538330,841.353027 498.840912,833.373230 
	C487.383881,825.198730 475.926819,817.024231 464.142456,808.291199 
	C463.447205,807.810120 462.751984,807.329041 461.796844,806.335999 
	C461.183319,805.894226 460.569824,805.452454 459.635590,804.432190 
	C455.746948,800.843994 451.534851,797.544373 448.029114,793.614563 
	C436.626740,780.833191 425.482758,767.821289 414.027802,754.231812 
	C400.112701,734.611328 388.837250,713.625244 380.762665,690.924683 
	C385.125946,689.154846 389.063324,687.557678 393.734711,685.903015 
	C397.049469,684.349548 400.475433,682.994934 403.662567,681.213196 
	C464.726929,647.075378 478.931641,566.103088 433.016205,513.270203 
	C424.808685,503.826141 415.628021,495.336761 403.508118,489.536957 
	C396.570129,486.567596 389.632111,483.598236 381.605560,480.162964 
	C388.389893,467.075775 394.557678,454.200714 401.591064,441.817322 
	C415.494995,417.337341 434.380554,396.754761 454.507141,376.451294 
	C460.594177,371.653717 466.347931,366.338959 472.833435,362.159760 
	C489.379761,351.497620 506.252563,341.342163 523.720154,330.886261 
	C538.864075,325.032257 554.008057,319.178223 569.957458,313.291534 
	C590.974792,307.650421 612.330017,303.899384 634.918945,301.984467 
	C653.906494,302.829865 672.893982,303.675262 692.512573,304.949799 
	C698.062744,305.822296 703.725952,306.256226 709.141541,307.651215 
	C724.159851,311.519836 739.075073,315.788635 754.582336,320.339752 
	C766.038696,325.273468 777.495117,330.207153 789.404114,335.651520 
	C799.467102,341.761719 809.960144,347.274445 819.485352,354.131653 
	C831.705505,362.928955 843.147400,372.807220 855.214417,382.805145 
	C858.052124,385.567505 860.889832,388.329834 863.983582,391.684875 
	C864.613586,392.255798 865.243652,392.826691 866.171570,393.968140 
	C870.621216,399.109161 875.588440,403.893677 879.421997,409.459076 
	C890.214844,425.127747 900.541382,441.117584 911.127380,457.686523 
	C912.775208,461.120087 914.422974,464.553619 916.089722,468.557343 
	C916.363770,468.804413 916.637817,469.051514 917.053955,469.997253 
	C955.152832,556.674561 950.247925,641.878540 907.979126,726.168457 
	C914.442932,729.374817 920.905151,732.355652 927.137390,735.757935 
	C930.769348,737.740723 932.435303,737.048340 934.319824,733.327026 
	C949.867676,702.625610 960.697449,670.399780 965.561279,636.315918 
	C970.052002,604.846497 970.396057,573.291382 966.045471,541.740173 
	C961.894775,511.639008 952.862061,482.955414 940.001892,455.552795 
	C934.244019,443.283722 926.880432,431.768188 920.064758,419.248871 
	C918.732971,417.464447 917.401184,415.680054 916.033447,413.982941 
	C916.033447,413.982941 916.115417,413.936066 915.976746,413.326355 
M878.593506,796.656921 
	C877.733826,796.787903 876.874084,796.918945 875.645020,796.906128 
	C875.645020,796.906128 875.248779,796.897095 874.901611,796.188782 
	C864.173828,796.074097 853.424255,795.520630 842.728333,796.049866 
	C838.126221,796.277588 836.034729,800.419617 836.042175,805.174683 
	C836.081055,829.946289 836.107544,854.717834 836.079529,879.489441 
	C836.074951,883.565674 837.693176,886.570923 841.307007,888.389893 
	C848.088318,891.803162 855.179504,887.650146 855.422546,879.907898 
	C855.666077,872.150146 855.475952,864.378723 855.475952,856.089722 
	C858.659180,856.089722 861.134705,856.273438 863.573303,856.051758 
	C868.774414,855.578857 873.956360,854.895752 879.898926,854.199951 
	C891.705688,850.787292 900.527283,838.857422 900.367981,826.518738 
	C900.178528,811.841248 892.022095,800.562378 878.593506,796.656921 
M552.767273,623.815186 
	C560.862122,618.247253 568.956909,612.679321 577.765320,606.996460 
	C582.976929,604.556335 587.998352,601.511780 593.439148,599.800598 
	C605.175110,596.109375 617.126404,593.103027 629.845459,589.895752 
	C638.915405,589.415283 648.018616,588.222412 657.046326,588.644836 
	C667.062927,589.113525 677.010498,591.056702 687.568726,592.751587 
	C712.622131,599.039124 735.005066,610.686218 754.595093,626.803711 
	C759.967712,620.072388 764.914673,613.874451 770.173767,607.285522 
	C766.146973,604.169678 762.166016,600.929626 758.023071,597.911926 
	C742.437622,586.559631 725.436646,577.918701 706.762817,571.835754 
	C712.053345,567.385986 717.263855,563.518188 721.881409,559.039185 
	C762.965881,519.186829 765.353149,448.837433 726.660278,406.688202 
	C719.695374,399.101135 710.704529,393.373871 702.214661,386.175507 
	C701.319885,385.777893 700.373474,385.467010 699.537781,384.970032 
	C674.611938,370.146790 648.318665,368.139282 620.123047,376.682617 
	C602.260864,382.479645 587.067261,392.307526 574.269836,406.983490 
	C552.880310,431.729584 543.877747,460.416931 547.523926,492.874664 
	C549.994995,514.872131 558.213013,534.564880 573.056519,551.995544 
	C580.167603,558.804688 587.278687,565.613892 594.209534,572.250488 
	C587.761169,575.145752 580.793640,578.274109 573.088440,581.602905 
	C561.391479,589.068726 549.694519,596.534607 537.330139,604.126404 
	C535.745728,605.580139 534.174805,607.048889 532.574707,608.485229 
	C518.802979,620.848267 506.886597,634.746155 497.029785,651.191040 
	C475.153900,685.623535 469.525452,723.695984 472.132355,763.522095 
	C472.597656,770.630432 479.203857,774.884888 486.179749,773.481140 
	C492.256317,772.258301 495.822327,767.565247 496.024628,760.903992 
	C496.428589,747.601746 496.324280,734.243164 497.587311,721.018433 
	C499.061890,705.578979 504.378601,691.047913 511.252808,676.453125 
	C513.405334,672.506348 515.462219,668.503784 517.727234,664.622559 
	C526.802185,649.071533 538.632812,635.841797 552.767273,623.815186 
M777.378845,963.738953 
	C778.417603,964.262451 779.476501,964.749756 780.492004,965.315002 
	C793.930664,972.794739 807.289307,972.856079 820.809021,965.330627 
	C827.044128,961.860046 833.636047,959.036133 840.009949,955.808044 
	C854.078735,948.682922 868.111877,941.487488 882.632874,934.234985 
	C882.632874,934.234985 883.007935,933.933777 883.628967,933.862061 
	C884.162170,933.267944 884.695374,932.673828 885.981445,932.159424 
	C898.962891,925.803528 912.394409,920.207581 924.791199,912.864746 
	C935.813171,906.336304 941.894226,895.610779 941.959961,882.428101 
	C942.120972,850.119568 942.103699,817.809265 941.963684,785.500488 
	C941.914612,774.182922 937.388062,764.471252 928.242798,757.901123 
	C921.697571,753.198914 914.124756,749.879456 906.865051,746.232239 
	C898.574768,742.067261 890.123291,738.223145 881.197388,733.980896 
	C878.574463,740.496033 876.130859,746.565674 873.568481,752.930298 
	C876.284790,754.282227 878.487366,755.401001 880.709106,756.480408 
	C891.038269,761.498413 901.372681,766.505798 911.705383,771.516541 
	C918.394043,774.760193 921.560669,780.165466 921.559265,787.530518 
	C921.553406,818.507263 921.549744,849.483948 921.552185,880.460693 
	C921.552795,888.006104 918.275757,893.508789 911.493164,896.928101 
	C905.258362,900.071350 899.064758,903.296021 892.140137,906.683411 
	C889.052612,908.372803 885.965027,910.062195 882.228516,911.848877 
	C881.088257,912.429260 879.947998,913.009644 878.085693,913.759705 
	C859.752136,922.885742 841.358704,931.894043 823.106934,941.180847 
	C811.656311,947.007141 800.520508,953.909851 786.972290,946.050903 
	C775.646667,940.216736 764.372253,934.280457 752.983398,928.572449 
	C736.092590,920.106995 719.120667,911.803223 701.723267,902.953186 
	C697.781372,900.933044 693.911621,898.753723 689.881531,896.928223 
	C683.041748,893.830017 679.684082,888.537048 679.660889,881.174561 
	C679.562378,849.848755 679.483704,818.522644 679.535889,787.196899 
	C679.548767,779.480530 683.337708,773.993042 690.419006,770.700684 
	C701.143188,765.714661 711.803040,760.589966 722.476685,755.495850 
	C724.220154,754.663757 725.894043,753.685913 727.621033,752.764221 
	C724.880737,746.321167 722.364075,740.404053 719.628540,733.972168 
	C705.018188,741.050537 690.461792,747.296448 676.724792,755.002808 
	C664.865723,761.655701 659.169189,772.778198 659.198242,786.635010 
	C659.265015,818.461121 659.164734,850.287659 659.323792,882.113159 
	C659.343384,886.037842 659.982056,890.147583 661.272827,893.843750 
	C665.781128,906.753601 675.447021,914.398071 688.515686,919.270020 
	C708.858276,929.523865 729.176819,939.825623 749.554321,950.009644 
	C758.616638,954.538696 767.797668,958.830017 777.378845,963.738953 
M781.114624,682.321411 
	C777.281189,688.716553 773.164917,694.963684 769.714478,701.559204 
	C767.436768,705.913147 765.093750,706.090088 761.661316,703.285034 
	C760.634033,702.445557 759.513245,701.718201 758.418152,700.964417 
	C750.205872,695.311829 742.015625,689.626709 733.762024,684.035034 
	C730.164246,681.597656 726.507141,681.813782 723.173828,684.590698 
	C719.896057,687.321411 719.686768,690.688110 721.284912,694.493835 
	C728.232178,711.038208 735.107788,727.612732 741.995056,744.182312 
	C743.690918,748.262329 746.687134,750.719727 751.108337,750.773743 
	C758.410889,750.863159 765.717163,750.641968 773.929688,750.775452 
	C798.752808,750.802551 823.575928,750.827881 848.399048,750.858215 
	C853.578918,750.864563 857.329285,748.720520 859.367249,743.800049 
	C865.930054,727.954773 872.507996,712.115601 879.126099,696.293274 
	C880.972717,691.878479 882.042542,687.592651 877.528137,684.119324 
	C873.072449,680.691223 869.097534,682.732544 865.213501,685.434082 
	C856.737000,691.329834 848.132263,697.048401 839.793335,703.131836 
	C835.886414,705.982056 833.785461,705.551208 831.349792,701.245483 
	C823.808044,687.913574 815.919067,674.776367 808.057922,661.627502 
	C804.456848,655.604187 797.328979,655.053528 793.792358,660.691406 
	C789.465454,667.589050 785.635498,674.798340 781.114624,682.321411 
M731.276001,879.307373 
	C732.910645,884.816589 735.854370,889.014038 742.148926,889.389587 
	C747.362671,889.700623 751.253906,886.271851 753.875732,879.605469 
	C762.948730,856.535217 772.079041,833.487427 781.131226,810.408997 
	C783.763733,803.697388 781.929565,798.254944 776.523682,796.110962 
	C771.005615,793.922485 766.114197,796.533081 763.404663,803.350952 
	C757.321350,818.657898 751.339722,834.005188 745.298218,849.328796 
	C744.557800,851.206726 743.704468,853.040100 742.513733,855.796326 
	C741.452759,853.126526 740.821045,851.606689 740.241272,850.067261 
	C734.260254,834.185486 728.294861,818.297852 722.308716,802.417969 
	C720.217407,796.870300 715.200378,794.169617 710.105530,795.798889 
	C704.782654,797.501099 702.284851,802.862427 704.112305,808.717224 
	C704.459045,809.827820 704.893921,810.911987 705.313354,811.998596 
	C713.882568,834.195984 722.455566,856.391907 731.276001,879.307373 
M816.408264,879.735840 
	C816.412170,855.424744 816.462646,831.113464 816.390991,806.802551 
	C816.370056,799.703796 812.512756,795.420105 806.582153,795.404602 
	C800.531311,795.388794 797.145386,799.400513 797.125061,806.876038 
	C797.060425,830.687378 797.051331,854.498840 797.030884,878.310303 
	C797.025452,884.622681 799.813171,888.386902 805.010742,889.153870 
	C810.835144,890.013245 814.617126,887.144653 816.408264,879.735840 
M875.517151,678.945190 
	C881.807373,684.396423 889.905396,684.015930 894.823608,678.037842 
	C899.621643,672.205994 898.751465,664.340637 892.774475,659.515259 
	C888.077942,655.723572 880.729858,655.940491 876.285645,660.002075 
	C871.000732,664.831970 870.524963,671.748413 875.517151,678.945190 
M703.434875,668.803406 
	C703.809631,676.674866 708.220825,681.937805 715.059326,682.672546 
	C721.259827,683.338745 727.203125,679.273376 728.679138,673.356323 
	C730.421936,666.369812 727.242065,660.189514 720.598877,657.651733 
	C712.969055,654.737061 706.105530,658.904236 703.434875,668.803406 
M810.528931,645.950928 
	C814.211304,639.987732 814.295471,635.014587 810.672913,630.250488 
	C807.465149,626.031799 803.217529,624.249084 797.977173,625.409241 
	C792.260925,626.674683 788.466980,631.051025 787.802124,636.891174 
	C787.232605,641.894043 789.883728,647.062622 794.232849,649.428589 
	C799.541321,652.316528 804.641296,651.379395 810.528931,645.950928 
z"/>
<path fill="#8B48F9" opacity="1.000000" stroke="none" 
	d="
M916.070801,467.987183 
	C914.422974,464.553619 912.775208,461.120087 911.330444,457.124298 
	C911.251404,455.487946 911.171448,454.302948 910.653442,453.358185 
	C907.858887,448.261841 904.851929,443.279297 902.160889,438.130676 
	C901.466797,436.802612 901.260681,434.927582 901.597046,433.482117 
	C901.753174,432.810822 903.903687,431.971161 904.876648,432.231110 
	C909.254883,433.401062 911.768860,430.072937 913.161133,427.575195 
	C914.030579,426.015503 911.368469,422.557770 910.434937,419.901306 
	C909.611511,417.558228 908.587280,415.149261 908.562866,412.760132 
	C908.557007,412.180328 912.134644,411.563934 914.064514,410.964355 
	C914.064514,410.964355 914.001038,410.994263 914.014954,411.330902 
	C914.724365,412.423706 915.419922,413.179871 916.115417,413.936066 
	C916.115417,413.936066 916.033447,413.982941 916.034058,414.318542 
	C917.438232,416.406311 918.841797,418.158539 920.245422,419.910736 
	C926.880432,431.768188 934.244019,443.283722 940.001892,455.552795 
	C952.862061,482.955414 961.894775,511.639008 966.045471,541.740173 
	C970.396057,573.291382 970.052002,604.846497 965.561279,636.315918 
	C960.697449,670.399780 949.867676,702.625610 934.319824,733.327026 
	C932.435303,737.048340 930.769348,737.740723 927.137390,735.757935 
	C920.905151,732.355652 914.442932,729.374817 907.979126,726.168457 
	C950.247925,641.878540 955.152832,556.674561 916.928711,469.380554 
	C916.559265,468.504944 916.315002,468.246063 916.070801,467.987183 
z"/>
<path fill="#6551F7" opacity="1.000000" stroke="none" 
	d="
M702.649048,386.787964 
	C710.704529,393.373871 719.695374,399.101135 726.660278,406.688202 
	C765.353149,448.837433 762.965881,519.186829 721.881409,559.039185 
	C717.263855,563.518188 712.053345,567.385986 706.762817,571.835754 
	C725.436646,577.918701 742.437622,586.559631 758.023071,597.911926 
	C762.166016,600.929626 766.146973,604.169678 770.173767,607.285522 
	C764.914673,613.874451 759.967712,620.072388 754.595093,626.803711 
	C735.005066,610.686218 712.622131,599.039124 687.257202,592.152893 
	C684.273254,586.215637 682.637024,581.321777 687.230530,575.627625 
	C689.180237,573.210693 689.144226,568.461609 688.614685,564.985107 
	C688.109253,561.666870 688.664673,560.130981 691.617554,558.843323 
	C692.591003,558.418884 693.018738,556.742859 693.695984,555.639099 
	C692.295959,555.351562 690.888000,554.799622 689.497864,554.841370 
	C687.629211,554.897278 685.774353,555.411499 684.134766,555.481201 
	C717.957886,538.301086 734.166870,502.238464 728.000916,464.735291 
	C724.238159,441.849030 712.259705,424.139099 693.985046,409.882294 
	C694.549805,405.405762 695.877014,401.324280 695.489990,397.412354 
	C694.899231,391.440704 698.768555,389.301025 702.649048,386.787964 
z"/>
<path fill="#744AF8" opacity="1.000000" stroke="none" 
	d="
M781.590698,681.872925 
	C785.635498,674.798340 789.465454,667.589050 793.792358,660.691406 
	C797.328979,655.053528 804.456848,655.604187 808.057922,661.627502 
	C815.919067,674.776367 823.808044,687.913574 831.349792,701.245483 
	C833.785461,705.551208 835.886414,705.982056 839.793335,703.131836 
	C848.132263,697.048401 856.737000,691.329834 865.213501,685.434082 
	C869.097534,682.732544 873.072449,680.691223 877.528137,684.119324 
	C882.042542,687.592651 880.972717,691.878479 879.126099,696.293274 
	C872.507996,712.115601 865.930054,727.954773 859.367249,743.800049 
	C857.329285,748.720520 853.578918,750.864563 848.399048,750.858215 
	C823.575928,750.827881 798.752808,750.802551 773.611206,750.311646 
	C778.040588,749.383118 782.788330,748.918457 789.109314,748.299744 
	C786.207703,746.246033 784.461426,745.009949 783.152588,744.083557 
	C784.642517,739.790405 785.731567,736.325317 787.040222,732.945251 
	C790.461670,724.108459 793.133057,715.304993 787.074707,706.264038 
	C785.611572,707.109863 784.176208,707.939636 782.740845,708.769348 
	C782.423828,708.513062 782.106812,708.256714 781.789734,708.000427 
	C783.560608,704.786804 785.357666,701.587219 787.094360,698.355286 
	C788.622437,695.511414 790.045410,692.708008 786.636475,690.013794 
	C785.943726,689.466248 785.326599,687.771545 785.666382,687.135620 
	C788.346680,682.119263 784.501648,682.401001 781.590698,681.872925 
z"/>
<path fill="#298AFA" opacity="1.000000" stroke="none" 
	d="
M339.015747,476.744995 
	C343.311096,476.410736 347.653778,476.347565 351.878662,475.609741 
	C353.584778,475.311737 355.891846,473.875153 356.474091,472.388428 
	C372.714264,430.920502 397.331390,395.026367 428.914124,363.877106 
	C437.506683,355.402466 447.157990,348.001312 456.799988,340.368347 
	C457.005768,342.097076 457.229645,344.027222 456.371155,344.945862 
	C453.826385,347.668854 451.265930,350.092346 451.820831,354.375824 
	C451.949219,355.366913 450.642151,356.629333 449.837128,357.640778 
	C446.794312,361.463776 446.697510,367.330109 449.672272,371.181152 
	C451.090149,373.016663 452.482300,374.872009 453.886078,376.718384 
	C434.380554,396.754761 415.494995,417.337341 401.591064,441.817322 
	C394.557678,454.200714 388.389893,467.075775 381.605560,480.162964 
	C389.632111,483.598236 396.570129,486.567596 403.709717,490.149536 
	C400.454742,497.352051 392.919617,501.760529 393.334412,510.466156 
	C393.344604,510.680359 392.209137,510.949127 391.262665,511.138916 
	C384.916565,508.750977 379.057861,505.908813 372.886871,504.183289 
	C358.023651,500.027191 343.043121,500.653900 328.138000,504.024750 
	C329.681671,501.796936 331.414368,500.049286 332.729340,498.029663 
	C334.032654,496.028076 336.034088,493.601868 335.768372,491.625610 
	C335.026489,486.108704 336.526123,481.393646 339.015747,476.744995 
z"/>
<path fill="#3085FA" opacity="1.000000" stroke="none" 
	d="
M391.608032,511.192505 
	C392.209137,510.949127 393.344604,510.680359 393.334412,510.466156 
	C392.919617,501.760529 400.454742,497.352051 403.944153,490.419128 
	C415.628021,495.336761 424.808685,503.826141 433.016205,513.270203 
	C478.931641,566.103088 464.726929,647.075378 403.662567,681.213196 
	C400.475433,682.994934 397.049469,684.349548 393.424927,685.586670 
	C394.238098,682.579224 397.009613,679.088074 396.166687,677.351074 
	C393.880493,672.640198 395.659546,670.434082 399.092468,667.863464 
	C403.184174,664.799500 402.860535,658.075806 398.919067,654.649048 
	C399.969604,653.885498 400.849548,653.380066 402.064606,653.028137 
	C405.058075,655.944275 407.061493,654.793884 408.348297,651.914734 
	C409.197052,650.015686 409.475708,647.861938 410.160339,645.535706 
	C443.017822,612.607178 442.388336,562.991028 415.990753,532.305725 
	C409.054626,524.243042 399.798676,518.176025 391.608032,511.192505 
z"/>
<path fill="#8647F8" opacity="1.000000" stroke="none" 
	d="
M892.853027,906.484741 
	C899.064758,903.296021 905.258362,900.071350 911.493164,896.928101 
	C918.275757,893.508789 921.552795,888.006104 921.552185,880.460693 
	C921.549744,849.483948 921.553406,818.507263 921.559265,787.530518 
	C921.560669,780.165466 918.394043,774.760193 911.705383,771.516541 
	C901.372681,766.505798 891.038269,761.498413 880.709106,756.480408 
	C878.487366,755.401001 876.284790,754.282227 873.568481,752.930298 
	C876.130859,746.565674 878.574463,740.496033 881.197388,733.980896 
	C890.123291,738.223145 898.574768,742.067261 906.865051,746.232239 
	C914.124756,749.879456 921.697571,753.198914 928.242798,757.901123 
	C937.388062,764.471252 941.914612,774.182922 941.963684,785.500488 
	C942.103699,817.809265 942.120972,850.119568 941.959961,882.428101 
	C941.894226,895.610779 935.813171,906.336304 924.791199,912.864746 
	C912.394409,920.207581 898.962891,925.803528 885.268066,932.127319 
	C884.039124,932.708008 883.523560,933.320923 883.007935,933.933838 
	C883.007935,933.933777 882.632874,934.234985 882.212280,933.983887 
	C879.312256,934.315613 876.832825,934.898499 873.198425,935.752869 
	C875.423401,931.427673 876.423401,927.298035 879.017212,924.873352 
	C885.403687,918.903320 885.689514,917.739990 878.807739,913.590088 
	C879.947998,913.009644 881.088257,912.429260 882.739990,912.084473 
	C887.184143,911.579773 891.247070,911.053650 892.853027,906.484741 
z"/>
<path fill="#6156F6" opacity="1.000000" stroke="none" 
	d="
M688.038147,918.771606 
	C675.447021,914.398071 665.781128,906.753601 661.272827,893.843750 
	C659.982056,890.147583 659.343384,886.037842 659.323792,882.113159 
	C659.164734,850.287659 659.265015,818.461121 659.198242,786.635010 
	C659.169189,772.778198 664.865723,761.655701 676.724792,755.002808 
	C690.461792,747.296448 705.018188,741.050537 719.628540,733.972168 
	C722.364075,740.404053 724.880737,746.321167 727.621033,752.764221 
	C725.894043,753.685913 724.220154,754.663757 722.476685,755.495850 
	C711.803040,760.589966 701.143188,765.714661 690.419006,770.700684 
	C683.337708,773.993042 679.548767,779.480530 679.535889,787.196899 
	C679.483704,818.522644 679.562378,849.848755 679.660889,881.174561 
	C679.684082,888.537048 683.041748,893.830017 689.881531,896.928223 
	C693.911621,898.753723 697.781372,900.933044 701.874878,903.598022 
	C700.442932,905.165833 698.964600,906.485779 697.256409,906.938416 
	C691.798889,908.384583 687.973572,913.088257 688.038147,918.771606 
z"/>
<path fill="#298AFA" opacity="1.000000" stroke="none" 
	d="
M398.748474,654.907104 
	C402.860535,658.075806 403.184174,664.799500 399.092468,667.863464 
	C395.659546,670.434082 393.880493,672.640198 396.166687,677.351074 
	C397.009613,679.088074 394.238098,682.579224 393.057922,685.615417 
	C389.063324,687.557678 385.125946,689.154846 380.762665,690.924683 
	C388.837250,713.625244 400.112701,734.611328 413.788269,754.712280 
	C410.357208,757.816101 410.607910,760.351318 414.463531,765.530701 
	C415.314423,766.673767 416.894012,768.466919 416.549286,769.112549 
	C414.417603,773.105469 412.578278,777.871277 409.169342,780.377563 
	C406.246887,782.526245 406.041504,784.483704 405.932495,787.214600 
	C396.871826,774.542542 386.700684,762.502625 379.035004,749.036499 
	C369.704254,732.645386 362.543304,715.023987 354.242950,698.032898 
	C353.512878,696.538513 351.422852,695.136047 349.742950,694.800659 
	C346.518860,694.156921 343.135742,694.309937 339.410614,693.587341 
	C338.851654,689.252808 340.212555,683.950684 338.242340,681.981445 
	C333.820190,677.561707 333.498688,673.296082 335.411621,668.046936 
	C337.968964,668.325867 340.105164,668.692566 342.256866,668.892395 
	C362.707428,670.791138 381.523560,666.054626 398.748474,654.907104 
z"/>
<path fill="#199AFB" opacity="1.000000" stroke="none" 
	d="
M291.003052,675.923218 
	C279.728516,669.932251 271.166016,660.849487 263.859711,650.741394 
	C229.834976,603.669128 236.210770,542.485291 279.093994,503.269440 
	C283.057159,499.645172 287.738190,496.805878 292.488190,493.925934 
	C291.801239,497.077911 290.858643,499.974030 289.586487,502.717377 
	C287.906311,506.340576 285.906830,509.814545 284.168335,513.412415 
	C283.397491,515.007690 282.085144,516.991455 282.482849,518.379211 
	C283.674316,522.536743 285.588104,526.487244 287.084656,530.808228 
	C273.529572,547.746765 266.411469,566.647156 266.915955,588.146484 
	C267.279205,603.625305 272.248993,617.764709 279.740173,631.041992 
	C279.295319,632.963684 278.511536,635.209167 279.278625,636.598022 
	C281.652496,640.896301 282.785980,645.206055 283.232025,650.185608 
	C283.839386,656.966248 282.471802,664.570801 288.837280,670.012939 
	C290.227386,671.201416 290.315369,673.913086 291.003052,675.923218 
z"/>
<path fill="#6B4EF7" opacity="1.000000" stroke="none" 
	d="
M731.151855,878.947754 
	C722.455566,856.391907 713.882568,834.195984 705.313354,811.998596 
	C704.893921,810.911987 704.459045,809.827820 704.112305,808.717224 
	C702.284851,802.862427 704.782654,797.501099 710.105530,795.798889 
	C715.200378,794.169617 720.217407,796.870300 722.308716,802.417969 
	C728.294861,818.297852 734.260254,834.185486 740.241272,850.067261 
	C740.821045,851.606689 741.452759,853.126526 742.513733,855.796326 
	C743.704468,853.040100 744.557800,851.206726 745.298218,849.328796 
	C751.339722,834.005188 757.321350,818.657898 763.404663,803.350952 
	C766.114197,796.533081 771.005615,793.922485 776.523682,796.110962 
	C781.929565,798.254944 783.763733,803.697388 781.131226,810.408997 
	C772.079041,833.487427 762.948730,856.535217 753.875732,879.605469 
	C751.253906,886.271851 747.362671,889.700623 742.148926,889.389587 
	C735.854370,889.014038 732.910645,884.816589 731.151855,878.947754 
z"/>
<path fill="#6B4EF7" opacity="1.000000" stroke="none" 
	d="
M781.352661,682.097168 
	C784.501648,682.401001 788.346680,682.119263 785.666382,687.135620 
	C785.326599,687.771545 785.943726,689.466248 786.636475,690.013794 
	C790.045410,692.708008 788.622437,695.511414 787.094360,698.355286 
	C785.357666,701.587219 783.560608,704.786804 781.789734,708.000427 
	C782.106812,708.256714 782.423828,708.513062 782.740845,708.769348 
	C784.176208,707.939636 785.611572,707.109863 787.074707,706.264038 
	C793.133057,715.304993 790.461670,724.108459 787.040222,732.945251 
	C785.731567,736.325317 784.642517,739.790405 783.152588,744.083557 
	C784.461426,745.009949 786.207703,746.246033 789.109314,748.299744 
	C782.788330,748.918457 778.040588,749.383118 773.157349,750.199707 
	C765.717163,750.641968 758.410889,750.863159 751.108337,750.773743 
	C746.687134,750.719727 743.690918,748.262329 741.995056,744.182312 
	C735.107788,727.612732 728.232178,711.038208 721.284912,694.493835 
	C719.686768,690.688110 719.896057,687.321411 723.173828,684.590698 
	C726.507141,681.813782 730.164246,681.597656 733.762024,684.035034 
	C742.015625,689.626709 750.205872,695.311829 758.418152,700.964417 
	C759.513245,701.718201 760.634033,702.445557 761.661316,703.285034 
	C765.093750,706.090088 767.436768,705.913147 769.714478,701.559204 
	C773.164917,694.963684 777.281189,688.716553 781.352661,682.097168 
z"/>
<path fill="#4270F8" opacity="1.000000" stroke="none" 
	d="
M572.845398,551.390503 
	C558.213013,534.564880 549.994995,514.872131 547.523926,492.874664 
	C543.877747,460.416931 552.880310,431.729584 574.609863,407.239624 
	C575.967285,412.613770 577.490662,417.693268 577.883606,422.858734 
	C578.476318,430.649048 579.608704,431.828583 587.058777,430.377808 
	C575.291321,447.679840 570.205872,466.394897 571.796387,486.963654 
	C572.694885,498.583740 576.070801,509.475067 580.522339,519.960938 
	C578.994263,519.394165 577.800171,518.870544 575.483887,517.854797 
	C579.331177,524.551453 578.502563,529.438232 574.081665,534.165710 
	C572.465759,535.893616 571.452698,538.800049 571.378113,541.206421 
	C571.273376,544.582703 572.301758,547.994141 572.845398,551.390503 
z"/>
<path fill="#4B67F8" opacity="1.000000" stroke="none" 
	d="
M572.950928,551.692993 
	C572.301758,547.994141 571.273376,544.582703 571.378113,541.206421 
	C571.452698,538.800049 572.465759,535.893616 574.081665,534.165710 
	C578.502563,529.438232 579.331177,524.551453 575.483887,517.854797 
	C577.800171,518.870544 578.994263,519.394165 580.752441,520.220093 
	C595.034241,544.631592 615.291504,559.293701 642.986816,563.577637 
	C641.301697,565.972229 639.956421,568.502258 637.859924,569.926941 
	C633.272461,573.044495 631.220581,577.637695 631.290039,582.540283 
	C631.333374,585.597046 630.519531,587.630432 628.989624,589.816467 
	C617.126404,593.103027 605.175110,596.109375 593.439148,599.800598 
	C587.998352,601.511780 582.976929,604.556335 577.215271,606.761169 
	C576.423889,604.450378 576.182495,602.374817 575.920776,600.124268 
	C575.240723,598.634155 573.787476,596.815125 573.666443,594.911499 
	C573.381592,590.429993 573.732483,585.908020 573.826172,581.402466 
	C580.793640,578.274109 587.761169,575.145752 594.209534,572.250488 
	C587.278687,565.613892 580.167603,558.804688 572.950928,551.692993 
z"/>
<path fill="#357EFA" opacity="1.000000" stroke="none" 
	d="
M510.784180,676.958740 
	C504.378601,691.047913 499.061890,705.578979 497.587311,721.018433 
	C496.324280,734.243164 496.428589,747.601746 496.024628,760.903992 
	C495.822327,767.565247 492.256317,772.258301 486.179749,773.481140 
	C479.203857,774.884888 472.597656,770.630432 472.132355,763.522095 
	C469.525452,723.695984 475.153900,685.623535 497.623840,651.193115 
	C497.972015,652.804199 497.721039,654.412354 497.481445,656.022339 
	C497.052368,658.905273 495.237823,662.939209 496.481232,664.444641 
	C499.510498,668.112305 499.022339,671.671387 498.680542,675.621765 
	C498.520294,677.473938 498.851410,679.368713 498.959839,681.244141 
	C501.097626,680.705017 503.290802,680.320679 505.356781,679.580933 
	C507.237732,678.907471 508.980530,677.848083 510.784180,676.958740 
M500.924377,689.694397 
	C500.410583,689.431458 499.896820,689.168457 499.383026,688.905518 
	C499.386780,689.653137 499.390564,690.400818 499.394379,691.148499 
	C499.905670,690.880310 500.416962,690.612183 500.924377,689.694397 
z"/>
<path fill="#7A4AF8" opacity="1.000000" stroke="none" 
	d="
M878.446716,913.674927 
	C885.689514,917.739990 885.403687,918.903320 879.017212,924.873352 
	C876.423401,927.298035 875.423401,931.427673 873.198425,935.752869 
	C876.832825,934.898499 879.312256,934.315613 881.975586,934.026733 
	C868.111877,941.487488 854.078735,948.682922 840.009949,955.808044 
	C833.636047,959.036133 827.044128,961.860046 820.809021,965.330627 
	C807.289307,972.856079 793.930664,972.794739 780.492004,965.315002 
	C779.476501,964.749756 778.417603,964.262451 777.146179,963.111206 
	C775.650757,961.038574 774.318604,959.647217 773.149780,958.129944 
	C772.382141,957.133484 771.850403,955.955261 771.212952,954.858459 
	C772.434509,954.522217 773.648010,953.960693 774.879944,953.917114 
	C775.974365,953.878479 777.089111,954.414368 777.839294,954.605835 
	C781.099426,951.834412 784.116577,949.269592 787.133728,946.704773 
	C800.520508,953.909851 811.656311,947.007141 823.106934,941.180847 
	C841.358704,931.894043 859.752136,922.885742 878.446716,913.674927 
z"/>
<path fill="#8148F8" opacity="1.000000" stroke="none" 
	d="
M913.990967,410.626617 
	C912.134644,411.563934 908.557007,412.180328 908.562866,412.760132 
	C908.587280,415.149261 909.611511,417.558228 910.434937,419.901306 
	C911.368469,422.557770 914.030579,426.015503 913.161133,427.575195 
	C911.768860,430.072937 909.254883,433.401062 904.876648,432.231110 
	C903.903687,431.971161 901.753174,432.810822 901.597046,433.482117 
	C901.260681,434.927582 901.466797,436.802612 902.160889,438.130676 
	C904.851929,443.279297 907.858887,448.261841 910.653442,453.358185 
	C911.171448,454.302948 911.251404,455.487946 911.292603,456.771423 
	C900.541382,441.117584 890.214844,425.127747 879.421997,409.459076 
	C875.588440,403.893677 870.621216,399.109161 866.022400,393.303253 
	C865.158020,392.122955 864.442810,391.607544 863.727600,391.092163 
	C860.889832,388.329834 858.052124,385.567505 855.061279,382.133148 
	C851.124329,377.172729 851.288391,372.893646 855.127808,368.796387 
	C858.898376,364.772461 858.234009,360.836395 855.248169,356.793823 
	C853.814026,354.852173 852.990051,353.050140 856.065002,351.670044 
	C856.643127,351.410614 856.689392,349.966064 856.981018,349.068329 
	C863.764587,354.836700 871.295776,359.936188 877.177856,366.511078 
	C889.873352,380.701996 901.722168,395.650360 913.990967,410.626617 
z"/>
<path fill="#595CF8" opacity="1.000000" stroke="none" 
	d="
M702.431885,386.481750 
	C698.768555,389.301025 694.899231,391.440704 695.489990,397.412354 
	C695.877014,401.324280 694.549805,405.405762 693.638123,409.769806 
	C687.996521,407.372009 682.902954,404.117920 677.383179,401.947937 
	C656.526123,393.748505 636.085144,395.884094 615.909546,404.937500 
	C614.811951,402.762787 613.079651,400.876678 613.161560,399.073029 
	C613.424744,393.283264 613.905212,387.413788 615.267944,381.809937 
	C615.776306,379.719330 618.948669,378.276520 620.906311,376.538330 
	C648.318665,368.139282 674.611938,370.146790 699.537781,384.970032 
	C700.373474,385.467010 701.319885,385.777893 702.431885,386.481750 
z"/>
<path fill="#7A4AF8" opacity="1.000000" stroke="none" 
	d="
M879.146179,854.298767 
	C873.956360,854.895752 868.774414,855.578857 863.573303,856.051758 
	C861.134705,856.273438 858.659180,856.089722 855.475952,856.089722 
	C855.475952,864.378723 855.666077,872.150146 855.422546,879.907898 
	C855.179504,887.650146 848.088318,891.803162 841.307007,888.389893 
	C837.693176,886.570923 836.074951,883.565674 836.079529,879.489441 
	C836.107544,854.717834 836.081055,829.946289 836.042175,805.174683 
	C836.034729,800.419617 838.126221,796.277588 842.728333,796.049866 
	C853.424255,795.520630 864.173828,796.074097 874.663147,796.573853 
	C873.273254,797.768066 871.894043,798.387085 871.023621,799.430603 
	C869.703430,801.013184 869.138062,803.588013 867.541626,804.506653 
	C863.429199,806.873047 862.440735,810.175537 862.742004,814.570190 
	C860.115234,814.827759 857.866028,814.957947 855.371704,815.102295 
	C855.371704,818.241089 855.389587,820.890076 855.368713,823.538757 
	C855.266296,836.541077 855.262634,836.540161 868.011536,836.834839 
	C868.341980,836.842468 868.670532,836.928101 868.959900,837.350952 
	C868.340820,838.703796 867.765076,840.529358 867.182312,840.531616 
	C861.184387,840.555054 860.103333,846.534119 856.399536,849.276367 
	C855.590027,849.875671 855.373108,851.589661 855.372864,852.790405 
	C855.372803,853.188965 856.901978,853.921692 857.739319,853.932495 
	C863.401489,854.005798 869.065613,853.897827 874.728943,853.915894 
	C876.201782,853.920654 877.673767,854.164673 879.146179,854.298767 
M866.626404,797.007080 
	C863.783630,797.007080 860.940796,797.007080 858.098022,797.007080 
	C858.122620,797.445618 858.147217,797.884155 858.171814,798.322693 
	C861.234802,797.899353 864.297729,797.476013 866.626404,797.007080 
z"/>
<path fill="#357EFA" opacity="1.000000" stroke="none" 
	d="
M454.196594,376.584839 
	C452.482300,374.872009 451.090149,373.016663 449.672272,371.181152 
	C446.697510,367.330109 446.794312,361.463776 449.837128,357.640778 
	C450.642151,356.629333 451.949219,355.366913 451.820831,354.375824 
	C451.265930,350.092346 453.826385,347.668854 456.371155,344.945862 
	C457.229645,344.027222 457.005768,342.097076 457.137451,340.307983 
	C473.640656,326.637695 491.902405,315.924774 511.679749,307.046112 
	C515.396118,311.294342 515.912842,315.833710 514.173340,320.304626 
	C513.056458,323.175262 513.617554,324.291260 516.170715,325.678467 
	C518.668823,327.035736 520.737549,329.183289 522.994751,330.983948 
	C506.252563,341.342163 489.379761,351.497620 472.833435,362.159760 
	C466.347931,366.338959 460.594177,371.653717 454.196594,376.584839 
z"/>
<path fill="#744AF8" opacity="1.000000" stroke="none" 
	d="
M856.745911,348.824402 
	C856.689392,349.966064 856.643127,351.410614 856.065002,351.670044 
	C852.990051,353.050140 853.814026,354.852173 855.248169,356.793823 
	C858.234009,360.836395 858.898376,364.772461 855.127808,368.796387 
	C851.288391,372.893646 851.124329,377.172729 854.916382,381.840485 
	C843.147400,372.807220 831.705505,362.928955 819.485352,354.131653 
	C809.960144,347.274445 799.467102,341.761719 789.192139,334.990295 
	C788.954529,333.665222 789.167664,332.855713 788.865479,332.360687 
	C786.484436,328.459778 787.233643,325.485809 790.724915,322.476776 
	C791.921692,321.445221 791.876099,318.730133 791.984192,316.761475 
	C792.057922,315.419403 791.413147,314.037842 791.252075,313.358948 
	C794.253845,312.366333 796.680298,311.563995 799.106689,310.761658 
	C810.750977,317.370972 822.701172,323.505829 833.936279,330.749756 
	C841.958374,335.922028 849.020386,342.583466 856.745911,348.824402 
z"/>
<path fill="#6B4EF7" opacity="1.000000" stroke="none" 
	d="
M787.052979,946.377808 
	C784.116577,949.269592 781.099426,951.834412 777.839294,954.605835 
	C777.089111,954.414368 775.974365,953.878479 774.879944,953.917114 
	C773.648010,953.960693 772.434509,954.522217 771.212952,954.858459 
	C771.850403,955.955261 772.382141,957.133484 773.149780,958.129944 
	C774.318604,959.647217 775.650757,961.038574 776.919189,962.856323 
	C767.797668,958.830017 758.616638,954.538696 749.554321,950.009644 
	C729.176819,939.825623 708.858276,929.523865 688.276917,919.020813 
	C687.973572,913.088257 691.798889,908.384583 697.256409,906.938416 
	C698.964600,906.485779 700.442932,905.165833 702.104858,903.836731 
	C719.120667,911.803223 736.092590,920.106995 752.983398,928.572449 
	C764.372253,934.280457 775.646667,940.216736 787.052979,946.377808 
z"/>
<path fill="#3085FA" opacity="1.000000" stroke="none" 
	d="
M406.048187,787.524414 
	C406.041504,784.483704 406.246887,782.526245 409.169342,780.377563 
	C412.578278,777.871277 414.417603,773.105469 416.549286,769.112549 
	C416.894012,768.466919 415.314423,766.673767 414.463531,765.530701 
	C410.607910,760.351318 410.357208,757.816101 413.894043,755.045410 
	C425.482758,767.821289 436.626740,780.833191 448.029114,793.614563 
	C451.534851,797.544373 455.746948,800.843994 459.429840,804.725952 
	C455.378784,805.778259 457.549927,807.527100 458.497589,809.170105 
	C463.080261,817.114929 462.190765,820.791626 455.064911,826.129578 
	C453.756561,827.109619 453.461700,829.442688 452.637543,831.288940 
	C451.459778,830.991394 449.636017,830.530518 447.812256,830.069702 
	C433.929443,815.991272 420.046661,801.912720 406.048187,787.524414 
z"/>
<path fill="#744AF8" opacity="1.000000" stroke="none" 
	d="
M816.364685,880.155518 
	C814.617126,887.144653 810.835144,890.013245 805.010742,889.153870 
	C799.813171,888.386902 797.025452,884.622681 797.030884,878.310303 
	C797.051331,854.498840 797.060425,830.687378 797.125061,806.876038 
	C797.145386,799.400513 800.531311,795.388794 806.582153,795.404602 
	C812.512756,795.420105 816.370056,799.703796 816.390991,806.802551 
	C816.462646,831.113464 816.412170,855.424744 816.364685,880.155518 
z"/>
<path fill="#3A78F8" opacity="1.000000" stroke="none" 
	d="
M511.018494,676.705933 
	C508.980530,677.848083 507.237732,678.907471 505.356781,679.580933 
	C503.290802,680.320679 501.097626,680.705017 498.959839,681.244141 
	C498.851410,679.368713 498.520294,677.473938 498.680542,675.621765 
	C499.022339,671.671387 499.510498,668.112305 496.481232,664.444641 
	C495.237823,662.939209 497.052368,658.905273 497.481445,656.022339 
	C497.721039,654.412354 497.972015,652.804199 497.885132,650.989014 
	C506.886597,634.746155 518.802979,620.848267 532.574707,608.485229 
	C534.174805,607.048889 535.745728,605.580139 537.670532,604.442017 
	C539.793701,609.349731 541.169189,614.162476 543.496155,618.459900 
	C545.170593,621.552246 547.692322,624.629761 552.139709,624.040955 
	C538.632812,635.841797 526.802185,649.071533 517.727234,664.622559 
	C515.462219,668.503784 513.405334,672.506348 511.018494,676.705933 
z"/>
<path fill="#4B67F8" opacity="1.000000" stroke="none" 
	d="
M633.988586,301.845123 
	C612.330017,303.899384 590.974792,307.650421 569.361755,312.983826 
	C566.428711,310.707092 566.190796,308.864471 569.214478,307.406342 
	C572.028198,306.049561 572.706055,304.268158 571.054688,301.450714 
	C570.355530,300.257935 569.853027,298.585724 570.085449,297.277924 
	C570.853394,292.957214 571.997314,288.703308 572.996887,284.423767 
	C594.008728,278.905487 615.265869,275.230255 637.511963,276.303864 
	C636.911865,277.713318 635.725037,278.586914 634.923889,279.730682 
	C633.185425,282.212616 630.824890,284.655426 630.222961,287.439514 
	C629.413147,291.184662 630.022095,295.236572 630.022095,299.282135 
	C631.003418,299.916229 632.496033,300.880676 633.988586,301.845123 
z"/>
<path fill="#595CF8" opacity="1.000000" stroke="none" 
	d="
M592.001465,871.101807 
	C599.572449,872.057617 607.132935,873.109497 614.717346,873.944092 
	C623.473450,874.907654 632.250671,875.679688 640.850769,876.518433 
	C642.168945,885.323181 643.458618,893.937744 644.909546,903.629211 
	C632.261414,902.550659 619.347717,901.710693 606.502075,900.265442 
	C597.417847,899.243408 588.425964,897.401672 579.280273,895.297119 
	C580.113220,892.395630 581.611572,890.189758 581.896423,887.837036 
	C582.640198,881.693298 582.881165,875.537476 590.286682,873.252197 
	C591.010498,873.028809 591.436951,871.841614 592.001465,871.101807 
z"/>
<path fill="#3A78F8" opacity="1.000000" stroke="none" 
	d="
M572.618286,284.407104 
	C571.997314,288.703308 570.853394,292.957214 570.085449,297.277924 
	C569.853027,298.585724 570.355530,300.257935 571.054688,301.450714 
	C572.706055,304.268158 572.028198,306.049561 569.214478,307.406342 
	C566.190796,308.864471 566.428711,310.707092 568.958984,313.000153 
	C554.008057,319.178223 538.864075,325.032257 523.357422,330.935120 
	C520.737549,329.183289 518.668823,327.035736 516.170715,325.678467 
	C513.617554,324.291260 513.056458,323.175262 514.173340,320.304626 
	C515.912842,315.833710 515.396118,311.294342 512.049500,307.009460 
	C531.035645,296.693024 551.373840,289.826813 572.618286,284.407104 
z"/>
<path fill="#595CF8" opacity="1.000000" stroke="none" 
	d="
M634.453735,301.914795 
	C632.496033,300.880676 631.003418,299.916229 630.022095,299.282135 
	C630.022095,295.236572 629.413147,291.184662 630.222961,287.439514 
	C630.824890,284.655426 633.185425,282.212616 634.923889,279.730682 
	C635.725037,278.586914 636.911865,277.713318 637.962646,276.372742 
	C638.752686,275.968353 639.503906,275.908447 640.800415,276.152496 
	C641.900146,275.961853 642.454468,275.467255 643.008789,274.972656 
	C661.743530,276.016693 680.478210,277.060730 699.541931,278.595886 
	C698.162598,280.704559 696.708069,282.823730 694.696228,283.841278 
	C689.620972,286.408234 686.720154,290.919098 688.034058,296.460388 
	C688.705505,299.292023 690.561157,301.842896 691.881531,304.520691 
	C672.893982,303.675262 653.906494,302.829865 634.453735,301.914795 
z"/>
<path fill="#228DFA" opacity="1.000000" stroke="none" 
	d="
M291.309113,676.072998 
	C290.315369,673.913086 290.227386,671.201416 288.837280,670.012939 
	C282.471802,664.570801 283.839386,656.966248 283.232025,650.185608 
	C282.785980,645.206055 281.652496,640.896301 279.278625,636.598022 
	C278.511536,635.209167 279.295319,632.963684 280.015625,631.228271 
	C288.770813,643.055176 298.062134,653.589966 311.425720,659.398987 
	C319.089478,662.730347 327.127930,665.199829 334.997681,668.057251 
	C333.498688,673.296082 333.820190,677.561707 338.242340,681.981445 
	C340.212555,683.950684 338.851654,689.252808 339.000916,693.502808 
	C321.705658,692.053284 305.634125,686.879150 291.309113,676.072998 
z"/>
<path fill="#595CF8" opacity="1.000000" stroke="none" 
	d="
M629.417542,589.856079 
	C630.519531,587.630432 631.333374,585.597046 631.290039,582.540283 
	C631.220581,577.637695 633.272461,573.044495 637.859924,569.926941 
	C639.956421,568.502258 641.301697,565.972229 643.452087,563.507385 
	C657.869873,564.006714 671.219543,561.653931 683.913574,555.729004 
	C685.774353,555.411499 687.629211,554.897278 689.497864,554.841370 
	C690.888000,554.799622 692.295959,555.351562 693.695984,555.639099 
	C693.018738,556.742859 692.591003,558.418884 691.617554,558.843323 
	C688.664673,560.130981 688.109253,561.666870 688.614685,564.985107 
	C689.144226,568.461609 689.180237,573.210693 687.230530,575.627625 
	C682.637024,581.321777 684.273254,586.215637 686.966919,591.956055 
	C677.010498,591.056702 667.062927,589.113525 657.046326,588.644836 
	C648.018616,588.222412 638.915405,589.415283 629.417542,589.856079 
z"/>
<path fill="#6156F6" opacity="1.000000" stroke="none" 
	d="
M692.197021,304.735229 
	C690.561157,301.842896 688.705505,299.292023 688.034058,296.460388 
	C686.720154,290.919098 689.620972,286.408234 694.696228,283.841278 
	C696.708069,282.823730 698.162598,280.704559 699.925781,278.761230 
	C717.351929,280.760529 734.485352,284.042206 750.874451,290.547913 
	C753.998413,291.787994 757.386047,292.363922 760.696167,293.783020 
	C758.125916,294.113251 755.511658,293.753845 752.896912,293.749695 
	C750.877808,293.746490 748.855042,294.406708 746.839233,294.379608 
	C744.137573,294.343292 742.235840,294.052643 742.260254,298.113281 
	C742.274292,300.430176 739.729187,302.840790 738.135620,305.065399 
	C736.744324,307.007629 735.071960,308.748444 733.509583,310.595001 
	C740.735168,313.294586 746.886475,315.552826 752.986206,317.942719 
	C753.509705,318.147827 753.690918,319.226440 754.031128,319.899292 
	C739.075073,315.788635 724.159851,311.519836 709.141541,307.651215 
	C703.725952,306.256226 698.062744,305.822296 692.197021,304.735229 
z"/>
<path fill="#8148F8" opacity="1.000000" stroke="none" 
	d="
M863.119507,814.442871 
	C862.440735,810.175537 863.429199,806.873047 867.541626,804.506653 
	C869.138062,803.588013 869.703430,801.013184 871.023621,799.430603 
	C871.894043,798.387085 873.273254,797.768066 874.836731,796.927979 
	C875.248779,796.897095 875.645020,796.906128 876.018860,797.220947 
	C877.264221,797.350769 878.135742,797.165771 879.007263,796.980835 
	C892.022095,800.562378 900.178528,811.841248 900.367981,826.518738 
	C900.527283,838.857422 891.705688,850.787292 879.522583,854.249390 
	C877.673767,854.164673 876.201782,853.920654 874.728943,853.915894 
	C869.065613,853.897827 863.401489,854.005798 857.739319,853.932495 
	C856.901978,853.921692 855.372803,853.188965 855.372864,852.790405 
	C855.373108,851.589661 855.590027,849.875671 856.399536,849.276367 
	C860.103333,846.534119 861.184387,840.555054 867.182312,840.531616 
	C867.765076,840.529358 868.340820,838.703796 869.329712,837.264282 
	C871.457458,836.455933 873.175354,836.107910 875.070801,836.031494 
	C875.827698,835.737183 876.406982,835.171387 877.154419,834.327515 
	C880.925842,830.207520 882.183044,825.834473 879.822388,820.942078 
	C877.476990,816.081116 873.278442,814.289185 868.048340,814.490662 
	C866.408447,814.553894 864.762634,814.463135 863.119507,814.442871 
z"/>
<path fill="#6B4EF7" opacity="1.000000" stroke="none" 
	d="
M754.306763,320.119507 
	C753.690918,319.226440 753.509705,318.147827 752.986206,317.942719 
	C746.886475,315.552826 740.735168,313.294586 733.509583,310.595001 
	C735.071960,308.748444 736.744324,307.007629 738.135620,305.065399 
	C739.729187,302.840790 742.274292,300.430176 742.260254,298.113281 
	C742.235840,294.052643 744.137573,294.343292 746.839233,294.379608 
	C748.855042,294.406708 750.877808,293.746490 752.896912,293.749695 
	C755.511658,293.753845 758.125916,294.113251 760.946777,294.011963 
	C773.670715,299.200897 786.188171,304.697601 798.906128,310.477966 
	C796.680298,311.563995 794.253845,312.366333 791.252075,313.358948 
	C791.413147,314.037842 792.057922,315.419403 791.984192,316.761475 
	C791.876099,318.730133 791.921692,321.445221 790.724915,322.476776 
	C787.233643,325.485809 786.484436,328.459778 788.865479,332.360687 
	C789.167664,332.855713 788.954529,333.665222 788.965820,334.734924 
	C777.495117,330.207153 766.038696,325.273468 754.306763,320.119507 
z"/>
<path fill="#228DFA" opacity="1.000000" stroke="none" 
	d="
M287.219910,530.518555 
	C285.588104,526.487244 283.674316,522.536743 282.482849,518.379211 
	C282.085144,516.991455 283.397491,515.007690 284.168335,513.412415 
	C285.906830,509.814545 287.906311,506.340576 289.586487,502.717377 
	C290.858643,499.974030 291.801239,497.077911 292.834473,493.815643 
	C305.213043,485.066132 318.488678,478.992523 333.660339,477.840485 
	C335.236267,477.720825 336.766968,477.005005 338.667175,476.655396 
	C336.526123,481.393646 335.026489,486.108704 335.768372,491.625610 
	C336.034088,493.601868 334.032654,496.028076 332.729340,498.029663 
	C331.414368,500.049286 329.681671,501.796936 327.907898,504.292908 
	C311.446411,509.107788 298.527832,518.540100 287.219910,530.518555 
z"/>
<path fill="#4270F8" opacity="1.000000" stroke="none" 
	d="
M499.283630,833.906006 
	C514.538330,841.353027 529.792969,848.799988 544.893433,856.568298 
	C543.667969,857.908997 541.891663,858.783081 541.646240,859.972839 
	C540.529419,865.388000 539.939819,870.909607 538.951111,876.354797 
	C538.595703,878.312073 537.652527,880.162537 536.977539,882.061768 
	C521.736023,874.910889 506.494507,867.760071 491.461487,860.317383 
	C492.777618,858.997803 494.206635,858.147583 494.900970,856.891296 
	C495.572418,855.676514 495.057831,853.750732 495.810699,852.646057 
	C498.665436,848.457642 497.736206,844.749084 495.426331,840.680176 
	C492.945679,836.310425 493.879059,834.980652 499.283630,833.906006 
z"/>
<path fill="#357EFA" opacity="1.000000" stroke="none" 
	d="
M499.062256,833.639648 
	C493.879059,834.980652 492.945679,836.310425 495.426331,840.680176 
	C497.736206,844.749084 498.665436,848.457642 495.810699,852.646057 
	C495.057831,853.750732 495.572418,855.676514 494.900970,856.891296 
	C494.206635,858.147583 492.777618,858.997803 491.245453,860.050171 
	C479.973785,852.910217 469.081390,845.812927 458.305328,838.543152 
	C454.759430,836.151001 451.514526,833.312622 447.972107,830.374023 
	C449.636017,830.530518 451.459778,830.991394 452.637543,831.288940 
	C453.461700,829.442688 453.756561,827.109619 455.064911,826.129578 
	C462.190765,820.791626 463.080261,817.114929 458.497589,809.170105 
	C457.549927,807.527100 455.378784,805.778259 459.590210,805.015137 
	C460.569824,805.452454 461.183319,805.894226 461.964722,806.961426 
	C462.911682,808.007812 463.690704,808.428833 464.469757,808.849792 
	C475.926819,817.024231 487.383881,825.198730 499.062256,833.639648 
z"/>
<path fill="#4B67F8" opacity="1.000000" stroke="none" 
	d="
M537.227966,882.301514 
	C537.652527,880.162537 538.595703,878.312073 538.951111,876.354797 
	C539.939819,870.909607 540.529419,865.388000 541.646240,859.972839 
	C541.891663,858.783081 543.667969,857.908997 545.166992,856.813354 
	C556.175964,860.321350 566.720398,864.020325 577.355713,867.436401 
	C581.931152,868.906006 586.695007,869.789185 591.687378,871.020264 
	C591.436951,871.841614 591.010498,873.028809 590.286682,873.252197 
	C582.881165,875.537476 582.640198,881.693298 581.896423,887.837036 
	C581.611572,890.189758 580.113220,892.395630 578.998657,895.032349 
	C565.045837,891.111206 551.262146,886.826233 537.227966,882.301514 
z"/>
<path fill="#4B67F8" opacity="1.000000" stroke="none" 
	d="
M620.514648,376.610474 
	C618.948669,378.276520 615.776306,379.719330 615.267944,381.809937 
	C613.905212,387.413788 613.424744,393.283264 613.161560,399.073029 
	C613.079651,400.876678 614.811951,402.762787 615.701172,405.193939 
	C604.233704,411.580780 595.275635,420.322449 587.144348,430.037018 
	C579.608704,431.828583 578.476318,430.649048 577.883606,422.858734 
	C577.490662,417.693268 575.967285,412.613770 574.905579,407.071899 
	C587.067261,392.307526 602.260864,382.479645 620.514648,376.610474 
z"/>
<path fill="#4270F8" opacity="1.000000" stroke="none" 
	d="
M552.453491,623.928101 
	C547.692322,624.629761 545.170593,621.552246 543.496155,618.459900 
	C541.169189,614.162476 539.793701,609.349731 538.004211,604.379028 
	C549.694519,596.534607 561.391479,589.068726 573.457275,581.502686 
	C573.732483,585.908020 573.381592,590.429993 573.666443,594.911499 
	C573.787476,596.815125 575.240723,598.634155 575.920776,600.124268 
	C576.182495,602.374817 576.423889,604.450378 576.858459,606.818604 
	C568.956909,612.679321 560.862122,618.247253 552.453491,623.928101 
z"/>
<path fill="#8148F8" opacity="1.000000" stroke="none" 
	d="
M875.268982,678.667114 
	C870.524963,671.748413 871.000732,664.831970 876.285645,660.002075 
	C880.729858,655.940491 888.077942,655.723572 892.774475,659.515259 
	C898.751465,664.340637 899.621643,672.205994 894.823608,678.037842 
	C889.905396,684.015930 881.807373,684.396423 875.268982,678.667114 
z"/>
<path fill="#6551F7" opacity="1.000000" stroke="none" 
	d="
M703.475342,668.413452 
	C706.105530,658.904236 712.969055,654.737061 720.598877,657.651733 
	C727.242065,660.189514 730.421936,666.369812 728.679138,673.356323 
	C727.203125,679.273376 721.259827,683.338745 715.059326,682.672546 
	C708.220825,681.937805 703.809631,676.674866 703.475342,668.413452 
z"/>
<path fill="#744AF8" opacity="1.000000" stroke="none" 
	d="
M810.292419,646.236023 
	C804.641296,651.379395 799.541321,652.316528 794.232849,649.428589 
	C789.883728,647.062622 787.232605,641.894043 787.802124,636.891174 
	C788.466980,631.051025 792.260925,626.674683 797.977173,625.409241 
	C803.217529,624.249084 807.465149,626.031799 810.672913,630.250488 
	C814.295471,635.014587 814.211304,639.987732 810.292419,646.236023 
z"/>
<path fill="#7A4AF8" opacity="1.000000" stroke="none" 
	d="
M892.496582,906.584106 
	C891.247070,911.053650 887.184143,911.579773 883.064453,912.035828 
	C885.965027,910.062195 889.052612,908.372803 892.496582,906.584106 
z"/>
<path fill="#8148F8" opacity="1.000000" stroke="none" 
	d="
M920.155090,419.579803 
	C918.841797,418.158539 917.438232,416.406311 916.052002,414.274902 
	C917.401184,415.680054 918.732971,417.464447 920.155090,419.579803 
z"/>
<path fill="#4B67F8" opacity="1.000000" stroke="none" 
	d="
M642.816528,274.860504 
	C642.454468,275.467255 641.900146,275.961853 641.171692,276.227936 
	C641.539795,275.582397 642.082031,275.165375 642.816528,274.860504 
z"/>
<path fill="#7A4AF8" opacity="1.000000" stroke="none" 
	d="
M878.800415,796.818848 
	C878.135742,797.165771 877.264221,797.350769 876.203552,797.292847 
	C876.874084,796.918945 877.733826,796.787903 878.800415,796.818848 
z"/>
<path fill="#8148F8" opacity="1.000000" stroke="none" 
	d="
M916.046082,413.631226 
	C915.419922,413.179871 914.724365,412.423706 914.033813,411.301392 
	C914.684814,411.732269 915.330750,412.529297 916.046082,413.631226 
z"/>
<path fill="#3085FA" opacity="1.000000" stroke="none" 
	d="
M464.306091,808.570496 
	C463.690704,808.428833 462.911682,808.007812 462.094666,807.217407 
	C462.751984,807.329041 463.447205,807.810120 464.306091,808.570496 
z"/>
<path fill="#744AF8" opacity="1.000000" stroke="none" 
	d="
M863.855591,391.388519 
	C864.442810,391.607544 865.158020,392.122955 865.873413,393.018005 
	C865.243652,392.826691 864.613586,392.255798 863.855591,391.388519 
z"/>
<path fill="#7A4AF8" opacity="1.000000" stroke="none" 
	d="
M883.318481,933.897949 
	C883.523560,933.320923 884.039124,932.708008 884.891602,932.087402 
	C884.695374,932.673828 884.162170,933.267944 883.318481,933.897949 
z"/>
<path fill="#8148F8" opacity="1.000000" stroke="none" 
	d="
M916.080261,468.272278 
	C916.315002,468.246063 916.559265,468.504944 916.857727,469.031219 
	C916.637817,469.051514 916.363770,468.804413 916.080261,468.272278 
z"/>
<path fill="#FDFDFE" opacity="1.000000" stroke="none" 
	d="
M587.058777,430.377808 
	C595.275635,420.322449 604.233704,411.580780 615.896973,405.520264 
	C636.085144,395.884094 656.526123,393.748505 677.383179,401.947937 
	C682.902954,404.117920 687.996521,407.372009 693.632751,410.240814 
	C712.259705,424.139099 724.238159,441.849030 728.000916,464.735291 
	C734.166870,502.238464 717.957886,538.301086 684.134766,555.481201 
	C671.219543,561.653931 657.869873,564.006714 643.451294,563.141602 
	C615.291504,559.293701 595.034241,544.631592 581.086487,520.263306 
	C576.070801,509.475067 572.694885,498.583740 571.796387,486.963654 
	C570.205872,466.394897 575.291321,447.679840 587.058777,430.377808 
z"/>
<path fill="#FBFDFE" opacity="1.000000" stroke="none" 
	d="
M287.084656,530.808228 
	C298.527832,518.540100 311.446411,509.107788 327.913940,504.653961 
	C343.043121,500.653900 358.023651,500.027191 372.886871,504.183289 
	C379.057861,505.908813 384.916565,508.750977 391.262695,511.138916 
	C399.798676,518.176025 409.054626,524.243042 415.990753,532.305725 
	C442.388336,562.991028 443.017822,612.607178 409.841675,645.666382 
	C406.824707,648.347229 404.277100,650.610962 401.729492,652.874634 
	C400.849548,653.380066 399.969604,653.885498 398.919067,654.649048 
	C381.523560,666.054626 362.707428,670.791138 342.256866,668.892395 
	C340.105164,668.692566 337.968964,668.325867 335.411652,668.046875 
	C327.127930,665.199829 319.089478,662.730347 311.425720,659.398987 
	C298.062134,653.589966 288.770813,643.055176 280.386108,631.160156 
	C272.248993,617.764709 267.279205,603.625305 266.915955,588.146484 
	C266.411469,566.647156 273.529572,547.746765 287.084656,530.808228 
M389.185791,574.067505 
	C387.785614,574.122925 386.385468,574.178345 384.065674,574.053101 
	C376.957062,574.053101 369.848480,574.053101 362.215363,574.053101 
	C362.215363,571.466553 362.217377,569.512817 362.214966,567.559143 
	C362.206146,560.399170 362.382568,553.232788 362.138550,546.080811 
	C361.839569,537.318115 352.597870,532.351440 345.184479,536.796997 
	C341.423920,539.052063 339.709656,542.419128 339.731232,546.791199 
	C339.775269,555.724304 339.744446,564.657776 339.744446,574.005737 
	C330.075195,574.005737 321.107361,573.902649 312.143219,574.039551 
	C305.429291,574.142090 300.856812,578.343689 300.320557,584.508301 
	C299.701385,591.626404 304.525146,596.893066 311.999359,596.983215 
	C321.095856,597.092957 330.194641,597.009277 339.780640,597.009277 
	C339.780640,606.052490 339.691162,614.506165 339.806610,622.956970 
	C339.914948,630.884705 344.113800,635.430908 350.999054,635.389771 
	C358.024475,635.347778 362.246246,630.504883 362.253143,622.448608 
	C362.259277,615.288330 362.377319,608.124146 362.170166,600.969666 
	C362.084564,598.015076 362.974121,596.593689 366.911285,596.938599 
	C374.545319,596.960754 382.179535,597.028625 389.813293,596.991150 
	C396.299133,596.959229 401.165131,592.973083 401.762329,587.349060 
	C402.458374,580.794189 399.040771,576.144287 391.701569,574.128174 
	C391.137482,574.169067 390.573364,574.209961 389.185791,574.067505 
z"/>
<path fill="#298AFA" opacity="1.000000" stroke="none" 
	d="
M402.064606,653.028137 
	C404.277100,650.610962 406.824707,648.347229 409.690979,645.952881 
	C409.475708,647.861938 409.197052,650.015686 408.348297,651.914734 
	C407.061493,654.793884 405.058075,655.944275 402.064606,653.028137 
z"/>
<path fill="#3A78F8" opacity="1.000000" stroke="none" 
	d="
M500.926331,690.019226 
	C500.416962,690.612183 499.905670,690.880310 499.394348,691.148438 
	C499.390564,690.400818 499.386780,689.653137 499.383026,688.905518 
	C499.896820,689.168457 500.410583,689.431458 500.926331,690.019226 
z"/>
<path fill="#FBFDFE" opacity="1.000000" stroke="none" 
	d="
M862.742004,814.570251 
	C864.762634,814.463135 866.408447,814.553894 868.048340,814.490662 
	C873.278442,814.289185 877.476990,816.081116 879.822388,820.942078 
	C882.183044,825.834473 880.925842,830.207520 876.855591,834.397278 
	C875.890137,835.083374 875.391663,835.421631 874.893188,835.759888 
	C873.175354,836.107910 871.457458,836.455933 869.369812,836.890625 
	C868.670532,836.928101 868.341980,836.842468 868.011536,836.834839 
	C855.262634,836.540161 855.266296,836.541077 855.368713,823.538757 
	C855.389587,820.890076 855.371704,818.241089 855.371704,815.102295 
	C857.866028,814.957947 860.115234,814.827759 862.742004,814.570251 
z"/>
<path fill="#8148F8" opacity="1.000000" stroke="none" 
	d="
M866.993530,797.029846 
	C864.297729,797.476013 861.234802,797.899353 858.171814,798.322693 
	C858.147217,797.884155 858.122620,797.445618 858.098022,797.007080 
	C860.940796,797.007080 863.783630,797.007080 866.993530,797.029846 
z"/>
<path fill="#7A4AF8" opacity="1.000000" stroke="none" 
	d="
M875.070801,836.031494 
	C875.391663,835.421631 875.890137,835.083374 876.687439,834.675354 
	C876.406982,835.171387 875.827698,835.737183 875.070801,836.031494 
z"/>
<path fill="#228DFA" opacity="1.000000" stroke="none" 
	d="
M365.985870,596.764343 
	C362.974121,596.593689 362.084564,598.015076 362.170166,600.969666 
	C362.377319,608.124146 362.259277,615.288330 362.253143,622.448608 
	C362.246246,630.504883 358.024475,635.347778 350.999054,635.389771 
	C344.113800,635.430908 339.914948,630.884705 339.806610,622.956970 
	C339.691162,614.506165 339.780640,606.052490 339.780640,597.009277 
	C330.194641,597.009277 321.095856,597.092957 311.999359,596.983215 
	C304.525146,596.893066 299.701385,591.626404 300.320557,584.508301 
	C300.856812,578.343689 305.429291,574.142090 312.143219,574.039551 
	C321.107361,573.902649 330.075195,574.005737 339.744446,574.005737 
	C339.744446,564.657776 339.775269,555.724304 339.731232,546.791199 
	C339.709656,542.419128 341.423920,539.052063 345.184479,536.796997 
	C352.597870,532.351440 361.839569,537.318115 362.138550,546.080811 
	C362.382568,553.232788 362.206146,560.399170 362.214966,567.559143 
	C362.217377,569.512817 362.215363,571.466553 362.215363,574.053101 
	C369.848480,574.053101 376.957062,574.053101 384.413269,574.518921 
	C379.094116,575.323914 373.431366,575.813293 367.759644,575.963562 
	C360.993317,576.142822 359.519043,578.449341 362.236328,584.920471 
	C362.727570,586.090271 363.056122,587.481995 362.940918,588.723022 
	C362.640015,591.963806 363.187714,594.755676 365.985870,596.764343 
z"/>
<path fill="#298AFA" opacity="1.000000" stroke="none" 
	d="
M366.448578,596.851440 
	C363.187714,594.755676 362.640015,591.963806 362.940918,588.723022 
	C363.056122,587.481995 362.727570,586.090271 362.236328,584.920471 
	C359.519043,578.449341 360.993317,576.142822 367.759644,575.963562 
	C373.431366,575.813293 379.094116,575.323914 384.873047,574.609192 
	C386.385468,574.178345 387.785614,574.122925 389.662567,574.464478 
	C390.833466,574.697083 391.527588,574.532776 392.221710,574.368408 
	C399.040771,576.144287 402.458374,580.794189 401.762329,587.349060 
	C401.165131,592.973083 396.299133,596.959229 389.813293,596.991150 
	C382.179535,597.028625 374.545319,596.960754 366.448578,596.851440 
z"/>
<path fill="#228DFA" opacity="1.000000" stroke="none" 
	d="
M391.961639,574.248291 
	C391.527588,574.532776 390.833466,574.697083 390.074310,574.556152 
	C390.573364,574.209961 391.137482,574.169067 391.961639,574.248291 
z"/>
</svg>
